<svg viewBox="0 0 32 32" xmlns="http://www.w3.org/2000/svg"><g fill="#D9DDE2" fill-rule="evenodd"><path d="M8.862 21.614H7.844V17.41h1.018zM9.756 14.609a1.402 1.402 0 1 1-2.805 0 1.402 1.402 0 0 1 2.805 0"/><path d="M10.348 17.871a1.995 1.995 0 1 1-3.99 0 1.995 1.995 0 0 1 3.99 0"/><path d="M6.96 14.451l-.566 3.047h3.935l-.582-3.047zM2.43 15.458a1.39 1.39 0 0 1 2.639-.013h.007l.567 1.822a1.996 1.996 0 0 1-1.384 2.56v1.787H3.241v-1.787a1.996 1.996 0 0 1-1.355-2.641l.533-1.728h.01zM30.194 21.572v-5.945l-1.851-1.671-1.352 1.218-1.353-1.218-1.36 1.226-1.354-1.22-1.894 1.71v5.891l.98.001v-5.455l.915-.826.871.785v5.498h.982v-5.515l.86-.775.872.785v5.507l.982.001v-5.526l.85-.766.877.792v5.502z"/><path d="M16.36 11.189l-5.106 4.684v5.714h10.398l-.002-5.785-5.29-4.613zm-3.194 8.488h1.12v-2.045h-1.12v2.045z"/></g></svg>
