<?xml version="1.0" encoding="utf-8"?>
<!-- Generator: Adobe Illustrator 22.1.0, SVG Export Plug-In . SVG Version: 6.00 Build 0)  -->
<svg version="1.1" id="Layer_1" xmlns="http://www.w3.org/2000/svg" xmlns:xlink="http://www.w3.org/1999/xlink" x="0px" y="0px"
	 viewBox="0 0 100 100" style="enable-background:new 0 0 100 100;" xml:space="preserve">
<style type="text/css">
	.st0{fill:#003B75;}
	.st1{fill:#FFFFFF;}
	.st2{fill:#E52723;}
</style>
<g>
	<path class="st0" d="M12.2,86.3c0,6.7,5.4,12.1,12.1,12.1h46.3c6.7,0,12.1-5.4,12.1-12.1V13.6c0-6.7-5.4-12.1-12.1-11.9H24.3
		c-6.7-0.2-12.1,5.2-12.1,11.9V86.3L12.2,86.3z"/>
	<path class="st1" d="M24.3,4.3c-5.1,0-9.3,4.2-9.3,9.3v72.7c0,5.1,4.2,9.3,9.3,9.3h46.3c5.1,0,9.3-4.2,9.3-9.3V13.6
		c0-5.1-4.2-9.3-9.3-9.3H24.3L24.3,4.3z"/>
	<path class="st0" d="M24.2,5.7c-4.4,0-7.9,3.5-7.9,7.9v72.7c0,4.4,3.5,7.9,7.9,7.9h46.3c4.4,0,7.9-3.5,7.9-7.9V13.6
		c0-4.4-3.5-7.9-7.9-7.9H24.2L24.2,5.7z"/>
	<path class="st0" d="M82.7,95.8c0-1.4,1.1-2.5,2.6-2.5c1.4,0,2.5,1.1,2.5,2.5c0,1.4-1.1,2.6-2.5,2.6C83.8,98.3,82.7,97.2,82.7,95.8
		L82.7,95.8z M87.4,95.8c0-1.2-0.9-2.2-2.1-2.2c-1.2,0-2.2,1-2.2,2.2c0,1.3,0.9,2.2,2.2,2.2C86.5,98,87.4,97,87.4,95.8L87.4,95.8z
		 M86.5,97.2h-0.4l-0.8-1.3h-0.6v1.3h-0.4v-2.9h1.2c0.8,0,1,0.3,1,0.8c0,0.6-0.4,0.8-0.9,0.8L86.5,97.2L86.5,97.2z M85.2,95.6
		c0.4,0,1,0.1,1-0.5c0-0.4-0.4-0.5-0.7-0.5h-0.8v1H85.2L85.2,95.6z"/>
	<path class="st1" d="M26.4,18.2h1.3c0.7,0,1.3,0.5,1.3,1.2c0,0.7-0.6,1.2-1.5,1.2h-1.1V18.2L26.4,18.2z M24,23.4
		c0,0.3-0.2,0.5-0.5,0.5h-0.8v1h5v-1h-0.8c-0.3,0-0.5-0.2-0.5-0.5v-1.8h1.4c2.3,0,3.5-0.6,3.5-2.2c0-1.6-1.2-2.2-3.3-2.2h-5.3v1h0.8
		c0.3,0,0.5,0.2,0.5,0.5V23.4L24,23.4z"/>
	<path class="st1" d="M41.4,21.8h-0.6c-0.3,0-0.5,0.2-0.5,0.5V25h-1.1l-0.3-0.6c-0.7,0.5-1.7,0.7-2.5,0.7c-2.6,0-4.5-1.4-4.5-4
		c0-2.6,1.8-4.2,4.5-4.2c0.7,0,1.6,0.2,2.3,0.8l0.3-0.7h1.1l0,2.7h-1.2c0-1.2-0.8-1.8-2.1-1.8c-1.5,0-2.2,1-2.2,3c0,2,0.7,3,2.2,3
		c0.5,0,1.1-0.2,1.1-0.7v-1c0-0.3-0.2-0.5-0.5-0.5h-0.7v-1h4.6V21.8L41.4,21.8z"/>
	<path class="st1" d="M51,24c-0.8-0.1-0.9-0.3-1.2-1l-2.5-5.7h-1.9L43,22.5c-0.4,0.8-0.6,1.4-1.7,1.5v0.9h3.8V24L45,24
		c-0.3,0-1,0-1-0.4c0-0.1,0.1-0.4,0.1-0.5l0.1-0.4h3l0.2,0.4c0,0.2,0.2,0.4,0.2,0.6c0,0.3-0.8,0.3-1,0.4v0.9h4.5V24L51,24L51,24z
		 M44.7,21.8l1.2-2.6l1.1,2.6H44.7L44.7,21.8z"/>
	<path class="st1" d="M72.8,28c1.2-1.2,1.2-4.1,1.2-4.1c-1.2-2.2-3.7-2.9-3.7-2.9c-0.6-0.4-1,0-1.2,0.2h0L48.8,8.8
		c-1.5-0.8-3.5,1.9-4,2.8c-0.2,0.3,0.5,0.9,0.9,1.1c1.8,1.2,2.7-1.9,3.4-3l19.6,12.4c0,0,0.1,1,0.1,1.1c0,1.6,1.3,2.9,0.5,5.3
		c-0.2,3.3-3.7,3.9-5.7,5.9c-1.8,1.7-5.3,1.5-6.7,2.9c0,0,0,0,0,0s0-0.1,0-0.1c-1.3-3.3-2-3.5-2.4-4.8c-1.5-0.6-3.4-0.7-4.8,0.1
		c-1.4,0.9-2.1,2.7-1.9,4.2c0,1.6,2.3,3.3,3.4,4c-0.8,1.1-1.1,2.4-1.1,3c-0.2,2.3,1.7,4.6,2.2,5.5c2.2,3.3,3.4,5.8,3.9,6.8
		c0.1,0.2,0.2,0.3,0.1,0.6c0,0.1-1.9,3.3,1.2,8c1.3,2.4,3.1,7.8,3.1,7.8c0.7,0.8-1,0.3-1.1,2.1C58.1,75,49,82,46.9,83.9
		c-0.8,0.2-1.9,0.2-2.2,1.2c-0.1,0.1-0.4,1-0.6,1.2c-0.9,1-1.9,2.8-2.1,4.6c-0.2,0.9,0,2.7,1.1,3.1c0.5,0.2,0.7,0.1,0.8,0
		c0.1-0.1,0.7-1.7,0.8-1.9c0.7-1.8,1.8-2.2,4.3-4.7c1.2,0.3,1.8,1.1,3,1.4c3.4-3.2,6.9-6.1,10.3-9.4c-0.5,5.1-1,10.3-1,11.7
		c-0.2,0.9-0.2,2.4,0.4,3.2c0,0,5.6,0.3,6.7,0.2c0.5,0,0.6-0.4,0.6-0.4s0.5-0.8-0.9-1.8c-0.4-0.3-1.3-1.5-2.1-1.9
		c1-0.2,2-0.4,2.2-0.4c-0.3-2.7-0.3-8.4-0.5-16c-0.8-7.8-0.9-10.4-4.8-26.4c2.8-3.1,2.6-5.1,5.3-8.3C69.6,36.6,71.8,31,72.8,28
		L72.8,28z M61,42.5c-0.1-0.2-0.5-1.3-0.7-1.9c0-0.1,3.5-2.4,3.5-2.4s0,0.2,0.1,0.4C63.9,38.6,61.5,42.1,61,42.5L61,42.5z"/>
	<path class="st1" d="M38.9,84.7c-0.1,0-0.6,0-0.6-0.6l0-0.5c0-0.8-0.1-1.7-0.5-2.4c-0.1-0.2-0.2-0.3-0.3-0.5c0,0,0.1-0.1,0.1-0.1
		l0,0l0,0c0.9-0.8,1.3-1.8,1.3-3c0-0.9-0.2-1.7-0.6-2.5l0,0l0,0C37.9,74,37.1,73.4,36,73c1.5-0.9,2.2-2.3,2.2-4.4c0,0,0-6.3,0-6.7
		c0.3,0,1.8,0,1.8,0l0-4.4l-1.4,0h-2.7c2.4-1.3,3.8-3.8,3.8-7.1c0-3.6-1.6-5.9-3.7-7.1h1.6v-4.1c0,0-2.5,0-3.1,0c0-0.4,0-6.2,0-7.3
		c0.7,0,1.2,0.7,1.2,1.8c0,0,0.1,1.4,0.1,1.4l4.3,0v-7.6h-1.1H22.6v7.6l4.3,0l0.1-1.4c0-1.1,0.5-1.8,1.2-1.8c0,1.1,0,7,0,7.3
		c-0.6,0-3.1,0-3.1,0v4.1h1.3c-2.1,1.2-3.7,3.4-3.7,7.1c0,3.3,1.4,5.8,3.8,7.1h-3.7v4.4c0,0,1.5,0,1.8,0c0,0.2,0,7.1,0,7.1
		c0,1.3,0.6,2.7,2.1,3.7l-4,0l0,4.3c0,0,1.3,0,1.7,0c0,0,0.3,0,0.3,0.3c0,1.2,0,5.6,0,6.9c0,0.4-0.3,0.3-0.3,0.3c-0.4,0-1.7,0-1.7,0
		l0,4.3h10.5c0,0,0-1.2,0-1.3c0.8,0.9,2,1.4,3.5,1.4h3.6v-4.3L38.9,84.7L38.9,84.7L38.9,84.7z M30.9,61.9l2.6,0c0,0,0.2,0,0.2,0.2
		c0,0.2,0,5.8,0,6.6c0,0.5-0.4,0.9-1.5,0.9c-1,0-1.6-0.4-1.6-0.9c0,0,0-6.5,0-6.6C30.6,61.9,30.9,61.9,30.9,61.9L30.9,61.9
		L30.9,61.9z M33,50.4c0,2.6-0.6,4-1.7,4c-0.6,0-1.7,0-1.7-4c0-4,1.2-4,1.7-4C32,46.4,33,46.4,33,50.4L33,50.4L33,50.4z M30.9,84.6
		c-0.3,0-0.3-0.3-0.3-0.3l0-1.7l1.1,0c0.3,0,0.5,0,0.5,0.4c0,0.1,0,0.8,0,0.8c0,0.2,0,0.5,0,0.7C32.2,84.6,31.2,84.6,30.9,84.6
		L30.9,84.6L30.9,84.6z M30.6,78.6v-1.8l1.7,0c0.5,0,0.8,0.4,0.8,0.9c0,0.6-0.4,0.9-0.8,0.9L30.6,78.6L30.6,78.6z"/>
	<path class="st2" d="M38.5,28.7H23.8V34l2,0l0-0.3c0.1-2,1.3-2.9,2.4-2.9c0.7,0,1.1,0.2,1.1,0.5v8.2c0,0.4-0.3,0.9-0.7,0.9h-2.4
		v1.8h10.2v-1.8H34c-0.4,0-0.7-0.5-0.7-0.9v-8.2c0-0.3,0.4-0.5,1.1-0.5c1.1,0,2.3,0.9,2.4,2.9l0,0.3l2,0v-5.3H38.5L38.5,28.7
		L38.5,28.7z"/>
	<path class="st2" d="M38.8,58.7h-0.3H33h-0.3v2.1h1.1c0.4,0,0.6,0.1,0.8,0.2c0.1,0.1,0.1,0.3,0.1,0.7c0,0,0,0.2,0,0.2
		c0,0,0,7.3,0,7.3c0,0.4-0.4,1.6-2.6,1.6c-1.7,0-2.7-0.7-2.7-1.7v-7.3c0-0.8,0.4-0.9,0.8-0.9h1.4v-2.1h-7.7v2.1h0.9
		c0.4,0,0.6,0.1,0.8,0.2c0.1,0.2,0.1,0.4,0.1,0.7c0,0,0,0.2,0,0.2v7.2c0,1.8,1.6,3.8,6.2,3.8c4.7,0,5.3-2.2,5.3-4.2v-6.9
		c0-0.8,0.4-0.9,0.8-0.9h1L38.8,58.7L38.8,58.7L38.8,58.7z"/>
	<path class="st2" d="M31.2,43.3c-3.5,0-7.3,1.8-7.3,7.1c0,4.5,2.7,7.1,7.3,7.1c4.6,0,7.3-2.6,7.3-7.1
		C38.5,45.1,34.7,43.3,31.2,43.3L31.2,43.3L31.2,43.3z M31.3,55.5c-1.2,0-2.9-0.4-2.9-5.1c0-3.5,0.9-5.1,2.9-5.1
		c2,0,2.9,1.4,2.9,5.1C34.1,53.8,33.1,55.5,31.3,55.5L31.3,55.5L31.3,55.5z"/>
	<path class="st2" d="M39,85.8c-0.5,0-1.7,0-1.7-1.6l0-0.5c0-0.6,0-1.4-0.3-1.9c-0.3-0.6-1-1-1.4-1.2c0.5-0.2,1.1-0.5,1.6-0.8
		c0.6-0.5,0.9-1.2,0.9-2.2c0-0.7-0.2-1.4-0.5-2c-0.7-1.1-1.8-1.6-3.5-1.6c0,0-10.1,0-10.1,0l0,2.1c0,0,0.7,0,1.3,0
		c0.6,0,0.6,0.6,0.6,0.6s0,6.4,0,8.5c0,0.3-0.3,0.7-0.6,0.7h-1.3l0,2.1h8.4l0-2.1h-2.1c-0.3,0-0.7-0.4-0.7-0.7c0,0,0-2.6,0-3.4
		c0.1,0,2.5,0,2.5,0c0.3,0,1.4,0.1,1.3,1.4l0,0.9c0,0.8-0.1,1.4,0.3,2.3c0.6,1.2,1.6,1.7,3.2,1.7h2.5v-2.1L39,85.8L39,85.8L39,85.8z
		 M29.5,75.6c0.4,0,1.9,0,2.9,0c1,0,1.6,0.4,1.8,1.2c0.1,0.5,0.1,1.2-0.1,1.7c-0.3,0.8-0.9,1.2-1.8,1.2c0,0-2.3,0-2.9,0
		c0-0.5,0-3.7,0-3.7V75.6L29.5,75.6z"/>
</g>
</svg>
