<svg width="24" height="24" viewBox="0 0 24 24" fill="none" xmlns="http://www.w3.org/2000/svg">
<mask id="mask0_6949_174652" style="mask-type:alpha" maskUnits="userSpaceOnUse" x="2" y="2" width="20" height="19">
<path fill-rule="evenodd" clip-rule="evenodd" d="M7.5 4C7.5 2.89543 8.39543 2 9.5 2H10H14H14.5C15.6046 2 16.5 2.89543 16.5 4V5.5H16C15.0681 5.5 14.285 4.86261 14.063 4H9.93699C9.71497 4.86261 8.93192 5.5 8 5.5H7.5V4Z" fill="black"/>
<path fill-rule="evenodd" clip-rule="evenodd" d="M22 11H2V20.5H18C20.2091 20.5 22 18.7091 22 16.5V11ZM11.5 12.5C10.3954 12.5 9.5 13.3954 9.5 14.5V15H12.5C13.6046 15 14.5 14.1046 14.5 13V12.5H11.5Z" fill="url(#paint0_linear_6949_174652)"/>
<path d="M2 10.5C2 8.29086 3.79086 6.5 6 6.5H22V11H2V10.5Z" fill="black"/>
</mask>
<g mask="url(#mask0_6949_174652)">
<path d="M0 0H24V24H0V0Z" fill="#9299A2"/>
</g>
<defs>
<linearGradient id="paint0_linear_6949_174652" x1="21" y1="20.975" x2="2.97447" y2="10.2058" gradientUnits="userSpaceOnUse">
<stop stop-opacity="0.8"/>
<stop offset="1" stop-opacity="0.4"/>
</linearGradient>
</defs>
</svg>
