<svg width="24" height="24" viewBox="0 0 24 24" fill="none" xmlns="http://www.w3.org/2000/svg">
<mask id="mask0_12914_278561" style="mask-type:alpha" maskUnits="userSpaceOnUse" x="0" y="5" width="24" height="16">
<path opacity="0.35" d="M0.5 18H20C20 19.3807 18.8807 20.5 17.5 20.5H0.5V18Z" fill="black"/>
<path opacity="0.75" fill-rule="evenodd" clip-rule="evenodd" d="M19 5H5V18H19V5ZM12 8.5C10.6193 8.5 9.5 9.61929 9.5 11V14.5H11.5C13.1569 14.5 14.5 13.1569 14.5 11.5V11C14.5 9.61929 13.3807 8.5 12 8.5Z" fill="black"/>
<path fill-rule="evenodd" clip-rule="evenodd" d="M4.5 5C2.29086 5 0.5 6.79086 0.5 9V18H5V5H4.5ZM23.5 5H19V18H20.5C22.1569 18 23.5 16.6569 23.5 15V5Z" fill="black"/>
</mask>
<g mask="url(#mask0_12914_278561)">
<path d="M0 0H24V24H0V0Z" fill="#747B8F"/>
</g>
</svg>
