<svg width="36" height="36" viewBox="0 0 36 36" fill="none" xmlns="http://www.w3.org/2000/svg">
<mask id="mask0_263_11650" style="mask-type:alpha" maskUnits="userSpaceOnUse" x="0" y="3" width="36" height="29">
<path fill-rule="evenodd" clip-rule="evenodd" d="M24.75 3.75L36 18H30.75V25.5C30.75 28.8137 28.0637 31.5 24.75 31.5H20.25C22.7342 31.4988 24.7477 29.4845 24.7477 27L24.75 12.75H17.25L24.75 3.75Z" fill="black"/>
<path opacity="0.8" fill-rule="evenodd" clip-rule="evenodd" d="M2.25 27V10.5C2.25 11.7426 3.25736 12.75 4.5 12.75H24.75V27C24.75 29.4853 22.7353 31.5 20.25 31.5H6.75C4.26472 31.5 2.25 29.4853 2.25 27ZM17.25 21.375C17.25 20.3395 18.0895 19.5 19.125 19.5H19.875C20.9105 19.5 21.75 20.3395 21.75 21.375C21.75 22.4105 20.9105 23.25 19.875 23.25H19.125C18.0895 23.25 17.25 22.4105 17.25 21.375Z" fill="url(#paint0_linear_263_11650)"/>
<path opacity="0.35" d="M2.25 10.5C2.25 9.25736 3.25736 8.25 4.5 8.25H21L17.25 12.75H4.5C3.25736 12.75 2.25 11.7426 2.25 10.5Z" fill="black"/>
</mask>
<g mask="url(#mask0_263_11650)">
<path d="M0 0H36V36H0V0Z" fill="#336FEE"/>
</g>
<defs>
<linearGradient id="paint0_linear_263_11650" x1="2.25" y1="21" x2="24" y2="21" gradientUnits="userSpaceOnUse">
<stop/>
<stop offset="1" stop-opacity="0.7"/>
</linearGradient>
</defs>
</svg>
