<svg width="24" height="24" viewBox="0 0 24 24" fill="none" xmlns="http://www.w3.org/2000/svg">
<mask id="mask0_12912_278525" style="mask-type:alpha" maskUnits="userSpaceOnUse" x="3" y="3" width="18" height="21">
<path fill-rule="evenodd" clip-rule="evenodd" d="M21 3H3V13.5133C3 16.3003 4.45036 18.8863 6.8284 20.3396L12 23.5L17.1716 20.3396C19.5496 18.8863 21 16.3003 21 13.5133V3ZM18 6H6V13.3241C6 14.9958 6.83551 16.557 8.2265 17.4843L12 20L15.7735 17.4843C17.1645 16.557 18 14.9958 18 13.3241V6Z" fill="black"/>
<path d="M6 6H18V13.3241C18 14.9958 17.1645 16.557 15.7735 17.4843L12 20L8.2265 17.4843C6.83551 16.557 6 14.9958 6 13.3241V6Z" fill="url(#paint0_linear_12912_278525)"/>
</mask>
<g mask="url(#mask0_12912_278525)">
<path d="M0 0H24V24H0V0Z" fill="#28C8BC"/>
</g>
<defs>
<linearGradient id="paint0_linear_12912_278525" x1="5" y1="4" x2="15.5" y2="17" gradientUnits="userSpaceOnUse">
<stop stop-opacity="0.55"/>
<stop offset="1" stop-opacity="0.2"/>
</linearGradient>
</defs>
</svg>
