<svg width="120" height="120" viewBox="0 0 120 120" fill="none" xmlns="http://www.w3.org/2000/svg">
<path fill-rule="evenodd" clip-rule="evenodd" d="M101.884 56.9913L103 53.4126L99.3075 53.5298C98.9959 53.5298 96.7285 53.4638 94.5282 51.8667C94.693 51.8806 94.8557 51.9051 95.0248 51.9051C97.289 51.9051 99.4819 50.5393 100.359 48.5842L101.947 45.0546C99.9541 45.0812 98.1334 44.8287 98.1334 44.8287C98.1185 44.8276 96.6828 44.6412 95.0237 42.9419C93.8337 41.7252 92.3607 41.0806 90.7655 41.0806C90.0668 41.0806 89.4425 41.2074 88.9044 41.3779C88.9894 41.0913 89.0671 40.8015 89.1149 40.5021C89.6212 37.1983 87.5005 34.6797 87.4995 34.6819L84.7216 31.2364L82.9998 35.2838C82.9945 35.2966 82.5584 36.2459 81.7821 36.7082C81.5481 35.5182 80.9706 34.1811 79.7391 32.9026C77.4154 30.4938 74.5875 30.1326 73.1082 30.1326C72.4222 30.1326 71.9319 30.2082 71.8139 30.2274L68.4617 30.888C68.6553 30.1379 69.0679 28.8296 69.8209 27.6545L71.6703 24.7683L67.0164 25.2978L65.5329 22.1442L62.6625 23.6273L60.0069 21L57.3599 23.6273L54.482 22.1442L53.0027 25.2978L48.3499 24.7662L50.2025 27.6555C50.9565 28.8296 51.367 30.1347 51.5585 30.8826L48.3594 30.2509L48.2499 30.2338C48.0893 30.2082 47.6033 30.1326 46.9142 30.1326C45.4348 30.1326 42.608 30.4938 40.2896 32.9016C39.0559 34.179 38.4774 35.5182 38.2413 36.7082C37.4692 36.2501 37.0374 35.3158 37.0374 35.3158L35.3124 31.2449L32.492 34.7117C32.1464 35.1581 30.4469 37.5265 30.9085 40.5064C30.9563 40.8036 31.034 41.0913 31.1169 41.3779C30.582 41.2064 29.9577 41.0806 29.26 41.0806C27.6637 41.0806 26.1908 41.7252 24.9986 42.9419C23.3438 44.6337 21.9176 44.8255 21.9293 44.8255C21.9293 44.8255 20.4192 45.0983 18.0837 45.0546L19.663 48.5842C20.5425 50.5393 22.7365 51.9051 24.9965 51.9051C25.1666 51.9051 25.3293 51.8806 25.4963 51.8667C23.3012 53.4638 21.0339 53.5298 20.7595 53.5309L17 53.4126L18.139 56.9902C18.7133 58.8344 20.6276 61.8889 24.2946 62.2182C23.8957 63.893 23.012 65.7713 21.07 66.5788L18.2677 67.7348L19.7959 70.4004C20.6574 71.8376 22.6823 73.5188 25.5633 73.5188C26.1865 73.5167 26.7885 73.4539 27.3691 73.3303C27.517 73.9866 27.702 74.645 27.9211 75.2981C28.7783 77.8571 28.0391 79.6406 28.0317 79.6609L26.6481 82.563L29.7354 83.378C29.7737 83.3898 30.7064 83.6476 31.8741 83.6476C32.4027 83.6476 32.911 83.5922 33.3843 83.4782C33.7427 83.394 34.0883 83.2832 34.4201 83.1479C34.82 83.866 35.305 84.5212 35.8708 85.1083C37.8489 87.1421 40.6533 88.1723 44.2033 88.1723H44.215L46.7504 88.1393L41.5126 90.3212L45.4891 92.2464C46.9344 92.9517 48.6466 93.7859 50.3918 94.4241L49.8951 95.7846L51.2649 96.4111C51.3872 96.4665 54.0237 97.6469 58.4042 97.8984C58.4042 97.8984 59.4613 97.9474 60.0441 97.9474C60.6259 97.9474 61.6713 97.8952 61.6713 97.8952C66.0231 97.6373 68.6383 96.4665 68.7606 96.4111L70.1346 95.7835L69.6337 94.4209C71.4268 93.7636 73.2039 92.8963 74.5886 92.2187L78.4916 90.3191L73.2709 88.1393L75.8169 88.1723C79.3722 88.1723 82.1766 87.141 84.1516 85.1051C84.7152 84.5233 85.1991 83.8692 85.6011 83.1479C85.934 83.2832 86.2818 83.394 86.6412 83.4803C87.1134 83.5922 87.6207 83.6476 88.1493 83.6476C89.2968 83.6476 90.2401 83.393 90.2646 83.3844L93.3657 82.563L92.0151 79.7141C91.9832 79.6406 91.2441 77.8571 92.1012 75.2959C92.3193 74.6428 92.5032 73.9855 92.6532 73.3303C93.2349 73.4539 93.8422 73.5167 94.4707 73.5188C98.1419 73.5188 99.902 70.9321 100.242 70.3706L101.755 67.7327L98.9544 66.581C97.0072 65.7713 96.1245 63.894 95.7299 62.2203C99.349 61.9049 101.29 58.8472 101.884 56.9913Z" fill="white"/>
<path fill-rule="evenodd" clip-rule="evenodd" d="M60.0068 31.96C57.0407 31.9632 54.8158 32.9359 54.333 34.0822L60.0068 36.326L65.6827 34.0822C65.202 32.9359 62.9771 31.9632 60.0068 31.96Z" fill="white"/>
<path fill-rule="evenodd" clip-rule="evenodd" d="M60.0675 91.3426H59.9537C58.1564 91.3543 55.6795 90.9857 54.4894 90.6362L53.0537 94.5249C53.9992 94.8627 57.2046 95.5094 60.0133 95.5094C62.8166 95.5094 66.0231 94.8627 66.9675 94.5249L65.535 90.6362C64.3385 90.9857 61.8648 91.3543 60.0675 91.3426Z" fill="white"/>
<path fill-rule="evenodd" clip-rule="evenodd" d="M70.9238 87.4736C69.8561 88.0788 67.4717 88.9886 66.0859 89.4105L67.2494 92.6227C69.3945 92.0357 71.1663 91.3506 72.6275 90.6155L70.2113 89.8111L70.9238 87.4736Z" fill="white"/>
<path fill-rule="evenodd" clip-rule="evenodd" d="M49.0973 87.4736L49.812 89.8111L47.3936 90.6155C48.8527 91.3506 50.6319 92.0357 52.7696 92.6227L53.9352 89.4105C52.5515 88.9886 50.164 88.0788 49.0973 87.4736Z" fill="white"/>
<path fill-rule="evenodd" clip-rule="evenodd" d="M60.0076 28.2414C62.2442 28.2414 64.4361 28.7773 66.1228 29.7181C66.277 29.2013 66.4929 28.5728 66.7853 27.9133L66.1462 27.99L65.4783 28.0603L65.1954 27.4498L64.3414 25.645L62.7876 26.4569L62.1814 26.7648L61.6975 26.2875L60.0076 24.6127L58.3209 26.2875L57.8392 26.7648L57.234 26.4569L55.6707 25.645L54.8294 27.4498L54.5402 28.0603L53.8723 27.99L53.2363 27.9133C53.5288 28.5728 53.7426 29.2013 53.8989 29.7181C55.592 28.7773 57.7817 28.2414 60.0076 28.2414Z" fill="white"/>
<path fill-rule="evenodd" clip-rule="evenodd" d="M94.1477 49.1008C94.4381 49.201 94.7326 49.2457 95.0251 49.2457C96.2907 49.2457 97.5126 48.4254 97.9327 47.4889C97.9327 47.4889 95.6143 47.3483 93.1204 44.8115C92.3259 43.9901 91.4858 43.744 90.7647 43.744C89.6449 43.744 88.8047 44.3353 88.8047 44.3353C91.8176 45.943 92.4323 48.5202 94.1477 49.1008Z" fill="white"/>
<path fill-rule="evenodd" clip-rule="evenodd" d="M24.9953 49.2457C25.2878 49.2457 25.5834 49.201 25.8674 49.0998C27.5871 48.5202 28.2071 45.943 31.2157 44.3364C31.2157 44.3364 30.3735 43.744 29.26 43.744C28.5347 43.744 27.6956 43.9901 26.8979 44.8126C24.4072 47.3483 22.0898 47.49 22.0898 47.49C22.5057 48.4254 23.7308 49.2457 24.9953 49.2457Z" fill="white"/>
<path fill-rule="evenodd" clip-rule="evenodd" d="M93.2362 67.6091C90.906 66.4574 89.4331 63.4018 89.0779 62.3012C88.6908 68.3612 85.7385 72.5653 82.2874 76.6138C80.4965 78.7126 79.8712 80.7529 79.8712 80.7529C79.8712 80.7529 80.2168 78.441 81.7653 76.5595C84.9855 72.6846 88.0463 67.8584 88.2739 62.2799C88.4302 58.3848 87.4316 55.2281 85.8714 52.6253C86.7446 55.3357 86.6201 58.6544 83.6583 61.7526C83.6583 61.7526 89.5565 54.673 81.3101 47.4144C78.0111 44.6518 74.3984 42.9461 72.5405 41.738C79.2565 43.9327 82.5363 41.5164 82.5363 41.5164C80.3923 43.3787 77.6155 43.3467 75.8926 43.0782C76.3605 43.3062 76.8466 43.5449 77.3687 43.8262C83.0319 46.9073 88.1207 51.9775 88.9886 58.9985V58.9452C90.3052 65.8394 93.2362 67.6091 93.2362 67.6091ZM94.9612 59.5759C95.0133 59.5791 95.058 59.5791 95.1111 59.5791C98.2676 59.5791 99.3375 56.1922 99.3375 56.1922H99.2758C98.6962 56.1922 94.003 56.0559 90.6848 51.8316C88.5025 49.0541 86.7116 46.6122 83.1776 45.6512L82.8298 45.5894L82.7543 45.2346C82.6565 44.6945 83.0276 44.1863 83.8667 43.6397C88.745 40.4403 85.4311 36.3588 85.4311 36.3588C85.4311 36.3588 84.039 39.6221 80.923 39.6221C80.8475 39.6221 80.7688 39.6178 80.6911 39.6178C80.338 39.5997 79.9956 39.5869 79.6521 39.5134L79.0778 39.4015C79.0778 39.4015 79.9669 36.9799 77.8218 34.7575C76.2063 33.0795 74.241 32.7939 73.1062 32.7939C72.5341 32.7939 72.1714 32.8675 72.1714 32.8675C73.2487 34.278 74.0272 36.6198 72.784 38.0645C71.7088 39.3057 69.083 39.3653 69.083 41.2159C69.083 42.0001 69.8136 42.9142 71.126 43.7356C75.0726 46.2254 78.9906 49.5303 80.6209 53.9581C82.6565 59.4801 80.3625 63.1472 77.089 65.2492C77.089 65.2492 78.1164 66.1963 79.6042 66.3178C79.9084 66.3466 80.204 66.3604 80.4795 66.3604C83.6232 66.3604 85.2493 64.8838 85.2493 64.8838C85.2493 64.8838 84.9802 66.924 83.3456 68.8183C81.8355 70.5666 79.8563 71.5979 76.8327 71.6405C76.8327 71.6405 76.7381 73.0447 78.076 74.2614C78.9332 75.0285 80.9091 75.2778 80.9091 75.2778C80.9091 75.2778 77.2071 76.03 76.7987 81.5082C76.5764 84.4764 75.8192 85.5078 75.8192 85.5078H75.8852C84.4772 85.5078 84.257 78.1256 84.257 78.1256C84.257 78.1256 84.8547 80.3118 87.2519 80.8818C87.5411 80.9574 87.8506 80.9873 88.1452 80.9873C88.9162 80.9873 89.5873 80.8051 89.5873 80.8051C89.5873 80.8051 88.3313 78.1533 89.5767 74.4436C90.6093 71.3646 90.4434 69.0836 90.4434 69.0836C90.4434 69.0836 91.5995 70.8372 94.4709 70.8532H94.4996C96.8893 70.8532 97.9305 69.0388 97.9305 69.0388C92.2025 66.6555 92.7682 58.9676 92.7682 58.9676C92.7682 58.9676 93.5116 59.5237 94.9612 59.5759Z" fill="white"/>
<path fill-rule="evenodd" clip-rule="evenodd" d="M37.7279 76.6138C34.2768 72.5653 31.3256 68.3612 30.9353 62.3012C30.579 63.4018 29.1114 66.4574 26.7823 67.6091C26.7823 67.6091 29.7101 65.8394 31.0257 58.9452V58.9985C31.8967 51.9786 36.9845 46.9073 42.6487 43.8272C43.1677 43.5438 43.6579 43.3062 44.1227 43.0793C42.4009 43.3467 39.6241 43.3787 37.4811 41.5164C37.4811 41.5164 40.761 43.9327 47.4749 41.738C45.6169 42.9472 42.0074 44.6518 38.7084 47.4144C30.4599 54.673 36.3591 61.7536 36.3591 61.7536C33.393 58.6544 33.2739 55.3367 34.146 52.6253C32.5837 55.2281 31.5851 58.3848 31.7457 62.2799C31.9711 67.8584 35.0308 72.6835 38.2447 76.5605C39.8006 78.441 40.1505 80.7518 40.1505 80.7518C40.1505 80.7518 39.5177 78.7126 37.7279 76.6138ZM39.1083 75.2778C39.1083 75.2778 41.0853 75.0296 41.9436 74.2603C43.2804 73.0447 43.1847 71.6405 43.1847 71.6405C40.1612 71.5979 38.183 70.5666 36.6644 68.8193C35.0393 66.924 34.7692 64.8838 34.7692 64.8838C34.7692 64.8838 36.3942 66.3604 39.5337 66.3604C39.8155 66.3604 40.109 66.3466 40.4121 66.3178C41.9021 66.1963 42.9326 65.2503 42.9326 65.2503C39.656 63.1472 37.361 59.4811 39.3944 53.9581C41.0247 49.5314 44.9416 46.2254 48.8904 43.7345C50.2006 42.9142 50.9312 42.0001 50.9312 41.2159C50.9312 39.3653 48.3086 39.3057 47.2345 38.0645C45.9913 36.6198 46.7698 34.278 47.845 32.8675C47.845 32.8675 47.4866 32.7939 46.9112 32.7939C45.7775 32.7939 43.8132 33.0795 42.1978 34.7575C40.0484 36.9799 40.9396 39.4015 40.9396 39.4015L40.3654 39.5134C40.0229 39.5859 39.6773 39.5997 39.3252 39.6189C39.2444 39.6189 39.1732 39.6221 39.0977 39.6221C35.9731 39.6221 34.5884 36.3598 34.5884 36.3598C34.5884 36.3598 31.2767 40.4403 36.1528 43.6397C36.9919 44.1863 37.361 44.6945 37.2631 45.2346L37.1876 45.5883L36.8335 45.6512C33.3048 46.6122 31.5128 49.0541 29.3273 51.8316C26.0113 56.0548 21.3244 56.1922 20.7406 56.1922H20.6768C20.6768 56.1922 21.7466 59.5791 24.9052 59.5791C24.9552 59.5791 25.002 59.5791 25.0552 59.5759C26.5069 59.5237 27.2513 58.9676 27.2513 58.9676C27.2513 58.9676 27.8128 66.6555 22.087 69.0378C22.087 69.0378 23.1303 70.8543 25.5189 70.8543H25.5476C28.4201 70.8372 29.5751 69.0836 29.5751 69.0836C29.5751 69.0836 29.4081 71.3656 30.4376 74.4436C31.6829 78.1544 30.4333 80.8061 30.4333 80.8061C30.4333 80.8061 31.1012 80.9873 31.8722 80.9873C32.1711 80.9873 32.4774 80.9574 32.7645 80.8818C35.1584 80.3118 35.7583 78.1256 35.7583 78.1256C35.7583 78.1256 35.5392 85.5078 44.1323 85.5078H44.194C44.194 85.5078 43.4421 84.4764 43.2208 81.5072C42.8135 76.03 39.1083 75.2778 39.1083 75.2778Z" fill="white"/>
<path fill-rule="evenodd" clip-rule="evenodd" d="M58.0676 48.0748H62.1185V49.4673C61.642 48.8824 60.7146 49.0017 60.7146 49.0017V51.0089C60.7146 51.0089 60.7487 51.9965 61.0954 52.4238H59.0907C59.4416 51.9965 59.4725 51.0089 59.4725 51.0089V49.0017C59.4725 49.0017 58.5483 48.8824 58.0676 49.4673V48.0748ZM53.6541 48.2836C53.7955 48.4349 53.9338 48.599 54.0678 48.7652C54.0997 48.8035 54.1284 48.8376 54.1603 48.8824C54.2837 49.0464 54.4081 49.2212 54.5283 49.3991C54.5548 49.4343 54.5804 49.4769 54.6091 49.5174C54.7527 49.7358 54.8888 49.9606 55.0239 50.1928C56.2639 52.3364 58.2463 53.617 60.0064 53.6202C61.7686 53.617 63.7488 52.3364 64.992 50.1928C65.1292 49.9542 65.2686 49.724 65.4121 49.5078C65.4334 49.4769 65.4568 49.4449 65.4759 49.4129C65.5993 49.2286 65.7269 49.0496 65.8609 48.876C65.8896 48.8376 65.9162 48.8035 65.9418 48.7716C66.08 48.599 66.2225 48.4328 66.3682 48.2783C66.3927 48.2538 66.4139 48.2304 66.4373 48.2101C67.0691 47.5623 67.821 47.0691 68.8068 46.7963L68.3676 46.5396H68.3431L66.599 45.5253L64.807 44.4972L60.0191 47.1085L60.0064 47.0978L59.9978 47.1085L55.2089 44.4972L53.418 45.5253L51.6706 46.5396H51.6504L51.208 46.7963C52.1939 47.0691 52.9436 47.557 53.5775 48.2058C53.6051 48.2303 53.6243 48.2591 53.6541 48.2836Z" fill="white"/>
<path fill-rule="evenodd" clip-rule="evenodd" d="M58.4829 39.2256V40.5361L58.2319 40.421C58.2202 40.4114 57.8512 40.3283 57.2089 39.818C56.1485 38.9944 56.1273 38.2337 56.1273 38.2337L58.4829 39.2256ZM59.5943 45.3741V37.2227L54.415 35.4626L55.7806 43.3615L59.5943 45.3741Z" fill="white"/>
<path fill-rule="evenodd" clip-rule="evenodd" d="M61.5394 39.2256L63.895 38.2337C63.895 38.2337 63.8748 38.9944 62.8102 39.818C62.17 40.3283 61.801 40.4114 61.7882 40.421L61.5394 40.5361V39.2256ZM64.2396 43.3615L65.6009 35.4626L60.4248 37.2227V45.3741L64.2396 43.3615Z" fill="white"/>
<path fill-rule="evenodd" clip-rule="evenodd" d="M52.2701 64.2703C52.7731 64.4536 53.3857 64.4919 53.6994 64.4919C53.7111 64.4536 53.7281 64.4056 53.743 64.347C53.7707 64.2543 53.7972 64.1616 53.8164 64.0604C53.9047 63.6087 53.9355 63.0984 53.9429 62.7681C53.7313 62.6349 53.4303 62.4005 53.2623 62.049C53.0709 61.6441 52.7954 61.4545 52.3956 61.4545C51.8744 61.4545 51.3161 61.7688 51.0747 61.9158C50.8843 63.043 51.7138 64.0647 52.2701 64.2703Z" fill="white"/>
<path fill-rule="evenodd" clip-rule="evenodd" d="M63.726 59.9469C62.7646 60.9953 60.8801 62.8192 60.7897 62.9098L60.6759 63.0248L54.7267 62.9311C54.7224 63.5213 54.6267 64.0231 54.5342 64.3917C54.5193 64.4525 54.5023 64.5164 54.4863 64.5803L61.5629 65.8556C62.2988 65.34 64.3248 63.8569 65.1128 63.2763C64.5407 62.4389 64.4864 61.4459 64.6151 60.747C64.2386 60.5073 63.9536 60.2346 63.726 59.9469Z" fill="white"/>
<path fill-rule="evenodd" clip-rule="evenodd" d="M64.5326 52.7776C63.1617 54.1392 61.8472 54.6452 60.6731 54.7614C60.4583 54.7837 60.2435 54.7976 60.0255 54.7976H59.9957C59.7766 54.7976 59.5597 54.7837 59.348 54.7614C59.1417 54.7432 58.9269 54.7102 58.711 54.6612C58.6344 54.968 58.5366 55.6073 58.8152 56.2156C59.0641 56.7654 59.5692 57.1745 60.3062 57.4483L60.554 57.5452L60.5583 57.8127C60.5583 57.8915 60.6168 59.626 62.5024 60.1075C62.8108 59.79 63.0905 59.5024 63.2979 59.2616C62.9129 58.3528 63.1149 57.4249 63.6743 56.971C63.6499 57.0669 63.4042 59.3426 65.2249 60.1885L65.5248 60.3313L65.4355 60.6509C65.4057 60.7468 64.7985 62.95 67.0042 63.7693L67.3945 63.9174L67.2211 64.2967C67.1828 64.3808 66.3182 66.3785 68.3548 67.5142H72.7705V64.0016C71.1997 63.8098 70.536 62.5452 70.3638 61.6502C69.6331 61.5245 69.0695 61.2092 68.6813 60.6946C67.755 59.4726 68.5516 58.3528 68.5622 58.2921C68.5601 58.3017 68.5622 59.4928 69.296 60.229C69.6608 60.5827 70.0904 60.8586 70.7424 60.9204L71.0635 60.9492L71.0912 61.2784C71.0965 61.3477 71.2731 62.9617 72.7705 63.2142L72.7673 56.0388C72.7673 54.9276 73.0906 53.81 73.4798 52.7776H64.5326Z" fill="white"/>
<path fill-rule="evenodd" clip-rule="evenodd" d="M52.6456 56.0654L52.5254 60.6338L53.0444 60.7137L54.3121 56.3296L53.6687 54.9808L52.6456 56.0654Z" fill="white"/>
<path fill-rule="evenodd" clip-rule="evenodd" d="M55.3936 72.9797C55.2458 72.9754 55.1373 72.8497 55.1469 72.7016C55.1586 72.5599 55.2787 72.448 55.4244 72.4608C55.5733 72.4661 55.6776 72.5972 55.6733 72.7368C55.6595 72.8816 55.535 72.9925 55.3936 72.9797ZM66.6231 77.0239C66.6625 77.0239 66.7061 77.0292 66.7486 77.0399C67.5377 77.2658 67.7366 80.1136 69.1202 80.3671C69.2563 80.3959 69.3808 80.4044 69.4903 80.4044C69.8912 80.4044 70.1295 80.234 70.3868 79.9293C70.3868 79.9293 69.6902 78.834 69.1702 78.0936C68.4779 77.1262 67.9419 75.9575 66.654 75.9575C66.6231 75.9575 66.5859 75.9575 66.554 75.9617C66.1307 75.983 65.8691 76.1908 65.8691 76.1908C65.3469 75.8616 64.8609 75.7508 64.4227 75.7508C63.6166 75.7508 62.9891 76.1215 62.6743 76.1215H62.6626L59.7869 75.8371C59.3381 75.7934 58.9819 75.3395 58.8542 75.1627C58.8223 75.1137 58.8043 75.086 58.8043 75.086C58.8043 75.0071 58.8043 74.9272 58.8 74.8558C58.7032 72.5002 56.8825 71.4924 56.2338 71.4764C56.2338 71.4764 56.3103 71.0279 56.1359 70.8574L55.5 71.6287L53.4208 70.5825L54.9055 72.3202L53.6484 73.734C53.4899 73.8948 53.5101 74.1122 53.5761 74.2049L54.1185 74.6854L54.8076 74.2667C54.8416 74.2411 54.9055 74.2326 54.981 74.2326C55.1713 74.2326 55.4574 74.2826 55.7137 74.2826C55.9955 74.2826 56.237 74.223 56.2667 73.9588C56.1806 74.8324 55.3713 76.3495 55.902 77.5428L56.2965 78.443L53.7537 78.0765L52.5636 80.0891C52.1967 80.7592 52.1393 81.4837 52.4924 81.8789L52.9369 82.4361C52.9369 82.4361 53.5623 81.7735 53.7016 81.3367L53.4995 81.114C53.3294 80.9265 53.3379 80.7592 53.4421 80.5578L54.1887 79.3177L57.1888 80.0262L57.3473 79.7556C57.5514 79.4157 57.845 79.3156 58.1662 79.3156C58.2991 79.3156 58.4342 79.3316 58.5756 79.3539C59.1329 79.4637 60.0496 79.6118 60.9664 79.6118C61.9714 79.6118 62.97 79.4317 63.5028 78.834C64.5897 80.4481 66.7922 80.7049 66.6189 81.5252L66.0382 84.291C66.4221 84.274 66.7922 84.2495 67.1432 84.2004L67.6951 81.3239C67.7557 81.0096 67.8132 80.5887 67.8132 80.5887C67.6015 80.3725 67.0868 79.9165 66.7965 79.3614C66.4083 78.6135 66.6189 78.2225 66.2573 77.2498C66.2573 77.2498 66.3689 77.0239 66.6231 77.0239Z" fill="white"/>
<path fill-rule="evenodd" clip-rule="evenodd" d="M51.2932 79.6404C51.2932 79.6404 52.2886 79.2302 52.3769 78.9383L52.244 78.6059C52.1493 78.3885 52.1621 78.1542 52.345 78.0274L53.4181 77.2827L55.2111 77.6289C55.2111 77.6289 54.8868 77.2209 54.9187 76.6775L53.2064 76.3142L51.592 77.2997C50.8997 77.8175 50.8497 78.6655 51.0784 79.1684L51.2932 79.6404Z" fill="white"/>
<path fill-rule="evenodd" clip-rule="evenodd" d="M63.9824 84.3274C64.3025 84.3146 64.6588 84.3093 65.047 84.3093C65.047 84.3093 65.9701 81.6043 66.0222 81.519C65.5054 81.29 64.4302 80.7189 64.0154 80.4579C64.2908 80.8691 64.9555 81.3368 64.8237 81.6991L63.9824 84.3274Z" fill="white"/>
<path fill-rule="evenodd" clip-rule="evenodd" d="M72.7696 68.2891H47.252V77.9043C47.252 81.8377 50.0926 84.2988 54.2849 84.2988C57.7859 84.2988 58.7101 84.4362 60.0129 85.7307C60.9105 84.8336 61.6528 84.4991 63.1779 84.3745L63.214 84.2253L64.018 81.7344C63.9734 81.6779 62.6578 80.1821 62.6578 80.1821C62.1367 80.3558 61.6986 80.3845 60.9637 80.3845C60.2075 80.3845 59.3567 80.2961 58.4304 80.1224C58.3379 80.1011 58.2507 80.0916 58.1645 80.0916C58.0507 80.0916 58.0433 80.1011 58.0135 80.1565L57.854 80.4208L57.5615 80.9055L57.0106 80.7777L54.5614 80.2002L54.2253 80.7553L54.2753 80.815L54.5731 81.1442L54.4412 81.5725C54.2604 82.1329 53.6766 82.787 53.4979 82.9681L52.8864 83.6255L52.328 82.9191L51.909 82.3928C51.4687 81.8985 51.3666 81.1442 51.6144 80.3515C51.6091 80.3558 51.6006 80.36 51.59 80.3611L50.8998 80.6477L50.5892 79.9712L50.3712 79.4917C49.9958 78.6479 50.134 77.4153 51.1465 76.6695L53.1172 75.554L54.9932 75.9237C55.0378 75.7437 55.1048 75.098 55.1591 74.934C55.1219 74.9297 55.0889 74.9212 55.0517 74.9212L53.9712 75.326L52.9279 74.6047C52.9279 74.6047 52.5205 74.2116 52.8906 73.8185L53.8988 72.2864L51.3411 69.07L55.2718 70.6873L55.5345 70.3634L56.0641 69.7263L56.6671 70.3005C56.8373 70.4646 56.9351 70.667 56.983 70.8695C58.0656 71.2924 60.0076 72.5389 60.1788 74.5664L59.5715 74.8093V74.8242C59.7109 74.9894 59.8257 75.0575 59.8619 75.0639L62.6674 75.3399C62.7397 75.3282 62.8269 75.2962 62.9269 75.2674C63.2768 75.1481 63.799 74.9755 64.42 74.9755C64.9263 74.9755 65.4144 75.0916 65.8845 75.3122C66.0578 75.2461 66.2705 75.1982 66.5173 75.1822L66.6523 75.179C68.154 75.179 68.9016 76.303 69.5004 77.2011C69.6004 77.3567 69.7003 77.5026 69.8046 77.6475C70.3278 78.389 71.0138 79.4736 71.0414 79.5205L71.3509 80.0042L70.9723 80.4463C70.6809 80.7841 70.2417 81.1815 69.4898 81.1815C69.3345 81.1815 69.1643 81.1644 68.9814 81.1292C68.8219 81.0994 68.6751 81.0515 68.5347 80.9918C68.5145 81.141 68.4826 81.3178 68.455 81.4702L67.9636 84.0421C70.9063 83.3176 72.7749 81.092 72.7749 77.9043L72.7696 68.2891Z" fill="#FFDD2D"/>
<path fill-rule="evenodd" clip-rule="evenodd" d="M47.2513 67.5142H67.0984C66.1072 66.4882 66.1221 65.1895 66.3742 64.3457C66.0849 64.2072 65.8467 64.041 65.635 63.8577C64.8587 64.4309 62.4913 66.1579 61.8724 66.5905L61.7394 66.68L53.9503 65.2694H53.7929C53.6058 65.2694 53.3324 65.2619 53.0325 65.2257C52.9485 65.5794 52.6454 65.8191 52.2987 65.8191C52.2583 65.8191 52.2147 65.8159 52.1743 65.8074C51.9712 65.7723 51.7936 65.6689 51.6755 65.4985C51.5543 65.3301 51.5064 65.1309 51.5394 64.9253L51.5681 64.7569C50.7662 64.1901 50.0239 62.9234 50.3525 61.5884L50.3844 61.4478L50.4982 61.3658C50.5142 61.3541 50.6482 61.2614 50.8502 61.1474L50.2845 61.06C50.0728 61.0227 49.9303 60.8245 49.9633 60.6157C49.9994 60.4037 50.1983 60.2524 50.4068 60.2929L51.7553 60.506L51.8786 55.7501L53.8844 53.6235L55.1372 56.2646L53.8153 60.8405L55.0075 61.028C55.217 61.0611 55.3605 61.2582 55.3286 61.4744C55.2978 61.6662 55.134 61.7951 54.9468 61.7951C54.9266 61.7951 54.9054 61.7951 54.8852 61.793L53.9163 61.6364C53.9291 61.6662 53.9482 61.6833 53.9599 61.7131C54.0631 61.9272 54.2917 62.0785 54.4257 62.1456L60.3633 62.2405C60.6153 61.9954 61.2374 61.3839 61.8798 60.7372C60.4175 60.181 59.8868 58.9207 59.7985 58.0822C58.9818 57.7338 58.4181 57.2118 58.1054 56.5331C57.7247 55.6925 57.8598 54.8498 57.9619 54.4407C57.1696 54.152 56.3379 53.6235 55.4871 52.7776H46.542C46.9259 53.81 47.2513 54.9276 47.2513 56.0388V67.5142Z" fill="#FFDD2D"/>
<path fill-rule="evenodd" clip-rule="evenodd" d="M55.4227 72.4609C55.277 72.447 55.1568 72.5603 55.1451 72.7035C55.1355 72.852 55.244 72.9781 55.3918 72.9813C55.5333 72.9931 55.6577 72.8841 55.6716 72.7377C55.6758 72.5977 55.5716 72.4662 55.4227 72.4609Z" fill="black"/>
<path fill-rule="evenodd" clip-rule="evenodd" d="M67.2522 92.6236L66.0866 89.4114C67.4734 88.9884 69.8578 88.0786 70.9266 87.4734L70.2141 89.8109L72.6282 90.6153C71.168 91.3494 69.3973 92.0344 67.2522 92.6236ZM60.0151 95.5108C57.2053 95.5108 53.9999 94.8631 53.0545 94.5264L54.4902 90.6366C55.6803 90.985 58.1572 91.3547 59.9545 91.343H60.0683C61.8656 91.3547 64.3393 90.985 65.5357 90.6366L66.9683 94.5264C66.0239 94.8631 62.8174 95.5108 60.0151 95.5108ZM47.3945 90.6153L49.8129 89.8109L49.0972 87.4734C50.1639 88.0786 52.5525 88.9884 53.9361 89.4114L52.7695 92.6236C50.6318 92.0344 48.8537 91.3494 47.3945 90.6153ZM72.7367 89.9015L71.2669 89.3368L71.6732 87.8144L72.1199 86.1566C72.1199 86.1566 69.5153 87.5725 65.8441 88.6347C64.803 88.933 64.0149 89.0705 64.0149 89.0705V90.1998C64.0149 90.1998 62.0517 90.5407 60.0683 90.5407H59.9545C57.9689 90.5407 56.0089 90.1998 56.0089 90.1998V89.0705C56.0089 89.0705 55.2187 88.933 54.1786 88.6347C50.5085 87.5725 47.9061 86.1566 47.9061 86.1566L48.3464 87.8144L48.7611 89.3368L47.2861 89.9015L45.6504 90.513C47.5243 91.4208 50.1224 92.7397 52.4993 93.3917L51.9389 94.927C51.9389 94.927 54.9539 96.3024 59.9768 96.3152V96.3184H60.0449V96.3152C65.0731 96.3024 68.086 94.927 68.086 94.927L67.5224 93.3917C69.9003 92.7397 72.5027 91.4208 74.3681 90.513L72.7367 89.9015Z" fill="black"/>
<path fill-rule="evenodd" clip-rule="evenodd" d="M53.8719 27.9896L54.5398 28.06L54.8291 27.4495L55.6703 25.6458L57.2336 26.4555L57.8388 26.7655L60.0072 24.6113L61.6971 26.2871L62.181 26.7655L62.7872 26.4555L64.341 25.6458L65.195 27.4495L65.4779 28.06L66.1458 27.9896L66.7849 27.9129C66.4925 28.5724 66.2766 29.1999 66.1224 29.7188C64.4357 28.777 62.2438 28.2411 60.0072 28.2411C57.7813 28.2411 55.5916 28.777 53.8985 29.7188C53.7422 29.1999 53.5284 28.5724 53.2359 27.9129L53.8719 27.9896ZM60.0072 29.1818C62.9999 29.1818 65.3939 30.1758 66.7169 31.2338C66.7169 31.2338 67.1093 28.8643 68.4504 26.774L66.0405 27.0489L64.7792 24.3651L62.3576 25.6159L60.0072 23.2902L57.6643 25.6159L55.2374 24.3651L53.9783 27.0489L51.5684 26.774C52.9105 28.8643 53.3019 31.2338 53.3019 31.2338C54.6334 30.1758 57.0199 29.1818 60.0072 29.1818Z" fill="black"/>
<path fill-rule="evenodd" clip-rule="evenodd" d="M97.9349 69.0382C97.9349 69.0382 96.8937 70.8547 94.503 70.8547H94.4732C91.6039 70.8377 90.4468 69.084 90.4468 69.084C90.4468 69.084 90.6127 71.365 89.58 74.444C88.3347 78.1548 89.5907 80.8055 89.5907 80.8055C89.5907 80.8055 88.9196 80.9877 88.1486 80.9877C87.854 80.9877 87.5456 80.9579 87.2552 80.8822C84.8581 80.3123 84.2604 78.1261 84.2604 78.1261C84.2604 78.1261 84.4805 85.5082 75.8885 85.5082H75.8215C75.8215 85.5082 76.5787 84.4769 76.8021 81.5087C77.2105 76.0304 80.9125 75.2782 80.9125 75.2782C80.9125 75.2782 78.9365 75.03 78.0804 74.2619C76.7414 73.0452 76.8361 71.641 76.8361 71.641C79.8586 71.5984 81.8399 70.5671 83.349 68.8187C84.9836 66.9245 85.2527 64.8842 85.2527 64.8842C85.2527 64.8842 83.6266 66.3609 80.4839 66.3609C80.2074 66.3609 79.9117 66.347 79.6086 66.3182C78.1208 66.1968 77.0935 65.2507 77.0935 65.2507C80.3659 63.1476 82.6609 59.4805 80.6254 53.9586C78.9939 49.5318 75.076 46.2259 71.1304 43.735C69.8181 42.9146 69.0864 42.0005 69.0864 41.2153C69.0864 39.3658 71.7122 39.3061 72.7874 38.0649C74.0306 36.6202 73.251 34.2785 72.1748 32.8679C72.1748 32.8679 72.5374 32.7944 73.1096 32.7944C74.2443 32.7944 76.2097 33.0799 77.8252 34.7579C79.9692 36.9804 79.0801 39.402 79.0801 39.402L79.6544 39.5139C79.9979 39.5863 80.3403 39.6002 80.6955 39.6183C80.7721 39.6183 80.8508 39.6225 80.9263 39.6225C84.0424 39.6225 85.4356 36.3592 85.4356 36.3592C85.4356 36.3592 88.7473 40.4408 83.8701 43.6402C83.031 44.1867 82.6609 44.6949 82.7577 45.2351L82.8342 45.5898L83.1809 45.6516C86.716 46.6116 88.5048 49.0556 90.6893 51.832C94.0074 56.0563 98.6996 56.1927 99.2781 56.1927H99.3408C99.3408 56.1927 98.271 59.5796 95.1145 59.5796C95.0613 59.5796 95.0166 59.5796 94.9645 59.5764C93.515 59.5242 92.7705 58.9681 92.7705 58.9681C92.7705 58.9681 92.2058 66.656 97.9349 69.0382ZM95.1145 60.6162C98.9835 60.6162 100.279 56.6732 100.332 56.5038L100.765 55.1134L99.3143 55.1593H99.3089C98.7974 55.1593 94.5274 55.0453 91.5007 51.1917L91.2146 50.8337C89.2365 48.3151 87.3616 45.918 84.0073 44.8249C84.1041 44.7365 84.2434 44.6299 84.4337 44.5053C86.2141 43.3333 87.2488 41.9089 87.5083 40.2554C87.8891 37.7687 86.3044 35.785 86.2353 35.704L85.158 34.3691L84.4848 35.9522C84.4391 36.0513 83.3086 38.5859 80.9263 38.5859H80.7487C80.586 38.5774 80.4297 38.571 80.2776 38.5582C80.3605 37.4278 80.1553 35.6784 78.5707 34.0356C76.6659 32.0603 74.3305 31.7642 73.1096 31.7642C72.4566 31.7642 72.0227 31.8451 71.9748 31.8494L70.3487 32.1733L71.3516 33.4986C72.1397 34.5203 72.8533 36.4061 72.0067 37.3905C71.7356 37.7048 71.1793 37.9584 70.6465 38.2141C69.5511 38.718 68.0537 39.4244 68.0537 41.2153C68.0537 42.3745 68.9524 43.588 70.5806 44.6193C75.3982 47.6546 78.3707 50.822 79.6544 54.3187C81.641 59.6968 79.0492 62.7641 76.533 64.3813L75.4036 65.108L76.3926 66.0178C76.5256 66.135 77.7326 67.2015 79.5193 67.3549C79.8575 67.3772 80.1808 67.3954 80.4839 67.3954C81.6272 67.3954 82.6024 67.2153 83.3947 66.9735C83.1778 67.3549 82.9076 67.7459 82.5716 68.1379C81.1337 69.8074 79.364 70.5671 76.8191 70.6086L75.8736 70.6235L75.8013 71.5739C75.7917 71.7656 75.7216 73.5278 77.3849 75.0257C77.6401 75.258 77.9475 75.4487 78.2708 75.6043C77.1413 76.6228 75.9949 78.3967 75.7726 81.4341C75.5844 83.9698 74.9814 84.9084 74.9739 84.918L73.9296 86.5161L75.8183 86.5416C78.9386 86.5416 81.3283 85.6797 82.9842 83.9698C83.9626 82.9587 84.5231 81.8166 84.8528 80.8055C85.3962 81.269 86.0971 81.676 87.0117 81.8922C87.3584 81.9732 87.737 82.018 88.1486 82.018C89.0302 82.018 89.7683 81.8305 89.8502 81.8102L91.0562 81.4895L90.5234 80.3623C90.484 80.2718 89.4779 78.0078 90.5606 74.7807C91.0264 73.384 91.2646 72.1343 91.3805 71.1605C92.1399 71.5568 93.1577 71.8839 94.4721 71.8881C97.4574 71.8881 98.774 69.654 98.8325 69.5603L99.4206 68.5343L98.3305 68.0847C94.7731 66.6048 93.9851 62.6309 93.8277 60.4799C94.1488 60.5427 94.5168 60.5992 94.9316 60.6109L95.1145 60.6162Z" fill="black"/>
<path fill-rule="evenodd" clip-rule="evenodd" d="M90.7639 43.7442C91.4849 43.7442 92.3251 43.9903 93.1195 44.8128C95.6134 47.3485 97.9329 47.4902 97.9329 47.4902C97.5118 48.4256 96.2898 49.2459 95.0243 49.2459C94.7318 49.2459 94.4372 49.2012 94.1469 49.1C92.4304 48.5204 91.8167 45.9432 88.8038 44.3366C88.8038 44.3366 89.644 43.7442 90.7639 43.7442ZM88.3125 45.2528C89.7557 46.0231 90.5969 47.0555 91.3339 47.9707C92.0592 48.8645 92.7452 49.7232 93.8225 50.0812C94.2043 50.2123 94.6106 50.2751 95.0243 50.2751C96.6376 50.2751 98.2605 49.2854 98.8752 47.9142L99.4942 46.5409L97.9968 46.4514C97.9266 46.4503 96.0006 46.2735 93.8597 44.082C92.9781 43.1817 91.9114 42.7097 90.7639 42.7097C89.3611 42.7097 88.321 43.4118 88.2062 43.4843L86.8311 44.4548L88.3125 45.2528Z" fill="black"/>
<path fill-rule="evenodd" clip-rule="evenodd" d="M88.9901 58.9457V58.999C88.1223 51.978 83.0334 46.9078 77.3703 43.8266C76.847 43.5454 76.3621 43.3067 75.8941 43.0787C77.617 43.3472 80.3938 43.3792 82.5378 41.5168C82.5378 41.5168 79.258 43.9332 72.542 41.7384C74.3999 42.9466 78.0126 44.6523 81.3127 47.4149C89.5569 54.6735 83.6588 61.753 83.6588 61.753C86.6217 58.6549 86.745 55.3361 85.873 52.6258C87.4331 55.2285 88.4307 58.3853 88.2754 62.2804C88.0489 67.8588 84.9871 72.684 81.7668 76.5599C80.2194 78.4414 79.8738 80.7534 79.8738 80.7534C79.8738 80.7534 80.498 78.7131 82.289 76.6143C85.7411 72.5658 88.6923 68.3617 89.0794 62.3017C89.4357 63.4023 90.9065 66.4578 93.2388 67.6095C93.2388 67.6095 90.3078 65.8399 88.9901 58.9457Z" fill="black"/>
<path fill-rule="evenodd" clip-rule="evenodd" d="M44.1339 85.5082C35.5408 85.5082 35.7599 78.1261 35.7599 78.1261C35.7599 78.1261 35.1601 80.3123 32.7661 80.8822C32.479 80.9579 32.1727 80.9877 31.8738 80.9877C31.1028 80.9877 30.4349 80.8055 30.4349 80.8055C30.4349 80.8055 31.6845 78.1548 30.4392 74.444C29.4097 71.3661 29.5767 69.084 29.5767 69.084C29.5767 69.084 28.4217 70.8377 25.5492 70.8547H25.5205C23.1319 70.8547 22.0886 69.0382 22.0886 69.0382C27.8134 66.656 27.2529 58.9681 27.2529 58.9681C27.2529 58.9681 26.5085 59.5242 25.0568 59.5764C25.0036 59.5796 24.9568 59.5796 24.9068 59.5796C21.7483 59.5796 20.6784 56.1927 20.6784 56.1927H20.7422C21.326 56.1927 26.0129 56.0553 29.3289 51.832C31.5144 49.0545 33.3053 46.6126 36.8351 45.6516L37.1892 45.5888L37.2647 45.2351C37.3626 44.6949 36.9935 44.1867 36.1544 43.6402C31.2783 40.4408 34.59 36.3603 34.59 36.3603C34.59 36.3603 35.9747 39.6225 39.0993 39.6225C39.1748 39.6225 39.246 39.6193 39.3269 39.6193C39.6778 39.6002 40.0245 39.5863 40.367 39.5139L40.9413 39.402C40.9413 39.402 40.049 36.9804 42.1994 34.7579C43.8148 33.0799 45.7781 32.7944 46.9128 32.7944C47.4882 32.7944 47.8455 32.8679 47.8455 32.8679C46.7714 34.2785 45.9929 36.6202 47.235 38.0649C48.3102 39.3061 50.9328 39.3658 50.9328 41.2153C50.9328 42.0005 50.2022 42.9146 48.892 43.735C44.9432 46.2259 41.0263 49.5318 39.396 53.9586C37.3626 59.4816 39.6576 63.1476 42.9343 65.2507C42.9343 65.2507 41.9037 66.1968 40.4138 66.3182C40.1107 66.347 39.8171 66.3609 39.5353 66.3609C36.3958 66.3609 34.7708 64.8842 34.7708 64.8842C34.7708 64.8842 35.0409 66.9245 36.666 68.8198C38.1847 70.5671 40.1628 71.5984 43.1863 71.641C43.1863 71.641 43.282 73.0452 41.9452 74.2608C41.087 75.03 39.1099 75.2782 39.1099 75.2782C39.1099 75.2782 42.8151 76.0304 43.2225 81.5076C43.4437 84.4769 44.1956 85.5082 44.1956 85.5082H44.1339ZM45.0474 84.918C45.0442 84.9084 44.4444 83.9698 44.2519 81.4341C44.0275 78.3956 42.8811 76.6228 41.7484 75.6043C42.076 75.4487 42.3791 75.258 42.6343 75.0257C44.2977 73.5278 44.2275 71.7656 44.2158 71.5739L44.152 70.6235L43.1991 70.6086C40.6616 70.5671 38.8887 69.8074 37.4508 68.1379C37.1169 67.7459 36.8468 67.3549 36.6277 66.9735C37.4189 67.2153 38.3878 67.3954 39.5353 67.3954C39.8427 67.3954 40.1628 67.3772 40.501 67.3549C42.2876 67.2015 43.4968 66.1361 43.6308 66.0178L44.6199 65.108L43.4915 64.3813C40.9657 62.7641 38.3846 59.6968 40.367 54.3187C41.6517 50.822 44.6199 47.6546 49.445 44.6193C51.0732 43.588 51.9644 42.3745 51.9644 41.2153C51.9644 39.4244 50.4713 38.718 49.3759 38.2141C48.842 37.9584 48.2858 37.7048 48.0157 37.3905C47.167 36.4061 47.8817 34.5203 48.6697 33.4986L49.68 32.1733L48.0444 31.8494C47.9965 31.8441 47.5679 31.7642 46.9128 31.7642C45.6919 31.7642 43.3607 32.0603 41.457 34.0356C39.8703 35.6795 39.6619 37.4278 39.7437 38.5582C39.5906 38.571 39.4364 38.5774 39.2737 38.5859H39.0993C36.7106 38.5859 35.5823 36.0513 35.5387 35.9522L34.8676 34.3691L33.7796 35.704C33.719 35.785 32.1301 37.7687 32.5173 40.2554C32.7736 41.9089 33.8105 43.3333 35.5897 44.5053C35.7833 44.6299 35.9183 44.7365 36.0151 44.8249C32.6566 45.918 30.7838 48.3151 28.8056 50.8337L28.5206 51.1917C25.4982 55.0453 21.2186 55.1593 20.7071 55.1593L19.249 55.1134L19.6925 56.5038C19.7446 56.6732 21.0346 60.6162 24.9068 60.6162L25.093 60.6109C25.5035 60.5992 25.8704 60.5427 26.1969 60.4799C26.0373 62.6298 25.2472 66.6048 21.6887 68.0847L20.6018 68.5343L21.1899 69.5603C21.2463 69.654 22.5671 71.8881 25.5577 71.8881C26.8648 71.8839 27.8815 71.5568 28.6419 71.1615C28.7567 72.1343 28.996 73.384 29.4629 74.7807C30.5455 78.0078 29.5373 80.2718 29.499 80.3623L28.9641 81.4895L30.1722 81.8102C30.252 81.8305 30.9954 82.018 31.8738 82.018C32.2844 82.018 32.664 81.9732 33.0075 81.8922C33.9232 81.676 34.6315 81.269 35.1696 80.8055C35.4972 81.8166 36.0598 82.9587 37.0361 83.9698C38.6962 85.6797 41.0838 86.5416 44.203 86.5416L46.0929 86.5161L45.0474 84.918Z" fill="black"/>
<path fill-rule="evenodd" clip-rule="evenodd" d="M26.8983 44.8118C27.696 43.9904 28.5351 43.7432 29.2604 43.7432C30.3739 43.7432 31.2172 44.3366 31.2172 44.3366C28.2075 45.9432 27.5864 48.5204 25.8678 49.1011C25.5839 49.2023 25.2893 49.2449 24.9957 49.2449C23.7312 49.2449 22.5071 48.4256 22.0892 47.4902C22.0892 47.4902 24.4076 47.3485 26.8983 44.8118ZM24.9957 50.2751C25.4105 50.2751 25.8157 50.2134 26.1986 50.0823C27.278 49.7233 27.964 48.8656 28.6882 47.9707C29.4295 47.0566 30.2611 46.0231 31.7054 45.2529L33.1911 44.4549L31.8117 43.4832C31.6969 43.4108 30.6621 42.7108 29.2604 42.7108C28.1097 42.7108 27.0419 43.1817 26.1613 44.082C24.0173 46.2746 22.0966 46.4504 22.0275 46.4525L20.5322 46.5409L21.1459 47.9153C21.7638 49.2854 23.3835 50.2751 24.9957 50.2751Z" fill="black"/>
<path fill-rule="evenodd" clip-rule="evenodd" d="M31.7466 62.2804C31.5861 58.3853 32.5847 55.2285 34.147 52.6258C33.276 55.3361 33.394 58.6548 36.3612 61.7541C36.3612 61.7541 30.4609 54.6735 38.7105 47.4149C42.0084 44.6523 45.6179 42.9466 47.4758 41.7384C40.7619 43.9332 37.4832 41.5168 37.4832 41.5168C39.6251 43.3792 42.4029 43.3472 44.1247 43.0787C43.6589 43.3067 43.1697 43.5443 42.6497 43.8266C36.9844 46.9078 31.8987 51.978 31.0267 58.999V58.9457C29.7111 65.8399 26.7822 67.6095 26.7822 67.6095C29.1124 66.4578 30.58 63.4023 30.9373 62.3017C31.3266 68.3617 34.2778 72.5658 37.7288 76.6143C39.5198 78.7131 40.1504 80.7534 40.1504 80.7534C40.1504 80.7534 39.8005 78.4414 38.2457 76.5599C35.0307 72.6851 31.9721 67.8588 31.7466 62.2804Z" fill="black"/>
<path fill-rule="evenodd" clip-rule="evenodd" d="M58.0684 48.0753V49.4678C58.5491 48.8829 59.4732 49.0022 59.4732 49.0022V51.0094C59.4732 51.0094 59.4424 51.9971 59.0914 52.4243H61.0961C60.7494 51.9971 60.7154 51.0094 60.7154 51.0094V49.0022C60.7154 49.0022 61.6428 48.8829 62.1192 49.4678V48.0753H58.0684Z" fill="black"/>
<path fill-rule="evenodd" clip-rule="evenodd" d="M57.2095 39.8183C57.8508 40.3275 58.2209 40.4127 58.2326 40.4202L58.4836 40.5363V39.2259L56.1279 38.234C56.1279 38.234 56.1481 38.9936 57.2095 39.8183Z" fill="black"/>
<path fill-rule="evenodd" clip-rule="evenodd" d="M62.809 39.8183C63.8735 38.9936 63.8937 38.234 63.8937 38.234L61.5381 39.2259V40.5363L61.7869 40.4202C61.7997 40.4127 62.1687 40.3275 62.809 39.8183Z" fill="black"/>
<path fill-rule="evenodd" clip-rule="evenodd" d="M60.0082 36.3268L54.3344 34.081C54.8172 32.9367 57.0421 31.9629 60.0082 31.9597C62.9785 31.9629 65.2034 32.9367 65.6841 34.081L60.0082 36.3268ZM64.2388 43.3616L60.4251 45.3752V37.2228L65.6001 35.4628L64.2388 43.3616ZM66.6008 45.5255L68.345 46.5397H68.3694L68.8076 46.7965C67.8228 47.0692 67.0709 47.5625 66.4392 48.2103C66.4158 48.2305 66.3956 48.254 66.37 48.2785C66.2254 48.4329 66.0818 48.5991 65.9436 48.7717C65.9191 48.8037 65.8915 48.8378 65.8627 48.8761C65.7287 49.0498 65.6001 49.2288 65.4788 49.4131C65.4586 49.4451 65.4352 49.477 65.4139 49.5079C65.2704 49.7242 65.1311 49.9543 64.9939 50.193C63.7517 52.3366 61.7704 53.6172 60.0082 53.6204C58.2481 53.6172 56.2657 52.3366 55.0257 50.193C54.8906 49.9607 54.7545 49.7359 54.6109 49.5175C54.5822 49.477 54.5567 49.4344 54.5301 49.3993C54.4088 49.2213 54.2855 49.0466 54.1621 48.8825C54.1302 48.8378 54.1015 48.8037 54.0696 48.7653C53.9345 48.5991 53.7963 48.4351 53.6559 48.2838C53.6261 48.2593 53.6059 48.2305 53.5804 48.206C52.9455 47.5572 52.1957 47.0692 51.2098 46.7965L51.6522 46.5397H51.6725L53.4198 45.5255L55.2118 44.4974L59.9997 47.1086L60.0082 47.098L60.022 47.1086L64.8088 44.4974L66.6008 45.5255ZM73.4806 52.7776C73.0903 53.81 72.767 54.9276 72.767 56.0388L72.7702 63.2132C71.2738 62.9618 71.0973 61.3477 71.0909 61.2774L71.0633 60.9492L70.741 60.9205C70.0912 60.8576 69.6594 60.5827 69.2957 60.229C68.5619 59.4939 68.5609 58.3028 68.5619 58.2921C68.5513 58.3529 67.7547 59.4715 68.68 60.6936C69.0692 61.2081 69.6339 61.5256 70.3635 61.6503C70.5347 62.5452 71.2005 63.8098 72.7702 64.0027V67.5142H68.3545C66.319 66.3785 67.1815 64.382 67.2208 64.2957L67.3931 63.9174L67.0039 63.7694C64.7982 62.9501 65.4065 60.7468 65.4352 60.652L65.5246 60.3303L65.2236 60.1886C63.4039 59.3426 63.6496 57.0659 63.6741 56.97C63.1136 57.426 62.9126 58.3529 63.2976 59.2627C63.0891 59.5024 62.8094 59.7901 62.5021 60.1086C60.6165 59.6271 60.558 57.8915 60.558 57.8116L60.5538 57.5442L60.306 57.4483C59.57 57.1756 59.0649 56.7654 58.8149 56.2157C58.5363 55.6063 58.6341 54.9681 58.7107 54.6602C58.9266 54.7103 59.1414 54.7433 59.3467 54.7614C59.5594 54.7827 59.7763 54.7966 59.9954 54.7966H60.0252C60.2432 54.7966 60.4591 54.7827 60.6718 54.7614C61.847 54.6442 63.1615 54.1392 64.5323 52.7776H73.4806ZM67.9632 84.0428L68.4566 81.4688C68.4821 81.3175 68.5141 81.1407 68.5353 80.9926C68.6757 81.0512 68.8214 81.0981 68.9809 81.1279C69.166 81.1631 69.3351 81.1812 69.4893 81.1812C70.2422 81.1812 70.6815 80.7848 70.9729 80.446L71.3504 80.005L71.042 79.5202C71.0143 79.4723 70.3295 78.3888 69.8041 77.6472C69.6999 77.5013 69.602 77.3564 69.502 77.1998C68.9033 76.3027 68.1546 75.1787 66.6519 75.1787L66.5179 75.1819C66.2711 75.1979 66.0584 75.2469 65.8861 75.3119C65.4139 75.0914 64.9269 74.9763 64.4206 74.9763C63.7985 74.9763 63.2774 75.1478 62.9285 75.2661C62.8286 75.2948 62.7392 75.3268 62.6691 75.3407L59.8614 75.0637C59.8263 75.0562 59.7125 74.9891 59.5721 74.8239V74.8101L60.1794 74.5661C60.0082 72.5387 58.0652 71.2921 56.9825 70.8692C56.9357 70.6667 56.8379 70.4643 56.6677 70.2992L56.0647 69.726L55.534 70.3631L55.2735 70.687L51.3417 69.0697L53.8994 72.2862L52.8902 73.8182C52.5211 74.2103 52.9285 74.6055 52.9285 74.6055L53.9717 75.3247L55.0523 74.9209C55.0895 74.9209 55.1225 74.9294 55.1597 74.9337C55.1065 75.0977 55.0384 75.7434 54.9938 75.9234L53.1178 75.5548L51.1471 76.6692C50.1336 77.415 49.9953 78.6477 50.3718 79.4925L50.5898 79.9709L50.9004 80.6474L51.5906 80.3619C51.6001 80.3587 51.6097 80.3555 51.6161 80.3502C51.3683 81.1439 51.4693 81.8982 51.9107 82.3925L52.3297 82.9199L52.887 83.6252L53.4985 82.9668C53.6772 82.7878 54.2621 82.1326 54.4408 81.5722L54.5737 81.1439L54.2759 80.8147L54.2259 80.755L54.562 80.1999L57.0102 80.7785L57.5621 80.9052L57.8546 80.4205L58.0141 80.1573C58.045 80.1009 58.0513 80.0923 58.1651 80.0923C58.2523 80.0923 58.3385 80.1009 58.4321 80.1222C59.3562 80.2969 60.2081 80.3832 60.9643 80.3832C61.6981 80.3832 62.1373 80.3555 62.6595 80.1818C62.6595 80.1818 63.974 81.6776 64.0197 81.7352L63.2136 84.2239L63.1785 84.3742C61.6534 84.4978 60.9111 84.8334 60.0135 85.7304C58.7107 84.436 57.7876 84.2996 54.2855 84.2996C50.0932 84.2996 47.2515 81.8375 47.2515 77.904V68.2888H72.7702L72.7755 77.904C72.7755 81.0917 70.9069 83.3173 67.9632 84.0428ZM52.2457 78.6061L52.3786 78.9385C52.2903 79.2294 51.2949 79.6406 51.2949 79.6406L51.0801 79.1686C50.8514 78.6658 50.9004 77.8177 51.5938 77.2989L53.2082 76.3144L54.9204 76.6777C54.8885 77.2221 55.2128 77.6291 55.2128 77.6291L53.4198 77.2839L52.3467 78.0265C52.1638 78.1544 52.151 78.3888 52.2457 78.6061ZM67.693 81.3239L67.1432 84.1994C66.7901 84.2495 66.42 84.2751 66.0372 84.29L66.6178 81.5264C66.7901 80.7049 64.5887 80.4492 63.5007 78.8341C62.97 79.4318 61.9703 79.6108 60.9643 79.6108C60.0475 79.6108 59.1318 79.4648 58.5746 79.354C58.4331 79.3316 58.2981 79.3157 58.1651 79.3157C57.844 79.3157 57.5504 79.4158 57.3473 79.7557L57.1878 80.0263L54.1876 79.3189L53.4411 80.5568C53.3368 80.7582 53.3283 80.9265 53.4985 81.1141L53.7006 81.3357C53.5612 81.7735 52.937 82.4362 52.937 82.4362L52.4914 81.8779C52.1383 81.4827 52.1957 80.7582 52.5637 80.0881L53.7537 78.0755L56.2955 78.4431L55.9009 77.5418C55.3702 76.3485 56.1796 74.8325 56.2657 73.9588C56.2359 74.2231 55.9935 74.2827 55.7127 74.2827C55.4564 74.2827 55.1703 74.2337 54.9799 74.2337C54.9044 74.2337 54.8406 74.2412 54.8066 74.2667L54.1174 74.6854L53.5751 74.2039C53.5091 74.1122 53.4889 73.8949 53.6474 73.733L54.9044 72.3202L53.4198 70.5815L55.4989 71.6288L56.1349 70.8575C56.3093 71.029 56.2327 71.4765 56.2327 71.4765C56.8815 71.4924 58.7022 72.5003 58.799 74.8548C58.8043 74.9273 58.8043 75.0072 58.8043 75.085C58.8043 75.085 58.8213 75.1148 58.8532 75.1627C58.9808 75.3407 59.3371 75.7945 59.787 75.8361L62.6616 76.1216H62.6733C62.9881 76.1216 63.6156 75.7508 64.4206 75.7508C64.8599 75.7508 65.347 75.8627 65.867 76.1908C65.867 76.1908 66.1297 75.9831 66.553 75.9618C66.5849 75.9575 66.6221 75.9575 66.6519 75.9575C67.9408 75.9575 68.4768 77.1252 69.1692 78.0947C69.6892 78.8341 70.3848 79.9293 70.3848 79.9293C70.1284 80.234 69.8902 80.4045 69.4893 80.4045C69.3797 80.4045 69.2553 80.396 69.1192 80.3683C67.7356 80.1126 67.5367 77.2648 66.7476 77.04C66.705 77.0282 66.6625 77.024 66.6221 77.024C66.3679 77.024 66.2573 77.2499 66.2573 77.2499C66.6178 78.2215 66.4062 78.6136 66.7954 79.3615C67.0847 79.9165 67.6005 80.3725 67.8121 80.5888C67.8121 80.5888 67.7547 81.0096 67.693 81.3239ZM65.047 84.3092C64.6599 84.3092 64.3037 84.3145 63.9835 84.3273L64.8258 81.7C64.9566 81.3357 64.292 80.8679 64.0165 80.4578C64.4313 80.7188 65.5065 81.2909 66.0233 81.5189C65.9712 81.6041 65.047 84.3092 65.047 84.3092ZM52.5264 60.6339L52.6466 56.0665L53.6697 54.9819L54.3121 56.3297L53.0454 60.7138L52.5264 60.6339ZM53.2624 62.0487C53.4294 62.4003 53.7303 62.6347 53.942 62.7679C53.9345 63.0982 53.9037 63.6085 53.8175 64.0602C53.7963 64.1614 53.7707 64.2541 53.7431 64.3468C53.7282 64.4054 53.7112 64.4533 53.6995 64.4917C53.3858 64.4917 52.7732 64.4533 52.2701 64.2701C51.7139 64.0645 50.8844 63.0428 51.0758 61.9156C51.3162 61.7685 51.8735 61.4542 52.3956 61.4542C52.7966 61.4542 53.071 61.6439 53.2624 62.0487ZM65.113 63.2761C64.326 63.8567 62.299 65.3398 61.563 65.8543L54.4854 64.5801C54.5024 64.5173 54.5194 64.4533 54.5343 64.3916C54.6269 64.0229 54.7226 63.5211 54.7268 62.9298L60.6761 63.0257L60.7898 62.9096C60.8802 62.819 62.7648 60.9951 63.7251 59.9456C63.9538 60.2333 64.2388 60.5071 64.6142 60.7468C64.4866 61.4457 64.5408 62.4387 65.113 63.2761ZM55.4883 52.7776C56.3391 53.6246 57.1718 54.1509 57.9631 54.4407C57.861 54.8498 57.7259 55.6936 58.1066 56.5342C58.4182 57.2118 58.983 57.7339 59.7997 58.0823C59.8891 58.9207 60.4187 60.1811 61.881 60.7362C61.2397 61.3839 60.6165 61.9944 60.3644 62.2405L54.428 62.1468C54.294 62.0796 54.0632 61.9273 53.9611 61.7131C53.9494 61.6822 53.9303 61.6663 53.9175 61.6364L54.8864 61.793C54.9066 61.7962 54.9278 61.7962 54.948 61.7962C55.1352 61.7962 55.2979 61.6663 55.3288 61.4734C55.3607 61.2593 55.2182 61.0611 55.0087 61.0281L53.8175 60.8395L55.1384 56.2647L53.8867 53.6246L51.8798 55.7501L51.7565 60.5071L50.408 60.2919C50.1995 60.2514 50.0006 60.4038 49.9634 60.6158C49.9315 60.8246 50.074 61.0238 50.2857 61.0611L50.8514 61.1474C50.6494 61.2625 50.5154 61.3541 50.4994 61.3669L50.3856 61.4468L50.3537 61.5885C50.0262 62.9234 50.7674 64.1902 51.5693 64.757L51.5406 64.9253C51.5076 65.1309 51.5544 65.3312 51.6778 65.4985C51.7948 65.67 51.9724 65.7723 52.1744 65.8085C52.2159 65.816 52.2606 65.8192 52.2989 65.8192C52.6466 65.8192 52.9497 65.5784 53.0348 65.2268C53.3326 65.262 53.6059 65.2694 53.7931 65.2694H53.9526L61.7406 66.68L61.8736 66.5916C62.4936 66.1569 64.8599 64.4299 65.6352 63.8578C65.8489 64.0421 66.0871 64.2083 66.3754 64.3468C66.1233 65.1895 66.1084 66.4883 67.1007 67.5142H47.2515V56.0388C47.2515 54.9276 46.9271 53.81 46.5432 52.7776H55.4883ZM54.4152 35.4628L59.5945 37.2228V45.3752L55.7808 43.3616L54.4152 35.4628ZM67.0517 34.4794C67.0517 32.4903 63.7092 30.7004 60.0199 30.7004H59.9997C56.3104 30.7004 52.9678 32.4903 52.9678 34.4794L53.0412 34.9684L54.5141 43.4394L53.0348 44.3003L49.2062 46.5397H49.22C49.22 46.5397 48.3586 46.9829 47.9598 47.2557C46.5017 48.2699 46.1922 49.7498 47.0388 50.3613C47.2472 49.1542 48.1991 47.8938 49.9826 47.8938C51.2662 47.8938 52.2457 48.5576 53.0348 49.5527C53.239 49.8041 53.4315 50.0726 53.6112 50.3613C53.8324 50.7257 54.0558 51.0453 54.2759 51.3532H44.4141C45.1394 52.8128 45.8285 54.3587 45.8285 56.0388V77.904C45.8285 83.1969 49.8911 85.723 54.2855 85.723C57.6823 85.723 58.1396 85.5674 60.0135 87.4383C61.8789 85.5674 62.3372 85.723 65.7362 85.723C70.1338 85.723 74.191 83.1969 74.191 77.904V56.0388C74.191 54.3587 74.8791 52.8128 75.6076 51.3532H65.7426C65.9627 51.0453 66.185 50.7257 66.4062 50.3613C66.5891 50.0726 66.7805 49.8041 66.9805 49.5527C67.777 48.5533 68.7533 47.8938 70.0381 47.8938C71.8194 47.8938 72.7702 49.1542 72.9818 50.3613C73.8284 49.7498 73.5221 48.2699 72.0555 47.2557C71.6631 46.9829 70.8006 46.5397 70.8006 46.5397H70.8144L66.9805 44.3003L65.5065 43.4394L66.9805 34.9684L67.0517 34.4794Z" fill="black"/>
</svg>
