<?xml version="1.0" encoding="utf-8"?>
<!-- Generator: Adobe Illustrator 23.0.6, SVG Export Plug-In . SVG Version: 6.00 Build 0)  -->
<svg version="1.1" id="Layer_1" focusable="false" xmlns="http://www.w3.org/2000/svg" xmlns:xlink="http://www.w3.org/1999/xlink"
	 x="0px" y="0px" viewBox="0 0 320 320" style="enable-background:new 0 0 320 320;" xml:space="preserve">
<style type="text/css">
	.st0{fill:#FFFFFF;}
</style>
<path class="st0" d="M207.6,160L315.3,52.3c6.2-6.2,6.2-16.3,0-22.6l-25-25c-6.2-6.2-16.3-6.2-22.6,0L160,112.4L52.3,4.7
	c-6.2-6.2-16.3-6.2-22.6,0l-25,25c-6.2,6.2-6.2,16.3,0,22.6L112.4,160L4.7,267.7c-6.2,6.2-6.2,16.3,0,22.6l25,25
	c6.2,6.2,16.3,6.2,22.6,0L160,207.6l107.7,107.7c6.2,6.2,16.3,6.2,22.6,0l25-25c6.2-6.2,6.2-16.3,0-22.6L207.6,160z"/>
</svg>
