<svg width="24" height="24" viewBox="0 0 24 24" fill="none" xmlns="http://www.w3.org/2000/svg">
<path d="M12.0001 23.9998C18.6275 23.9998 24 18.6273 24 11.9999C24 5.37255 18.6275 1.52588e-05 12.0001 1.52588e-05C5.37278 1.52588e-05 0.000244141 5.37255 0.000244141 11.9999C0.000244141 18.6273 5.37278 23.9998 12.0001 23.9998Z" fill="#242E6A"/>
<path d="M18 8.46276C17.5586 8.66346 17.0838 8.7992 16.5859 8.85982C17.0943 8.54748 17.4844 8.05327 17.6686 7.46342C17.1929 7.75279 16.6657 7.96272 16.1052 8.07587C15.6561 7.58542 15.0162 7.27892 14.3077 7.27892C12.9483 7.27892 11.8458 8.40948 11.8458 9.80344C11.8458 10.0013 11.8676 10.1939 11.9099 10.3788C9.86377 10.2735 8.04957 9.26856 6.83522 7.74074C6.62334 8.11352 6.50179 8.54748 6.50179 9.01006C6.50179 9.88571 6.93675 10.6588 7.59699 11.1114C7.19361 11.0984 6.81373 10.9848 6.48196 10.7952C6.48178 10.806 6.48178 10.8167 6.48178 10.8273C6.48178 12.0504 7.33076 13.0707 8.45681 13.3025C8.25044 13.3604 8.0325 13.3911 7.80832 13.3911C7.64932 13.3911 7.49527 13.3755 7.34508 13.3461C7.65831 14.3489 8.56734 15.0788 9.64491 15.0993C8.80217 15.7765 7.74075 16.18 6.58698 16.18C6.38869 16.18 6.19223 16.1681 6 16.1446C7.08896 16.8611 8.38337 17.2789 9.77362 17.2789C14.302 17.2789 16.7785 13.4322 16.7785 10.0958C16.7785 9.98644 16.7761 9.87743 16.7713 9.76936C17.2527 9.41353 17.6701 8.96902 18 8.46276Z" fill="white"/>
</svg>
