<svg width="24" height="24" viewBox="0 0 24 24" fill="none" xmlns="http://www.w3.org/2000/svg">
<path d="M12 23.9998C18.6274 23.9998 24 18.6272 24 11.9998C24 5.37237 18.6274 -0.000213623 12 -0.000213623C5.37258 -0.000213623 0 5.37237 0 11.9998C0 18.6272 5.37258 23.9998 12 23.9998Z" fill="#242E6A"/>
<path d="M18 12.4838V17.1272H15.4274V12.795C15.4274 11.7073 15.056 10.9644 14.1246 10.9644C13.4138 10.9644 12.9915 11.4645 12.805 11.9488C12.7373 12.1219 12.7198 12.3622 12.7198 12.6049V17.127H10.1471C10.1471 17.127 10.1816 9.78972 10.1471 9.0302H12.72V10.1776C12.7148 10.1866 12.7076 10.1955 12.7029 10.2041H12.72V10.1776C13.0619 9.62709 13.6716 8.84008 15.0386 8.84008C16.7311 8.84008 18 9.99731 18 12.4838ZM7.45578 5.12724C6.57575 5.12724 6 5.73176 6 6.52601C6 7.30339 6.55906 7.92537 7.42201 7.92537H7.4387C8.336 7.92537 8.89391 7.30339 8.89391 6.52601C8.87683 5.73176 8.336 5.12724 7.45578 5.12724ZM6.15291 17.1272H8.72469V9.0302H6.15291V17.1272Z" fill="white"/>
</svg>
