<?xml version="1.0" encoding="UTF-8"?> <svg xmlns="http://www.w3.org/2000/svg" width="1902" height="1897" viewBox="0 0 1902 1897" fill="none"><path d="M1848.74 794.476C1962.4 681.109 1888.18 423.227 1682.92 218.538C1477.66 13.8105 1219.14 -60.2495 1105.44 53.1169C1033.89 124.483 1036.82 253.064 1099.93 389.612C781.077 167.584 444.502 112.304 278.535 277.801C112.568 443.336 167.992 778.996 390.638 1097.05C253.734 1034.07 124.817 1031.19 53.2647 1102.55C-60.3977 1215.92 13.8176 1473.8 219.079 1678.49C424.341 1883.22 682.859 1957.24 796.521 1843.87C868.074 1772.51 865.144 1643.93 802.037 1507.38C1120.92 1729.41 1457.5 1784.69 1623.43 1619.19C1789.39 1453.66 1733.97 1117.99 1511.32 799.939C1648.23 862.921 1777.14 865.804 1848.7 794.438L1848.74 794.476Z" fill="#7F54B3"></path></svg> 