<svg width="24" height="24" viewBox="0 0 24 24" fill="none" xmlns="http://www.w3.org/2000/svg">
<path fill-rule="evenodd" clip-rule="evenodd" d="M20.2667 11.9733C20.2667 14.6667 18.08 16.88 15.36 16.88H12.5333C12.2133 16.88 11.9733 16.64 11.9733 16.32V11.9733C11.9733 10.32 10.64 9.01333 9.01333 9.01333C7.36 9.01333 6.05333 10.3467 6.05333 11.9733V16.32C6.05333 16.64 5.81333 16.88 5.49333 16.88H4.69333C4.37333 16.88 4.13333 16.64 4.13333 16.32V11.9733C4.13333 9.28 6.32 7.06667 9.04 7.06667C11.7333 7.06667 13.9467 9.25333 13.9467 11.9733V14.9333H15.3867C17.04 14.9333 18.3467 13.6 18.3467 11.9733V7.62667C18.3467 7.30667 18.5867 7.06667 18.9067 7.06667H19.7067C20.0267 7.06667 20.2667 7.30667 20.2667 7.62667V7.65333V11.9733ZM12 0C5.36 0 0 5.36 0 12C0 18.64 5.36 24 12 24C18.64 24 24 18.64 24 12C24 5.36 18.64 0 12 0Z" fill="white"/>
</svg>
