<svg width="24" height="24" viewBox="0 0 24 24" fill="none" xmlns="http://www.w3.org/2000/svg">
<g clip-path="url(#clip0)">
<path d="M12 24.0001C18.6275 24.0001 24.0001 18.6275 24.0001 12C24.0001 5.37259 18.6275 0 12 0C5.37259 0 0 5.37259 0 12C0 18.6275 5.37259 24.0001 12 24.0001Z" fill="#242E6A"/>
<path d="M19 9.13698C19 7.95718 18.0633 7 16.9078 7H7.0918C5.93648 7 5 7.45742 5 8.63698V14.8639C5 16.0437 5.93665 17 7.0918 17H16.9076C18.0634 17 19 16.0435 19 14.8639V9.13698ZM10.5996 14.137V9.53651L14.5978 11.7266L10.5996 14.137Z" fill="white"/>
</g>
<defs>
<clipPath id="clip0">
<rect width="24" height="24" fill="white"/>
</clipPath>
</defs>
</svg>
