<svg width="140" height="42" viewBox="0 0 140 42" fill="none" xmlns="http://www.w3.org/2000/svg">
<path fill-rule="evenodd" clip-rule="evenodd" d="M0 3.89652C0 1.74453 1.72588 0 3.8561 0H136.144C138.274 0 140 1.74433 140 3.89652V38.0974C140 40.2494 138.274 41.9939 136.144 41.9939H3.8561C1.72644 41.9939 0 40.2496 0 38.0974V3.89652Z" fill="white"/>
<path fill-rule="evenodd" clip-rule="evenodd" d="M74.1892 13.8901C76.0611 13.8901 77.5786 12.3567 77.5786 10.4651C77.5786 8.57349 76.0611 7.04004 74.1892 7.04004C72.3173 7.04004 70.7998 8.57349 70.7998 10.4651C70.7998 12.3567 72.3173 13.8901 74.1892 13.8901ZM74.1892 12.8436C75.4891 12.8436 76.5429 11.7787 76.5429 10.4651C76.5429 9.15148 75.4891 8.08658 74.1892 8.08658C72.8893 8.08658 71.8355 9.15148 71.8355 10.4651C71.8355 11.7787 72.8893 12.8436 74.1892 12.8436Z" fill="black"/>
<path fill-rule="evenodd" clip-rule="evenodd" d="M53.9466 7.3252H50.1807V7.41218V8.08632V10.0843V10.8454V12.9385V13.6914V13.6996H53.9466V12.9385H51.2163V10.8454H53.6642V10.0843H51.2163V8.08632H53.9466V7.3252Z" fill="black"/>
<path fill-rule="evenodd" clip-rule="evenodd" d="M56.583 7.3252H54.9824V8.08632H56.583V13.6996H57.6186V8.08632H59.2191V7.3252H57.6186H56.583Z" fill="black"/>
<path fill-rule="evenodd" clip-rule="evenodd" d="M65.8095 7.3252H64.209V8.08632H65.8095V13.6996H66.8452V8.08632H68.4457V7.3252H66.8452H65.8095Z" fill="black"/>
<rect x="62.2324" y="7.3252" width="1.03566" height="6.3744" fill="black"/>
<path fill-rule="evenodd" clip-rule="evenodd" d="M78.4258 7.3252H78.6141H79.4615H79.6497L82.4742 11.9894V7.3252H83.5098V13.6996H82.4742L79.4615 8.72451V13.6996H78.4258V7.3252Z" fill="black"/>
<path fill-rule="evenodd" clip-rule="evenodd" d="M46.3008 10.1953H49.1363L49.1083 11.1022H46.3008V10.1953Z" fill="black"/>
<path fill-rule="evenodd" clip-rule="evenodd" d="M49.413 10.4931C49.413 12.3478 47.9621 13.8514 46.1723 13.8514C44.3825 13.8514 42.9316 12.3478 42.9316 10.4931C42.9316 8.63834 44.3825 7.13477 46.1723 7.13477C47.0818 7.13477 47.9038 7.52302 48.4923 8.14832L47.868 8.77858C47.4458 8.34073 46.863 8.06997 46.2193 8.06997C44.9307 8.06997 43.8862 9.1548 43.8862 10.493C43.8862 11.8312 44.9307 12.916 46.2193 12.916C47.5078 12.916 48.5523 11.8312 48.5523 10.493C48.5523 10.3923 48.5464 10.293 48.5349 10.1954H49.4004C49.4087 10.2935 49.413 10.3928 49.413 10.4931Z" fill="black"/>
<path fill-rule="evenodd" clip-rule="evenodd" d="M107.018 18.7422H101.681V26.9299L107.018 26.9299C107.018 26.9299 110.091 26.4016 110.091 22.8361C110.091 19.2705 107.018 18.7422 107.018 18.7422ZM106.34 20.7227H102.716V25.1166H106.34C106.34 25.1166 107.989 25.1166 107.989 22.9197C107.989 20.7227 106.34 20.7227 106.34 20.7227Z" fill="black"/>
<rect x="101.21" y="18.7422" width="1.88297" height="13.3197" fill="black"/>
<rect x="111.189" y="18.7422" width="1.88297" height="13.3197" fill="black"/>
<path fill-rule="evenodd" clip-rule="evenodd" d="M118.103 23.2139C115.469 23.2139 114.592 25.0423 114.592 25.0423L116.16 25.979C116.16 25.979 116.539 25.0423 118.253 25.0423C119.501 25.0423 119.918 25.9947 120.052 26.513V26.9043C119.505 26.6356 118.321 26.2125 116.631 26.4664C114.339 26.8109 114.385 28.9055 114.392 29.2362C114.392 29.2498 114.392 29.2604 114.392 29.2678C114.392 29.4544 114.394 32.221 117.394 32.0316C118.704 31.949 119.533 31.542 120.052 31.1096V32.0576H121.935V26.2768L121.935 26.2649C121.935 25.4962 121.377 23.2139 118.103 23.2139ZM116.163 29.3279C116.29 27.2685 119.917 28.2566 119.917 28.2566C119.917 28.2566 119.966 28.4743 119.966 28.9386C119.644 30.3984 116.037 31.3872 116.163 29.3279Z" fill="black"/>
<path fill-rule="evenodd" clip-rule="evenodd" d="M126.41 29.297L123.994 23.499H122.111L125.469 31.5567L123.712 35.7729H125.595L130.689 23.5459H128.806L126.41 29.297Z" fill="black"/>
<path fill-rule="evenodd" clip-rule="evenodd" d="M93.0119 23.2139C96.1688 23.2139 96.9944 26.6128 96.9944 26.6128L91.0391 29.0999C91.0391 29.0999 91.4237 30.4755 93.2142 30.4848C94.6163 30.492 95.4077 29.229 95.4077 29.229L96.9187 30.263C96.9187 30.263 95.6994 32.2557 93.2023 32.2557C90.1338 32.2557 88.7822 29.5442 88.7822 27.7833C88.7822 26.0867 89.855 23.2139 93.0119 23.2139ZM92.8302 24.9687C93.9793 24.7563 94.7286 25.9083 94.7286 25.9083L90.7054 27.5676C90.7054 27.5676 90.3995 25.4181 92.8302 24.9687Z" fill="black"/>
<rect x="85.958" y="18.7422" width="1.99213" height="13.2917" fill="black"/>
<path fill-rule="evenodd" clip-rule="evenodd" d="M82.77 24.3322V23.5027L84.6115 23.5188V31.9055C84.6115 34.0482 83.3491 36.3101 80.377 36.3101C77.4049 36.3101 76.445 33.6491 76.445 33.6491L78.1362 32.9303C78.1362 32.9303 78.652 34.5703 80.4648 34.5703C82.5292 34.5703 82.7702 32.6724 82.7702 32.0227V31.1126C82.7702 31.1126 82.0559 32.2423 80.2817 32.2423C78.3582 32.2423 76.0723 30.5769 76.0723 27.7376C76.0723 24.8984 78.2247 23.2743 80.304 23.2153C81.9695 23.168 82.77 24.3322 82.77 24.3322ZM80.439 30.538C81.7819 30.538 82.8705 29.295 82.8705 27.7615C82.8705 26.2281 81.7819 24.9851 80.439 24.9851C79.0961 24.9851 78.0074 26.2281 78.0074 27.7615C78.0074 29.295 79.0961 30.538 80.439 30.538Z" fill="black"/>
<path fill-rule="evenodd" clip-rule="evenodd" d="M70.7625 32.2522C73.2379 32.2522 75.2447 30.2289 75.2447 27.733C75.2447 25.2372 73.2379 23.2139 70.7625 23.2139C68.287 23.2139 66.2803 25.2372 66.2803 27.733C66.2803 30.2289 68.287 32.2522 70.7625 32.2522ZM70.7332 30.48C72.1246 30.48 73.2526 29.2501 73.2526 27.733C73.2526 26.2159 72.1246 24.9861 70.7332 24.9861C69.3418 24.9861 68.2138 26.2159 68.2138 27.733C68.2138 29.2501 69.3418 30.48 70.7332 30.48Z" fill="black"/>
<path fill-rule="evenodd" clip-rule="evenodd" d="M61.0652 32.2522C63.5406 32.2522 65.5474 30.2289 65.5474 27.733C65.5474 25.2372 63.5406 23.2139 61.0652 23.2139C58.5898 23.2139 56.583 25.2372 56.583 27.733C56.583 30.2289 58.5898 32.2522 61.0652 32.2522ZM61.0359 30.48C62.4273 30.48 63.5553 29.2501 63.5553 27.733C63.5553 26.2159 62.4273 24.9861 61.0359 24.9861C59.6445 24.9861 58.5165 26.2159 58.5165 27.733C58.5165 29.2501 59.6445 30.48 61.0359 30.48Z" fill="black"/>
<path fill-rule="evenodd" clip-rule="evenodd" d="M49.4922 24.6465H55.4099L55.3513 26.5369H49.4922V24.6465Z" fill="black"/>
<path fill-rule="evenodd" clip-rule="evenodd" d="M55.9872 25.267C55.9872 29.1333 52.9593 32.2675 49.2241 32.2675C45.4889 32.2675 42.4609 29.1333 42.4609 25.267C42.4609 21.4008 45.4889 18.2666 49.2241 18.2666C51.1221 18.2666 52.8376 19.0759 54.0658 20.3794L52.7628 21.6931C51.8819 20.7804 50.6655 20.216 49.3221 20.216C46.633 20.216 44.453 22.4774 44.453 25.2669C44.453 28.0564 46.633 30.3177 49.3221 30.3177C52.0111 30.3177 54.1911 28.0564 54.1911 25.2669C54.1911 25.0569 54.1787 24.8499 54.1547 24.6466H55.961C55.9784 24.851 55.9872 25.058 55.9872 25.267Z" fill="black"/>
<path fill-rule="evenodd" clip-rule="evenodd" d="M33.0758 19.3641C34.4998 20.1826 34.5001 21.5094 33.0758 22.3281L12.8597 33.9478C11.4356 34.7662 10.2812 34.0887 10.2812 32.4336L10.2813 9.25899C10.2813 7.60424 11.4353 6.9261 12.8597 7.74475L33.0758 19.3641Z" fill="url(#paint0_linear_1934_24042)"/>
<mask id="mask0_1934_24042" style="mask-type:alpha" maskUnits="userSpaceOnUse" x="10" y="7" width="25" height="28">
<path fill-rule="evenodd" clip-rule="evenodd" d="M33.0758 19.3641C34.4998 20.1826 34.5001 21.5094 33.0758 22.3281L12.8597 33.9478C11.4356 34.7662 10.2812 34.0887 10.2812 32.4336L10.2813 9.25899C10.2813 7.60424 11.4353 6.9261 12.8597 7.74475L33.0758 19.3641Z" fill="white"/>
</mask>
<g mask="url(#mask0_1934_24042)">
<path fill-rule="evenodd" clip-rule="evenodd" d="M10.2628 7.41211L23.4236 20.6305L10.0928 34.3713L10.2628 7.41211Z" fill="url(#paint1_linear_1934_24042)"/>
<path fill-rule="evenodd" clip-rule="evenodd" d="M7.55664 4.69043L23.4223 20.6338L28.1393 16.0865L7.55664 4.69043Z" fill="url(#paint2_linear_1934_24042)"/>
<path fill-rule="evenodd" clip-rule="evenodd" d="M23.4239 20.6309L30.6452 27.9862L9.07227 35.3416L23.4239 20.6309Z" fill="url(#paint3_linear_1934_24042)"/>
</g>
<defs>
<linearGradient id="paint0_linear_1934_24042" x1="17.5698" y1="7.39746" x2="17.5698" y2="17.864" gradientUnits="userSpaceOnUse">
<stop stop-color="#FBDA09"/>
<stop offset="1" stop-color="#FFBC00"/>
</linearGradient>
<linearGradient id="paint1_linear_1934_24042" x1="11.3854" y1="32.5188" x2="21.1607" y2="31.1663" gradientUnits="userSpaceOnUse">
<stop stop-color="#01E2FF"/>
<stop offset="1" stop-color="#01C4FF"/>
</linearGradient>
<linearGradient id="paint2_linear_1934_24042" x1="5.19403" y1="12.9605" x2="15.0034" y2="25.6204" gradientUnits="userSpaceOnUse">
<stop stop-color="#28D781"/>
<stop offset="1" stop-color="#02F076"/>
</linearGradient>
<linearGradient id="paint3_linear_1934_24042" x1="17.1861" y1="18.4596" x2="8.784" y2="32.5751" gradientUnits="userSpaceOnUse">
<stop stop-color="#F2414E"/>
<stop offset="1" stop-color="#E02554"/>
</linearGradient>
</defs>
</svg>
