<svg width="24" height="24" viewBox="0 0 24 24" fill="none" xmlns="http://www.w3.org/2000/svg">
<mask id="mask0_6949_174660" style="mask-type:alpha" maskUnits="userSpaceOnUse" x="4" y="1" width="16" height="22">
<path fill-rule="evenodd" clip-rule="evenodd" d="M15 22.5H17.5001C18.6046 22.5 19.5001 21.6046 19.5001 20.5V3.5C19.5001 2.39543 18.6046 1.5 17.5001 1.5H15C16.1046 1.5 17 2.39543 17 3.5V20.5C17 21.6046 16.1046 22.5 15 22.5ZM14 1.5H7L7.54415 3.13246C7.81638 3.94914 8.58066 4.5 9.44152 4.5H11.5585C12.4193 4.5 13.1836 3.94914 13.4558 3.13246L14 1.5ZM7.5 19.9C7.5 19.4029 7.90294 19 8.4 19H12.6C13.0971 19 13.5 19.4029 13.5 19.9C13.5 20.3971 13.0971 20.8 12.6 20.8H8.4C7.90294 20.8 7.5 20.3971 7.5 19.9Z" fill="black"/>
<path fill-rule="evenodd" clip-rule="evenodd" d="M4.5 3.5C4.5 2.39543 5.39543 1.5 6.5 1.5H7L7.54415 3.13246C7.81638 3.94914 8.58066 4.5 9.44152 4.5H11.5585C12.4193 4.5 13.1836 3.94914 13.4558 3.13246L14 1.5H15C16.1046 1.5 17 2.39543 17 3.5V20.5C17 21.6046 16.1046 22.5 15 22.5H4.5V3.5ZM8.4 19C7.90294 19 7.5 19.4029 7.5 19.9C7.5 20.3971 7.90294 20.8 8.4 20.8H12.6C13.0971 20.8 13.5 20.3971 13.5 19.9C13.5 19.4029 13.0971 19 12.6 19H8.4Z" fill="url(#paint0_linear_6949_174660)"/>
</mask>
<g mask="url(#mask0_6949_174660)">
<path d="M0 0H24V24H0V0Z" fill="#9299A2"/>
</g>
<defs>
<linearGradient id="paint0_linear_6949_174660" x1="3" y1="4.5" x2="16.9646" y2="13.0126" gradientUnits="userSpaceOnUse">
<stop stop-opacity="0.65"/>
<stop offset="1" stop-opacity="0.3"/>
</linearGradient>
</defs>
</svg>
