<svg width="153" height="34" viewBox="0 0 153 34" fill="none" xmlns="http://www.w3.org/2000/svg">
<path fill-rule="evenodd" clip-rule="evenodd" d="M38 14.3219L37.5071 15.9031C37.2444 16.7232 36.3868 18.0743 34.7876 18.2136C34.962 18.9532 35.352 19.7826 36.2124 20.1404L37.4497 20.6493L36.7815 21.8149C36.6311 22.063 35.8534 23.206 34.2313 23.206C33.9535 23.2051 33.6852 23.1773 33.4282 23.1227C33.3619 23.4122 33.2806 23.7026 33.1843 23.9912C32.8055 25.1229 33.1321 25.911 33.1462 25.9435L33.743 27.2023L32.3727 27.5652C32.3619 27.569 31.9451 27.6815 31.4381 27.6815C31.2045 27.6815 30.9804 27.657 30.7717 27.6076C30.6129 27.5695 30.4592 27.5205 30.3121 27.4607C30.1345 27.7794 29.9207 28.0685 29.6716 28.3255C28.799 29.2251 27.5598 29.6808 25.9889 29.6808L24.8639 29.6662L27.1707 30.6294L25.4461 31.4687C24.8343 31.7681 24.049 32.1513 23.2568 32.4418L23.4781 33.0439L22.871 33.3212C22.8169 33.3456 21.6614 33.863 19.7385 33.9769C19.7385 33.9769 19.2765 34 19.0195 34C18.762 34 18.2949 33.9783 18.2949 33.9783C16.3593 33.8672 15.1944 33.3456 15.1403 33.3212L14.5351 33.0444L14.7545 32.4432C13.9834 32.1612 13.2268 31.7926 12.5882 31.481L10.8312 30.6303L13.1455 29.6662L12.0252 29.6808H12.0201C10.4515 29.6808 9.21229 29.2256 8.33824 28.3269C8.08825 28.0675 7.87396 27.778 7.69727 27.4607C7.55066 27.5205 7.39794 27.5695 7.23957 27.6066C7.03046 27.657 6.80584 27.6815 6.57229 27.6815C6.05632 27.6815 5.6442 27.5676 5.62728 27.5624L4.26311 27.2023L4.87447 25.9199L4.87492 25.9188C4.8888 25.8837 5.19783 25.1035 4.8256 23.9922C4.7288 23.7036 4.64703 23.4127 4.58171 23.1227C4.32513 23.1773 4.05916 23.2051 3.78379 23.206C2.51078 23.206 1.61605 22.4631 1.23542 21.8281L0.560143 20.6503L1.79838 20.1395C2.65645 19.7826 3.04696 18.9527 3.22317 18.2127C1.60289 18.0672 0.75704 16.7175 0.503283 15.9027L0 14.3219L1.66116 14.3741C1.7824 14.3736 2.78427 14.3445 3.75418 13.6388C3.73168 13.6407 3.70935 13.643 3.68705 13.6453C3.63624 13.6505 3.58557 13.6557 3.53332 13.6557C2.53474 13.6557 1.5653 13.0522 1.17668 12.1884L0.478848 10.6288C1.51079 10.6481 2.17807 10.5276 2.17807 10.5276L2.17835 10.5275L2.18001 10.5272C2.21892 10.5205 2.82969 10.4156 3.53426 9.69525C4.06104 9.15765 4.71188 8.87284 5.41723 8.87284C5.72549 8.87284 6.00134 8.92839 6.23771 9.00418C6.20105 8.87755 6.16675 8.75044 6.1456 8.6191C5.94166 7.30239 6.69259 6.2559 6.84531 6.05865L8.09154 4.52681L8.85374 6.32557C8.85374 6.32557 9.04453 6.73843 9.38569 6.94085C9.49001 6.41501 9.74565 5.82327 10.2908 5.25883C11.3152 4.19492 12.5642 4.03533 13.2179 4.03533C13.5224 4.03533 13.7371 4.06876 13.8081 4.08006L13.8565 4.08759L15.27 4.36675C15.1854 4.03628 15.004 3.4596 14.6709 2.94082L13.8523 1.66413L15.9082 1.89904L16.5618 0.505594L17.8334 1.16089L19.0031 0L20.1764 1.16089L21.4448 0.505594L22.1003 1.89904L24.1567 1.66507L23.3395 2.94035C23.0068 3.4596 22.8244 4.03769 22.7389 4.3691L24.2201 4.07723C24.2723 4.06876 24.4889 4.03533 24.792 4.03533C25.4456 4.03533 26.6952 4.19492 27.7219 5.2593C28.2661 5.82421 28.5213 6.41501 28.6246 6.94085C28.9677 6.73654 29.1604 6.3171 29.1627 6.31145L29.9235 4.52304L31.1509 6.04547C31.1514 6.04453 32.0884 7.1574 31.8647 8.61722C31.8436 8.7495 31.8093 8.87755 31.7717 9.00418C32.0095 8.92886 32.2853 8.87284 32.5941 8.87284C33.2989 8.87284 33.9498 9.15765 34.4756 9.69525C35.2087 10.4461 35.8431 10.5285 35.8497 10.529C35.8497 10.529 36.6542 10.6405 37.5348 10.6288L36.8332 12.1884C36.4455 13.0522 35.4765 13.6557 34.4761 13.6557C34.4239 13.6557 34.3731 13.6505 34.3224 13.6452C34.3005 13.6429 34.2786 13.6406 34.2566 13.6388C35.2289 14.3445 36.2308 14.3736 36.3684 14.3736L38 14.3219ZM2.17806 10.5275C2.17803 10.5275 2.17804 10.5276 2.17807 10.5276L2.17806 10.5275Z" fill="white"/>
<path fill-rule="evenodd" clip-rule="evenodd" d="M22.1378 20.5525H13.3681V15.482C13.3681 14.991 13.2243 14.4972 13.0547 14.041H17.0072C17.3831 14.4148 17.7506 14.6483 18.1007 14.7759C18.0556 14.9566 17.9959 15.329 18.1641 15.7004C18.3023 16.0003 18.5513 16.231 18.9122 16.3849C18.9512 16.7554 19.1857 17.3123 19.8319 17.558C19.548 17.8438 19.2731 18.114 19.1618 18.2223L16.5382 18.1804C16.479 18.1507 16.378 18.0839 16.3324 17.9893C16.3297 17.9824 16.3261 17.9771 16.3226 17.9718C16.3192 17.9668 16.3158 17.9617 16.3131 17.9554L16.7412 18.0246C16.7501 18.0255 16.7595 18.0255 16.7684 18.0255H16.7685C16.8512 18.0255 16.9235 17.9685 16.9372 17.8838C16.9513 17.7882 16.8878 17.7012 16.7952 17.6866L16.2685 17.6037L16.8526 15.5818L16.299 14.4148L15.4127 15.3544L15.3582 17.4559L14.7624 17.3617C14.6703 17.3439 14.5824 17.4107 14.5664 17.5044C14.5518 17.5966 14.6148 17.6842 14.7083 17.7007L14.9583 17.7393C14.869 17.7897 14.8098 17.8306 14.8028 17.8358L14.7525 17.872L14.7384 17.9342C14.5932 18.524 14.9212 19.0838 15.2755 19.3342L15.2628 19.4086C15.2483 19.4995 15.2694 19.5875 15.323 19.6619C15.3751 19.7372 15.4536 19.7828 15.5434 19.7984C15.5612 19.8021 15.5805 19.8036 15.5984 19.8036C15.7516 19.8036 15.8855 19.6976 15.9226 19.5413C16.0551 19.5574 16.1759 19.5606 16.2586 19.5606H16.3281L19.7698 20.1839L19.8286 20.1444C20.1021 19.9533 21.1481 19.1902 21.4911 18.9369C21.5847 19.0179 21.6899 19.0913 21.8177 19.1525C21.7064 19.5253 21.6998 20.0992 22.1378 20.5525ZM13.3672 20.8945H24.6424L24.6448 25.1431C24.6448 26.5516 23.8191 27.535 22.5189 27.8552L22.736 26.7187C22.7482 26.6514 22.7623 26.5733 22.7712 26.5074C22.8332 26.5337 22.8981 26.5549 22.9686 26.5681C23.0494 26.5836 23.1246 26.5912 23.1932 26.5912C23.5254 26.5912 23.7195 26.4156 23.8483 26.2663L24.0156 26.071L23.8788 25.8573C23.8666 25.8365 23.5635 25.3573 23.3323 25.0297C23.2862 24.9656 23.2421 24.9011 23.1979 24.8324L23.197 24.8311C22.9326 24.4345 22.6022 23.9389 21.9395 23.9389L21.8798 23.9403C21.7708 23.9474 21.6768 23.9686 21.6002 23.9978C21.3925 23.9003 21.1768 23.849 20.9531 23.849C20.6787 23.849 20.4479 23.9253 20.2933 23.978C20.2794 23.982 20.2661 23.9861 20.2534 23.9901C20.2256 23.9987 20.2006 24.0065 20.1787 24.01L18.939 23.8881C18.923 23.8853 18.8723 23.8551 18.8107 23.7822V23.7756L19.0791 23.6682C19.0034 22.7724 18.1453 22.2216 17.6669 22.0347C17.6458 21.9453 17.6026 21.8558 17.5274 21.7833L17.2609 21.5296L17.0269 21.8111L16.9108 21.9542L15.174 21.2396L16.3042 22.6608L15.8587 23.3378C15.6952 23.5115 15.8751 23.6852 15.8751 23.6852L16.3361 24.0039L16.8136 23.825C16.8243 23.825 16.8342 23.8266 16.8443 23.8282C16.8498 23.8291 16.8553 23.83 16.861 23.8306C16.8476 23.8712 16.8324 23.9785 16.8182 24.079C16.807 24.1581 16.7964 24.233 16.7877 24.268L15.9588 24.1046L15.088 24.5975C14.6407 24.927 14.5796 25.4717 14.7455 25.8445L14.8418 26.0564L14.979 26.3553L15.284 26.2287C15.2887 26.2282 15.2924 26.2263 15.2948 26.2244C15.1853 26.5747 15.2304 26.908 15.425 27.1264L15.6101 27.359L15.8568 27.6711L16.127 27.3806C16.206 27.3006 16.464 27.0116 16.5438 26.7639L16.6021 26.5747L16.4705 26.4292L16.4484 26.4029L16.5969 26.1576L17.6792 26.4128L17.9226 26.4692L18.0518 26.255L18.1223 26.1383C18.1355 26.1138 18.1387 26.1096 18.189 26.1096C18.2271 26.1096 18.2656 26.1138 18.3065 26.1232C18.7158 26.2 19.0917 26.239 19.4259 26.239C19.7506 26.239 19.9442 26.2263 20.1744 26.1496C20.1744 26.1496 20.7557 26.8105 20.7755 26.8355L20.4202 27.9361L20.4042 28.002C19.7304 28.0571 19.4024 28.2049 19.0057 28.6013C18.4301 28.0293 18.0217 27.9686 16.4748 27.9686C14.6223 27.9686 13.3672 26.8812 13.3672 25.1431V20.8945Z" fill="#FFDD2D"/>
<path fill-rule="evenodd" clip-rule="evenodd" d="M16.2932 3.08823L16.5883 3.1193L16.7162 2.84956L17.0879 2.05256L17.7786 2.41034L18.046 2.54733L19.0042 1.59546L19.7509 2.33596L19.9647 2.54733L20.2326 2.41034L20.9191 2.05256L21.2965 2.84956L21.4215 3.1193L21.7166 3.08823L21.999 3.05434C21.8698 3.34574 21.7744 3.62301 21.7062 3.85227C20.9609 3.43612 19.9924 3.19933 19.0042 3.19933C18.0207 3.19933 17.0531 3.43612 16.305 3.85227C16.2359 3.62301 16.1415 3.34574 16.0122 3.05434L16.2932 3.08823ZM19.0042 3.61501C20.3265 3.61501 21.3843 4.05423 21.9689 4.52169C21.9689 4.52169 22.1423 3.47472 22.7349 2.5511L21.67 2.67255L21.1127 1.48671L20.0427 2.03938L19.0042 1.01172L17.969 2.03938L16.8966 1.48671L16.3402 2.67255L15.2754 2.5511C15.8684 3.47472 16.0414 4.52169 16.0414 4.52169C16.6297 4.05423 17.6842 3.61501 19.0042 3.61501ZM22.2052 31.6485L21.6901 30.2292C22.3029 30.0423 23.3565 29.6403 23.8287 29.3729L23.5139 30.4057L24.5806 30.7611C23.9354 31.0855 23.153 31.3882 22.2052 31.6485ZM19.0074 32.9243C17.7658 32.9243 16.3495 32.638 15.9317 32.4893L16.5661 30.7705C17.092 30.9245 18.1864 31.0878 18.9806 31.0827H19.0308C19.825 31.0878 20.918 30.9245 21.4467 30.7705L22.0797 32.4893C21.6624 32.638 20.2456 32.9243 19.0074 32.9243ZM13.4308 30.7611L14.4994 30.4057L14.1832 29.3729C14.6545 29.6403 15.7099 30.0423 16.3213 30.2292L15.8058 31.6485C14.8613 31.3882 14.0756 31.0855 13.4308 30.7611ZM24.6285 30.4457L23.9791 30.1962L24.1586 29.5235L24.356 28.791C24.356 28.791 23.2051 29.4167 21.583 29.886C21.1229 30.0178 20.7747 30.0785 20.7747 30.0785V30.5775C20.7747 30.5775 19.9072 30.7282 19.0308 30.7282H18.9806C18.1032 30.7282 17.2372 30.5775 17.2372 30.5775V30.0785C17.2372 30.0785 16.888 30.0178 16.4284 29.886C14.8067 29.4167 13.6569 28.791 13.6569 28.791L13.8514 29.5235L14.0347 30.1962L13.3829 30.4457L12.6602 30.7159C12.7383 30.7538 12.8193 30.7933 12.9029 30.834L12.9029 30.834C13.7041 31.2245 14.7353 31.727 15.6864 31.9879L15.4388 32.6663C15.4388 32.6663 16.771 33.274 18.9904 33.2797V33.2811H19.0205V33.2797C21.2423 33.274 22.5736 32.6663 22.5736 32.6663L22.3245 31.9879C23.2873 31.7239 24.3333 31.2126 25.1357 30.8202L25.3494 30.7159L24.6285 30.4457ZM34.2455 22.0284C35.3019 22.0284 35.7619 21.2258 35.7619 21.2258C33.2305 20.1732 33.48 16.7762 33.48 16.7762C33.48 16.7762 33.8089 17.0219 34.4494 17.045C34.4725 17.0464 34.4922 17.0464 34.5157 17.0464C35.9104 17.0464 36.3831 15.5499 36.3831 15.5499H36.3554C36.0998 15.5499 34.0265 15.4896 32.5604 13.623L32.4331 13.4611C31.5237 12.3019 30.7356 11.2976 29.2427 10.8922L29.0895 10.8649L29.0557 10.7081C29.0129 10.4694 29.1765 10.2449 29.5472 10.0034C31.7023 8.58971 30.2389 6.78624 30.2389 6.78624C30.2389 6.78624 29.6234 8.22817 28.2465 8.22817C28.2299 8.22817 28.2129 8.2277 28.1959 8.22723C28.1787 8.22676 28.1615 8.22628 28.1445 8.22628L28.1172 8.2249C27.9699 8.21748 27.8274 8.2103 27.6845 8.18015L27.4307 8.13072C27.4307 8.13072 27.8236 7.06069 26.8762 6.07869C26.1624 5.33725 25.294 5.21108 24.7926 5.21108C24.5398 5.21108 24.3795 5.24356 24.3795 5.24356C24.8551 5.86685 25.1995 6.90157 24.6502 7.53992C24.4663 7.75226 24.1796 7.88634 23.8974 8.01836C23.4506 8.22732 23.0149 8.43113 23.0149 8.93195C23.0149 9.2789 23.3382 9.68281 23.9181 10.0453C25.6615 11.1459 27.3927 12.6067 28.1135 14.5627C29.0129 17.0026 27.9988 18.623 26.5529 19.5522C26.5529 19.5522 27.0068 19.9703 27.6643 20.0239C27.7982 20.0367 27.9288 20.0428 28.051 20.0428C29.4396 20.0428 30.1581 19.3903 30.1581 19.3903C30.1581 19.3903 30.0392 20.2918 29.317 21.1288C28.6502 21.9013 27.7747 22.357 26.4392 22.3758C26.4392 22.3758 26.3974 22.9963 26.989 23.5339C27.3673 23.8733 28.2404 23.983 28.2404 23.983C28.2404 23.983 26.6046 24.3154 26.4241 26.736C26.3255 28.0475 25.9909 28.5032 25.9909 28.5032H26.0205C29.817 28.5032 29.7197 25.2414 29.7197 25.2414C29.7197 25.2414 29.9838 26.2073 31.043 26.4592C31.1713 26.4926 31.3075 26.5058 31.4377 26.5058C31.7784 26.5058 32.0749 26.4253 32.0749 26.4253C32.0749 26.4253 31.52 25.2541 32.0702 23.6144C32.5265 22.2539 32.4532 21.246 32.4532 21.246C32.4532 21.246 32.9645 22.0209 34.2323 22.0284H34.2455ZM36.8211 15.6873C36.7976 15.7622 36.2252 17.5044 34.5157 17.5044L34.4349 17.5021C34.2516 17.4969 34.089 17.472 33.9471 17.4442C34.0166 18.3946 34.3648 20.1506 35.9367 20.8045L36.4184 21.0031L36.1585 21.4565L36.1566 21.4595C36.1118 21.5326 35.5275 22.4851 34.2319 22.4851C33.651 22.4832 33.2013 22.3387 32.8658 22.1635C32.8146 22.5938 32.7093 23.146 32.5035 23.7632C32.0287 25.1784 32.4631 26.1745 32.4866 26.2284L32.487 26.2295L32.7225 26.7275L32.1896 26.8692L32.1872 26.8698C32.1408 26.8813 31.8198 26.961 31.4377 26.961C31.2559 26.961 31.0886 26.9413 30.9354 26.9055C30.5312 26.8099 30.2216 26.6301 29.9814 26.4253C29.8358 26.8721 29.5881 27.3767 29.1558 27.8235C28.4241 28.579 27.3682 28.9599 25.9895 28.9599L25.1549 28.9486L25.6164 28.2424C25.6196 28.2382 25.8861 27.8235 25.9693 26.7031C26.0675 25.3609 26.5741 24.5771 27.0731 24.1271C26.9303 24.0583 26.7944 23.9741 26.6817 23.8714C25.9467 23.2096 25.9777 22.4309 25.982 22.3462L26.0139 21.9263L26.4317 21.9197C27.5562 21.9013 28.3381 21.5657 28.9735 20.828C29.122 20.6548 29.2413 20.482 29.3372 20.3135C28.9871 20.4203 28.5562 20.4999 28.051 20.4999C27.9171 20.4999 27.7742 20.4919 27.6248 20.482C26.8366 20.4143 26.3037 19.9445 26.2435 19.8914L26.2432 19.8912L25.8062 19.4892L26.3053 19.1681C27.4171 18.4535 28.5623 17.0982 27.6845 14.7218C27.1173 13.1768 25.8039 11.7772 23.6751 10.436C22.9557 9.98033 22.5586 9.44414 22.5586 8.93195C22.5586 8.14061 23.2202 7.82849 23.7043 7.60583L23.7491 7.58437C23.9703 7.47855 24.193 7.37201 24.3053 7.24193C24.6793 6.80695 24.364 5.97371 24.0158 5.52225L23.5727 4.93663L24.2912 4.79352C24.2943 4.79324 24.301 4.79225 24.3112 4.79074C24.3704 4.78194 24.5462 4.75586 24.7926 4.75586C25.3321 4.75586 26.364 4.88673 27.2056 5.75951C27.9058 6.48542 27.9965 7.25841 27.9598 7.75788C28.0126 7.76231 28.0665 7.76501 28.122 7.76778L28.168 7.77012H28.2465C29.2861 7.77012 29.7862 6.67768 29.8179 6.60852L29.8188 6.60641L30.1163 5.90686L30.5923 6.49672C30.6229 6.5325 31.3231 7.40905 31.1548 8.5078C31.0402 9.23841 30.5829 9.86782 29.7963 10.3857C29.7122 10.4407 29.6506 10.4878 29.6078 10.5269C31.0854 11.0084 31.9133 12.0625 32.7844 13.1716L32.7925 13.182L32.9189 13.3401C34.2563 15.0429 36.143 15.0932 36.369 15.0932H36.3714L37.0124 15.073L36.8211 15.6873ZM32.5932 10.0489C32.9118 10.0489 33.2831 10.1576 33.6341 10.5211C34.7361 11.6415 35.761 11.7041 35.761 11.7041C35.5749 12.1174 35.0349 12.4799 34.4757 12.4799C34.3465 12.4799 34.2163 12.4601 34.088 12.4154C33.7389 12.2975 33.4931 11.9926 33.1995 11.6286C32.8554 11.2018 32.4457 10.6938 31.7272 10.3106C31.7272 10.3106 32.0984 10.0489 32.5932 10.0489ZM31.5101 10.7155C32.1477 11.0559 32.5195 11.512 32.8451 11.9164L32.858 11.9323L32.858 11.9323C33.1738 12.3215 33.4751 12.6929 33.9447 12.849C34.1134 12.9069 34.2929 12.9346 34.4757 12.9346C35.1886 12.9346 35.9057 12.4973 36.1773 11.8914L36.4508 11.2846L35.7892 11.2451C35.7581 11.2446 34.9071 11.1665 33.9612 10.1981C33.5716 9.80034 33.1003 9.5918 32.5932 9.5918C31.9961 9.5918 31.5477 9.87971 31.4703 9.92943L31.4631 9.93404L30.8555 10.3629L31.5101 10.7155ZM31.8107 16.7911V16.7675C32.393 19.8138 33.6881 20.5957 33.6881 20.5957C32.6575 20.0868 32.0076 18.7367 31.8502 18.2504C31.6792 20.9281 30.3751 22.7857 28.8498 24.5746C28.0584 25.502 27.7826 26.4035 27.7826 26.4035C27.7826 26.4035 27.9353 25.3819 28.619 24.5506C30.042 22.8379 31.3949 20.7059 31.4949 18.241C31.5636 16.5199 31.1228 15.1251 30.4334 13.975C30.8187 15.1726 30.7642 16.639 29.455 18.008C29.455 18.008 32.0612 14.8798 28.4184 11.6725C27.3834 10.8061 26.2787 10.1749 25.4312 9.69065L25.4312 9.69064C25.0847 9.49266 24.7812 9.31924 24.543 9.16432C27.5105 10.1341 28.9597 9.06641 28.9597 9.06641C28.0124 9.88929 26.7854 9.87517 26.0242 9.75654C26.2309 9.85728 26.4452 9.96273 26.6764 10.087C29.1787 11.4484 31.4273 13.6888 31.8107 16.7911ZM11.9898 28.5032C8.19283 28.5032 8.28963 25.2414 8.28963 25.2414C8.28963 25.2414 8.0246 26.2073 6.96681 26.4592C6.83993 26.4926 6.7046 26.5058 6.57255 26.5058C6.23186 26.5058 5.93675 26.4253 5.93675 26.4253C5.93675 26.4253 6.4889 25.2541 5.93863 23.6144C5.48375 22.2544 5.55752 21.246 5.55752 21.246C5.55752 21.246 5.04719 22.0209 3.77794 22.0284H3.76525C2.70982 22.0284 2.24882 21.2258 2.24882 21.2258C4.7784 20.1732 4.53075 16.7762 4.53075 16.7762C4.53075 16.7762 4.20181 17.0219 3.56037 17.045C3.53687 17.0464 3.5162 17.0464 3.49411 17.0464C2.09845 17.0464 1.62571 15.5499 1.62571 15.5499H1.65391C1.91189 15.5499 3.98283 15.4891 5.44803 13.623L5.57246 13.4647C6.48362 12.3037 7.27253 11.2984 8.76472 10.8922L8.9212 10.8644L8.95457 10.7081C8.9978 10.4694 8.83474 10.2449 8.46397 10.0034C6.30939 8.58971 7.77272 6.78671 7.77272 6.78671C7.77272 6.78671 8.38456 8.22817 9.76518 8.22817C9.78155 8.22817 9.79747 8.22783 9.81366 8.22748L9.81374 8.22748C9.83051 8.22712 9.84758 8.22676 9.86574 8.22676L9.90281 8.22476C10.0452 8.21714 10.1861 8.20961 10.3253 8.18015L10.5791 8.13072C10.5791 8.13072 10.1848 7.06069 11.135 6.07869C11.8488 5.33725 12.7163 5.21108 13.2177 5.21108C13.4719 5.21108 13.6298 5.24356 13.6298 5.24356C13.1552 5.86685 12.8112 6.90157 13.3601 7.53992C13.544 7.75222 13.8303 7.88629 14.1123 8.01829C14.5587 8.22728 14.994 8.43107 14.994 8.93195C14.994 9.2789 14.6711 9.68281 14.0922 10.0453C12.3474 11.1459 10.6167 12.6067 9.89629 14.5627C8.9978 17.0031 10.0119 18.623 11.4597 19.5522C11.4597 19.5522 11.0044 19.9703 10.346 20.0239C10.2121 20.0367 10.0824 20.0428 9.95785 20.0428C8.57064 20.0428 7.85261 19.3903 7.85261 19.3903C7.85261 19.3903 7.97197 20.2918 8.69 21.1293C9.36105 21.9013 10.2351 22.357 11.5711 22.3758C11.5711 22.3758 11.6134 22.9963 11.0227 23.5334C10.6435 23.8733 9.76988 23.983 9.76988 23.983C9.76988 23.983 11.4071 24.3154 11.5871 26.7355C11.6848 28.0475 12.017 28.5032 12.017 28.5032H11.9898ZM12.3934 28.2424L12.3919 28.2398C12.3704 28.2027 12.1235 27.7772 12.0419 26.7031C11.9428 25.3605 11.4362 24.5771 10.9357 24.1271C11.0805 24.0583 11.2144 23.9741 11.3272 23.8714C12.0621 23.2096 12.0311 22.4309 12.026 22.3462L11.9978 21.9263L11.5767 21.9197C10.4555 21.9013 9.67213 21.5657 9.0368 20.828C8.88925 20.6548 8.76989 20.482 8.67309 20.3135C9.02271 20.4203 9.4508 20.4999 9.95785 20.4999C10.0937 20.4999 10.2351 20.4919 10.3845 20.482C11.174 20.4142 11.7083 19.9434 11.7675 19.8912L12.2045 19.4892L11.7059 19.1681C10.5899 18.4535 9.44939 17.0982 10.3253 14.7218C10.893 13.1768 12.2045 11.7772 14.3366 10.436C15.056 9.98033 15.4498 9.44414 15.4498 8.93195C15.4498 8.14061 14.79 7.82849 14.306 7.60583L14.2628 7.58519C14.0406 7.4791 13.8171 7.37235 13.705 7.24193C13.33 6.80695 13.6458 5.97371 13.994 5.52225L14.4404 4.93663L13.7177 4.79352L13.7022 4.79126C13.648 4.78296 13.4713 4.75586 13.2177 4.75586C12.6782 4.75586 11.6481 4.88673 10.807 5.75951C10.1059 6.48589 10.0138 7.25841 10.0499 7.75788C9.99643 7.76235 9.94262 7.76505 9.88689 7.76785L9.88686 7.76785L9.84225 7.77012H9.76518C8.70974 7.77012 8.21116 6.65019 8.19189 6.60641L7.89537 5.90686L7.41464 6.49672L7.41114 6.5013C7.35143 6.57889 6.69031 7.43803 6.85685 8.5078C6.9701 9.23841 7.42827 9.86782 8.21445 10.3857C8.29997 10.4407 8.35965 10.4878 8.40241 10.5269C6.92424 11.008 6.09739 12.0608 5.22713 13.1688L5.21683 13.182L5.09089 13.3401C3.75538 15.0429 1.86443 15.0932 1.6384 15.0932L0.994141 15.073L1.1901 15.6873C1.21312 15.7622 1.78313 17.5044 3.49411 17.5044L3.57635 17.5021C3.75773 17.4969 3.91986 17.472 4.06412 17.4442C3.99363 18.3942 3.64448 20.1506 2.07213 20.8045L1.59188 21.0031L1.85174 21.4565L1.85229 21.4574C1.88416 21.5105 2.46876 22.4851 3.7817 22.4851C4.35923 22.4832 4.80847 22.3387 5.14446 22.164C5.19522 22.5938 5.30095 23.146 5.50724 23.7632C5.97853 25.168 5.55313 26.1597 5.52425 26.2271L5.52322 26.2295L5.28685 26.7275L5.82068 26.8692C5.85592 26.8782 6.1844 26.961 6.57255 26.961C6.75394 26.961 6.9217 26.9413 7.07348 26.9055C7.47808 26.8099 7.79105 26.6301 8.02883 26.4253C8.17356 26.8721 8.42215 27.3767 8.85354 27.8235C9.58708 28.579 10.642 28.9599 12.0203 28.9599L12.8554 28.9486L12.3934 28.2424ZM5.41717 10.0499C5.09669 10.0499 4.72592 10.1591 4.37348 10.5221C3.27293 11.643 2.24851 11.7056 2.24851 11.7056C2.43319 12.1189 2.97406 12.4809 3.5328 12.4809C3.66249 12.4809 3.79266 12.4621 3.91813 12.4174C4.26803 12.2991 4.51497 11.9936 4.80963 11.6291C5.15449 11.2024 5.56471 10.6949 6.28182 10.3121C6.28182 10.3121 5.90918 10.0499 5.41717 10.0499ZM4.06428 12.8509C3.8951 12.9088 3.71607 12.9361 3.5328 12.9361C2.8204 12.9361 2.10471 12.4988 1.83169 11.8934L1.56055 11.2861L2.22125 11.2471C2.2518 11.2461 3.10047 11.1684 4.04783 10.1996C4.43692 9.80183 4.90872 9.59375 5.41717 9.59375C6.01335 9.59375 6.45931 9.88032 6.53711 9.93032L6.54451 9.93505L7.15399 10.3644L6.49752 10.717C5.86424 11.0547 5.49752 11.507 5.17187 11.9086L5.16436 11.9179L5.15469 11.9298C4.83821 12.3209 4.53644 12.6939 4.06428 12.8509ZM6.51585 18.241C6.44489 16.5199 6.88614 15.1251 7.57645 13.975C7.19159 15.1726 7.24375 16.639 8.55483 18.0084C8.55483 18.0084 5.94772 14.8798 9.59288 11.6725C10.6279 10.8055 11.7323 10.1741 12.5796 9.68975L12.5796 9.68974C12.9252 9.49214 13.2281 9.319 13.4659 9.16432C10.4994 10.1341 9.05059 9.06641 9.05059 9.06641C9.99701 9.88929 11.2244 9.87517 11.9852 9.75654L11.9487 9.77441C11.7539 9.86973 11.5497 9.96961 11.3335 10.087C8.8302 11.4484 6.58305 13.6888 6.19771 16.7911V16.7675C5.61642 19.8138 4.32227 20.5957 4.32227 20.5957C5.35186 20.0868 6.00035 18.7367 6.15824 18.2504C6.33023 20.9281 7.63425 22.7857 9.15914 24.5746C9.95049 25.502 10.2291 26.4035 10.2291 26.4035C10.2291 26.4035 10.0745 25.3819 9.38752 24.5506C7.96696 22.8384 6.61547 20.7059 6.51585 18.241ZM16.4967 5.78082L19.0037 6.77318L21.5117 5.78082C21.2993 5.27523 20.3162 4.84496 19.0037 4.84354C17.6931 4.84496 16.71 5.27523 16.4967 5.78082ZM19.1879 10.7713L20.873 9.88159L21.4745 6.3914L19.1879 7.16909V10.7713ZM22.6874 11.2859L21.9167 10.8377L21.1249 10.3834L19.0098 11.5372L19.0037 11.5325L18.9999 11.5372L16.8844 10.3834L16.0926 10.8377L15.3205 11.2859H15.3116L15.1161 11.3993C15.5517 11.5198 15.883 11.7354 16.1635 12.0221C16.1681 12.0265 16.1723 12.0312 16.1765 12.036C16.1827 12.043 16.1891 12.0501 16.1969 12.0565C16.2589 12.1233 16.32 12.1958 16.3797 12.2693L16.3822 12.2723C16.3953 12.288 16.4073 12.3025 16.4206 12.3211C16.4751 12.3936 16.5296 12.4708 16.5832 12.5494C16.5898 12.5582 16.5963 12.568 16.603 12.5781C16.6081 12.5859 16.6134 12.5939 16.6189 12.6016C16.6823 12.6981 16.7425 12.7975 16.8021 12.9001C17.3501 13.8473 18.226 14.4131 19.0037 14.4145C19.7824 14.4131 20.6578 13.8473 21.2067 12.9001C21.2673 12.7946 21.3289 12.693 21.3923 12.5974C21.4017 12.5837 21.412 12.5696 21.421 12.5555C21.4745 12.4741 21.5314 12.395 21.5906 12.3182C21.5982 12.3081 21.6057 12.2986 21.6127 12.2895L21.6263 12.2721C21.6874 12.1958 21.7509 12.1224 21.8148 12.0541C21.8193 12.0498 21.8235 12.0454 21.8276 12.0413C21.8335 12.0352 21.8392 12.0293 21.8453 12.024C22.1244 11.7378 22.4567 11.5198 22.8918 11.3993L22.6982 11.2859H22.6874ZM24.6413 15.4831C24.6413 14.9921 24.7842 14.4983 24.9566 14.0421H21.0027C20.397 14.6438 19.8162 14.8669 19.2969 14.9187C19.2029 14.9281 19.1076 14.9342 19.0112 14.9342H18.9981C18.9013 14.9342 18.8054 14.9281 18.7114 14.9187C18.6207 14.9107 18.5258 14.8961 18.4304 14.874C18.3966 15.01 18.3533 15.292 18.4765 15.5613C18.5869 15.8042 18.8101 15.9854 19.1353 16.106L19.2448 16.1483L19.2467 16.2665C19.2467 16.3018 19.2725 17.0686 20.1057 17.2814L20.1381 17.2478L20.1382 17.2478L20.1384 17.2475C20.2613 17.1203 20.3725 17.005 20.4572 16.9077C20.2871 16.5056 20.3759 16.0961 20.6235 15.8946C20.6127 15.9369 20.5042 16.943 21.3082 17.3167L21.4412 17.3794L21.4017 17.5215C21.389 17.5634 21.1202 18.5369 22.0948 18.899L22.2668 18.9644L22.1907 19.1315C22.1733 19.1696 21.7922 20.0518 22.6916 20.5537H24.6427V19.0021C23.9491 18.9168 23.655 18.3581 23.5793 17.9626C23.2569 17.9075 23.0074 17.7673 22.8354 17.5399C22.47 17.0572 22.7125 16.611 22.7714 16.5026C22.7784 16.4897 22.7828 16.4816 22.7833 16.4788C22.7828 16.4835 22.7833 17.0098 23.1075 17.3346C23.2682 17.4909 23.459 17.6124 23.7461 17.6402L23.8885 17.6529L23.9007 17.7979C23.9035 17.8289 23.9816 18.5421 24.6427 18.6532L24.6413 15.4831ZM22.7367 26.7197L22.5187 27.857C23.8194 27.5364 24.6451 26.553 24.6451 25.1445L24.6427 20.8959H13.367V25.1445C13.367 26.8825 14.6226 27.9705 16.4751 27.9705C18.0225 27.9705 18.4304 28.0307 19.0061 28.6027C19.4027 28.2063 19.7307 28.058 20.4045 28.0034L20.42 27.937L20.7762 26.8373C20.756 26.8119 20.1752 26.151 20.1752 26.151C19.9445 26.2277 19.7504 26.24 19.4262 26.24C19.092 26.24 18.7156 26.2018 18.3073 26.1246C18.2659 26.1152 18.2279 26.1114 18.1893 26.1114C18.1391 26.1114 18.1362 26.1152 18.1226 26.1402L18.0521 26.2564L17.9229 26.4706L17.679 26.4146L16.5972 26.159L16.4488 26.4042L16.4708 26.4306L16.6024 26.5761L16.5437 26.7653C16.4647 27.0129 16.2063 27.3025 16.1273 27.3815L15.8571 27.6725L15.6109 27.3608L15.4257 27.1278C15.2307 26.9094 15.1861 26.5761 15.2956 26.2254C15.2928 26.2277 15.2885 26.2291 15.2843 26.2305L14.9793 26.3567L14.8421 26.0578L14.7458 25.8464C14.5794 25.4731 14.6405 24.9284 15.0883 24.5989L15.9591 24.1065L16.788 24.2694C16.7968 24.234 16.8076 24.1582 16.819 24.0784L16.819 24.0783L16.819 24.0783C16.8332 23.9784 16.8483 23.8723 16.8613 23.832C16.8556 23.8314 16.8501 23.8305 16.8446 23.8296L16.8446 23.8296C16.8345 23.828 16.8246 23.8264 16.8139 23.8264L16.3364 24.0048L15.8755 23.687C15.8755 23.687 15.6955 23.5124 15.8585 23.3391L16.3045 22.6622L15.1743 21.241L16.9116 21.9556L17.0268 21.8125L17.2612 21.531L17.5277 21.7842C17.6029 21.8572 17.6461 21.9466 17.6668 22.0361C18.1452 22.223 19.0037 22.7738 19.0794 23.6696L18.811 23.7774V23.7835C18.8731 23.8565 18.9233 23.8862 18.9389 23.8895L20.1794 24.0119C20.1997 24.0079 20.2235 24.0005 20.2498 23.9923L20.2499 23.9923C20.2639 23.9879 20.2787 23.9833 20.2941 23.9789C20.4482 23.9266 20.6785 23.8509 20.9534 23.8509C21.1771 23.8509 21.3923 23.9017 21.6009 23.9991C21.6771 23.9704 21.7711 23.9488 21.8801 23.9417L21.9393 23.9403C22.6026 23.9403 22.9334 24.436 23.1979 24.8321L23.1987 24.8333C23.2428 24.9025 23.2861 24.9666 23.3321 25.031C23.5643 25.3587 23.8669 25.8375 23.8791 25.8586L24.0154 26.0728L23.8486 26.2677C23.7198 26.4174 23.5257 26.5925 23.193 26.5925C23.1249 26.5925 23.0502 26.5845 22.9684 26.569C22.8979 26.5558 22.8335 26.5351 22.7715 26.5092C22.7645 26.5577 22.755 26.6132 22.7459 26.6659L22.7459 26.666L22.7367 26.7197ZM15.6325 25.6016L15.5738 25.4547C15.5319 25.3587 15.5376 25.2551 15.6184 25.1986L16.0926 24.8705L16.8848 25.023C16.8848 25.023 16.7415 24.8432 16.7556 24.6027L15.999 24.4421L15.2857 24.8771C14.9793 25.1064 14.9577 25.4811 15.0587 25.7033L15.1537 25.9118C15.1537 25.9118 15.5935 25.7301 15.6325 25.6016ZM22.1564 27.9262L22.3993 26.6556C22.4266 26.5168 22.452 26.3308 22.452 26.3308C22.4376 26.3161 22.4201 26.2989 22.4002 26.2795L22.4002 26.2795C22.2908 26.1723 22.1109 25.9961 22.0027 25.7885C21.912 25.6142 21.8952 25.4837 21.8761 25.3362C21.8591 25.2041 21.8402 25.0584 21.7649 24.8555C21.7649 24.8555 21.8138 24.7557 21.9261 24.7557C21.944 24.7557 21.9628 24.7575 21.9816 24.7627C22.1297 24.8049 22.2308 25.0563 22.3449 25.3402C22.4994 25.7245 22.6779 26.1684 23.0295 26.2334C23.0896 26.2456 23.1446 26.2494 23.193 26.2494C23.3702 26.2494 23.4755 26.174 23.5887 26.0394C23.5887 26.0394 23.2814 25.5555 23.0516 25.2288C23.0031 25.1609 22.9564 25.0908 22.9098 25.0209L22.9097 25.0209C22.6622 24.6498 22.4186 24.2844 21.9393 24.2844C21.9261 24.2844 21.9097 24.2844 21.8956 24.2863C21.7086 24.2957 21.5925 24.3875 21.5925 24.3875C21.3627 24.2425 21.1475 24.1931 20.9534 24.1931C20.7345 24.1931 20.5454 24.2551 20.3998 24.3028L20.3998 24.3028C20.3088 24.3327 20.2348 24.3569 20.1813 24.3569H20.1762L18.906 24.2308C18.7072 24.2124 18.5498 24.0119 18.4934 23.9332C18.4793 23.9121 18.4718 23.8989 18.4718 23.8989V23.8988C18.4718 23.8645 18.4718 23.8292 18.4694 23.7972C18.4266 22.7568 17.6221 22.3115 17.3355 22.3044C17.3355 22.3044 17.3693 22.1067 17.2923 22.0309L17.0112 22.3717L16.0926 21.909L16.7486 22.6773L16.1931 23.3015C16.1231 23.373 16.132 23.4691 16.1612 23.5096L16.4008 23.7223L16.7053 23.5373C16.7204 23.526 16.7486 23.5227 16.7819 23.5227C16.8209 23.5227 16.8688 23.5274 16.9204 23.5324L16.9204 23.5324C16.9803 23.5381 17.0449 23.5444 17.1057 23.5444C17.2298 23.5444 17.3369 23.518 17.3501 23.4013C17.3386 23.5179 17.2979 23.6603 17.2533 23.8169C17.15 24.1789 17.0252 24.6164 17.1889 24.9844L17.3632 25.3827L16.2401 25.2203L15.7143 26.1096C15.5517 26.4057 15.5263 26.7258 15.6823 26.9004L15.8792 27.1471C15.8792 27.1471 16.1551 26.8543 16.2166 26.6608L16.1273 26.5629C16.0521 26.48 16.0559 26.4057 16.102 26.3167L16.4318 25.7697L17.7575 26.0822L17.828 25.9627C17.9177 25.8125 18.0474 25.7683 18.1893 25.7683C18.2481 25.7683 18.3078 25.7753 18.3703 25.7852C18.6165 25.8342 19.0211 25.8987 19.4262 25.8987C19.8707 25.8987 20.3124 25.8196 20.5469 25.5555C20.7932 25.9212 21.1688 26.1291 21.4662 26.2938C21.7491 26.4506 21.9614 26.5681 21.9242 26.7451L21.6677 27.9662C21.8368 27.9596 22.0004 27.9483 22.1564 27.9262ZM20.7603 27.9827C20.9017 27.977 21.0591 27.9747 21.2302 27.9747C21.2302 27.9747 21.6385 26.7794 21.6616 26.7418C21.4332 26.641 20.9581 26.3882 20.7748 26.2729C20.8143 26.3317 20.8718 26.3931 20.9296 26.4548L20.9297 26.4548C21.0501 26.5834 21.1715 26.713 21.1324 26.8218L20.7603 27.9827ZM15.7509 15.4954L15.6978 17.5135L15.9271 17.5488L16.4868 15.6117L16.203 15.0161L15.7509 15.4954ZM16.3233 18.4564C16.2298 18.3976 16.0968 18.294 16.023 18.1387C15.9384 17.9598 15.8172 17.876 15.64 17.876C15.4093 17.876 15.1631 18.0149 15.0569 18.0798C14.9723 18.5779 15.3388 19.0294 15.5846 19.1202C15.8068 19.2012 16.0775 19.2181 16.2161 19.2181L16.2211 19.2025C16.2255 19.1886 16.2307 19.1726 16.2354 19.1541C16.2476 19.1132 16.2589 19.0722 16.2683 19.0275C16.3064 18.8279 16.32 18.6024 16.3233 18.4564ZM19.6907 19.8202C20.0159 19.5929 20.9116 18.9376 21.2593 18.681C21.0065 18.311 20.9825 17.8722 21.0389 17.5634C20.873 17.4575 20.7471 17.3365 20.6461 17.2094C20.2749 17.615 19.5914 18.2824 19.3991 18.4701L19.3491 18.5191L19.2988 18.5704L16.6701 18.528C16.6682 18.7893 16.6259 19.011 16.585 19.1739C16.5785 19.2012 16.5709 19.2294 16.5634 19.2572L19.6907 19.8202ZM18.1 14.777C17.7504 14.649 17.3825 14.4164 17.0065 14.0421H13.0541C13.2237 14.4983 13.367 14.9921 13.367 15.4831V20.5537H22.1376C21.6992 20.1003 21.7057 19.5265 21.8171 19.1541C21.6898 19.0929 21.5845 19.0195 21.49 18.938C21.1475 19.1908 20.1019 19.9539 19.8279 20.146L19.7692 20.1851L16.328 19.5618H16.2575C16.1748 19.5618 16.054 19.5585 15.9224 19.543C15.8849 19.6983 15.7509 19.8047 15.5973 19.8047C15.5803 19.8047 15.5606 19.8033 15.5423 19.8C15.453 19.784 15.3745 19.7388 15.3228 19.663C15.2683 19.5891 15.2476 19.5006 15.2622 19.4097L15.2749 19.3353C14.9206 19.0849 14.593 18.5252 14.7378 17.9353L14.7519 17.8727L14.8022 17.8374C14.8092 17.8317 14.8684 17.7913 14.9577 17.7404L14.7077 17.7023C14.6142 17.6858 14.5512 17.5978 14.5653 17.5055C14.5818 17.4118 14.6696 17.3445 14.7617 17.3624L15.3576 17.4575L15.4121 15.3556L16.2988 14.4164L16.8519 15.5829L16.2683 17.6044L16.7946 17.6877C16.8872 17.7023 16.9502 17.7899 16.9361 17.8845C16.9224 17.9697 16.8505 18.0271 16.7678 18.0271C16.7589 18.0271 16.7495 18.0271 16.7406 18.0257L16.3125 17.9565C16.3151 17.9627 16.3184 17.9676 16.3217 17.9724C16.3254 17.9778 16.329 17.9832 16.3317 17.9904C16.3769 18.085 16.4788 18.1523 16.538 18.182L19.1611 18.2234C19.2725 18.1147 19.5479 17.8449 19.8312 17.5587C19.1851 17.3134 18.9511 16.7565 18.9116 16.3861C18.5507 16.2321 18.3012 16.0014 18.1635 15.702C17.9953 15.3306 18.0549 14.9578 18.1 14.777ZM18.8209 7.16909L16.5324 6.3914L17.1358 9.88159L18.8209 10.7713V7.16909ZM19.0089 4.28711C20.639 4.28711 22.116 5.07798 22.116 5.95689L22.0845 6.17296L21.4332 9.91596L22.0845 10.2963L23.7786 11.2859H23.7724C23.7724 11.2859 24.1535 11.4817 24.3269 11.6022C24.975 12.0504 25.1103 12.7043 24.7362 12.9745C24.6427 12.4411 24.2226 11.8842 23.4355 11.8842C22.8678 11.8842 22.4365 12.1756 22.0845 12.6172C21.9961 12.7283 21.9116 12.8469 21.8307 12.9745C21.733 13.1355 21.6348 13.2767 21.5375 13.4127H25.8965C25.5746 14.0577 25.2705 14.7408 25.2705 15.4831V25.1445C25.2705 27.4832 23.4778 28.5994 21.5347 28.5994C21.421 28.5994 21.3148 28.599 21.2152 28.5986H21.215C19.9986 28.5941 19.7679 28.5933 19.0061 29.3573C18.2408 28.5933 18.0102 28.5941 16.7945 28.5986C16.6949 28.599 16.5887 28.5994 16.4751 28.5994C14.5334 28.5994 12.7383 27.4832 12.7383 25.1445V15.4831C12.7383 14.7408 12.4338 14.0577 12.1133 13.4127H16.4708C16.3736 13.2767 16.2749 13.1355 16.1771 12.9745C16.0977 12.8469 16.0127 12.7283 15.9224 12.6172C15.5738 12.1775 15.141 11.8842 14.5738 11.8842C13.7857 11.8842 13.3651 12.4411 13.273 12.9745C12.899 12.7043 13.0357 12.0504 13.68 11.6022C13.8562 11.4817 14.2368 11.2859 14.2368 11.2859H14.2307L15.9224 10.2963L16.5761 9.91596L15.9253 6.17296L15.8928 5.95689C15.8928 5.07798 17.3698 4.28711 18.9999 4.28711H19.0089ZM17.767 8.31525C18.0221 8.51789 18.1801 8.56859 18.2128 8.57907L18.2181 8.58081L18.219 8.58123L18.3299 8.63254V8.05351L17.2891 7.61523C17.2891 7.61523 17.298 7.95088 17.767 8.31525ZM18.1465 11.9629V12.5782C18.3589 12.3197 18.7672 12.3724 18.7672 12.3724V13.2594C18.7672 13.2594 18.7536 13.6958 18.5985 13.8845H19.4843C19.3312 13.6958 19.3161 13.2594 19.3161 13.2594V12.3724C19.3161 12.3724 19.7259 12.3197 19.9364 12.5782V11.9629H18.1465ZM20.7206 7.61523C20.7206 7.61523 20.7116 7.95088 20.2412 8.31525C19.9853 8.51881 19.8275 8.56904 19.7955 8.57922C19.7922 8.58029 19.7902 8.58091 19.7896 8.58123L19.6797 8.63254V8.05351L20.7206 7.61523ZM16.8557 22.846C16.8609 22.7827 16.914 22.7327 16.9784 22.7388C17.0442 22.7412 17.0902 22.7992 17.0883 22.8611C17.0822 22.9258 17.0272 22.974 16.9647 22.9688C16.8994 22.9674 16.8515 22.9116 16.8557 22.846Z" fill="black"/>
<path fill-rule="evenodd" clip-rule="evenodd" d="M130.016 12.4628V11.5H126.981V12.4628C123.172 12.5466 120.891 14.1582 120.891 17.0047C120.891 19.8513 123.172 21.3373 126.981 21.4211V22.5H130.016V21.4211C133.847 21.3373 136.063 19.8203 136.063 16.9737C136.063 14.1272 133.847 12.5466 130.016 12.4628ZM126.981 19.2862C124.888 19.2024 123.967 18.3443 123.967 17.0047C123.967 15.6652 124.888 14.7024 126.981 14.6187V19.2862ZM130.016 19.2862V14.6187C132.13 14.7024 132.997 15.6652 132.997 17.0047C132.997 18.3443 132.13 19.2024 130.016 19.2862ZM106.974 17.0328C106.974 14.0637 109.42 11.7637 113.497 11.7637C117.554 11.7637 120 14.0637 120 17.0328C120 20.0019 117.554 22.3019 113.497 22.3019C109.42 22.3019 106.974 20.0019 106.974 17.0328ZM110.173 17.0328C110.173 18.6637 111.469 19.8765 113.497 19.8765C115.505 19.8765 116.822 18.6637 116.822 17.0328C116.822 15.4019 115.505 14.2101 113.497 14.2101C111.469 14.2101 110.173 15.4019 110.173 17.0328ZM46.0059 12.0355L46 12.0355V14.9704H46.0059V15H50V22L51.718 21.9989L53.0014 22.0069V15H57V14.9704H57.0109L57 13.8103V12H56.983L56.983 11.9998L56.9098 12H46.0059V12.0355ZM61.0342 17.8274L66.2615 12.0355H68.9379V21.9883L65.9805 21.999L65.9749 16.1174L65.906 16.1965L60.6788 21.9883H58.0024V12.0355H61.0342V17.8274ZM73.9665 18.4691H78.9962V21.9883H81.977V12.0355H78.9962V15.9505H73.9665V12.0355H71.0018V21.9883H73.9665V18.4691ZM92.3546 21.7583C91.7691 21.9256 91.1418 21.9883 90.4518 21.9883H83.9628V12.0355H86.9947V14.7119H90.4518C91.2045 14.7119 91.9991 14.7328 92.6682 14.9837C94.0691 15.5065 94.9473 16.6565 94.9473 18.3083C94.9473 20.0438 93.9228 21.3193 92.3546 21.7583ZM89.9291 17.0538H86.9947V19.5838H89.9291C90.4518 19.5838 90.7864 19.5838 91.1209 19.4374C91.6018 19.2283 91.8946 18.7892 91.8946 18.2665C91.8946 17.7647 91.6018 17.3465 91.1 17.1792C90.7445 17.0538 90.3473 17.0538 89.9291 17.0538ZM98.9971 18.2246H99.6059L103.223 21.9883H107.259L102.22 16.8028L107.071 12.0355H103.265L99.6059 15.7783H98.9971V12.0355H95.9653V21.9883H98.9971V18.2246ZM146.003 11.5V12.4622C149.833 12.5459 152.05 14.1265 152.05 16.9731C152.05 19.8196 149.833 21.3367 146.003 21.4204V22.4993H142.968V21.4204C139.158 21.3367 136.877 19.8506 136.877 17.0041C136.877 14.1576 139.158 12.5459 142.968 12.4622V11.5H146.003ZM139.954 17.0041C139.954 18.3436 140.875 19.2018 142.968 19.2855V14.618C140.875 14.7017 139.954 15.6645 139.954 17.0041ZM146.003 14.618V19.2855C148.117 19.2018 148.983 18.3436 148.983 17.0041C148.983 15.6645 148.117 14.7017 146.003 14.618Z" fill="black"/>
</svg>
