<svg width="140" height="42" viewBox="0 0 140 42" fill="none" xmlns="http://www.w3.org/2000/svg">
<path fill-rule="evenodd" clip-rule="evenodd" d="M0 3.89652C0 1.74453 1.72588 0 3.8561 0H136.144C138.274 0 140 1.74433 140 3.89652V38.0974C140 40.2494 138.274 41.9939 136.144 41.9939H3.8561C1.72644 41.9939 0 40.2496 0 38.0974V3.89652Z" fill="white"/>
<path fill-rule="evenodd" clip-rule="evenodd" d="M53.7368 32.2507H56.0899L50.9389 17.8341H48.5562L43.4053 32.2507H45.6792L46.9941 28.4243H52.4318L53.7368 32.2507ZM49.6339 20.4516H49.802L51.8683 26.546H47.5577L49.6339 20.4516ZM62.329 21.191C60.8658 21.191 59.6003 21.9303 58.9477 23.1691H58.7896V21.3708H56.743V35.7775H58.8686V30.6022H59.0367C59.6003 31.7512 60.8163 32.4306 62.3488 32.4306C65.0676 32.4306 66.7978 30.2626 66.7978 26.8058C66.7978 23.349 65.0676 21.191 62.329 21.191ZM61.7259 30.5023C59.9463 30.5023 58.8291 29.0836 58.8291 26.8157C58.8291 24.5378 59.9463 23.1192 61.7358 23.1192C63.5352 23.1192 64.6128 24.5079 64.6128 26.8057C64.6128 29.1136 63.5352 30.5023 61.7259 30.5023ZM73.3532 21.191C71.89 21.191 70.6245 21.9303 69.972 23.1691H69.8138V21.3708H67.7673V35.7775H69.8929V30.6022H70.061C70.6245 31.7512 71.8406 32.4306 73.373 32.4306C76.0919 32.4306 77.822 30.2626 77.822 26.8058C77.822 23.349 76.0919 21.191 73.3532 21.191ZM72.7502 30.5023C70.9706 30.5023 69.8534 29.0836 69.8534 26.8157C69.8534 24.5378 70.9706 23.1192 72.76 23.1192C74.5594 23.1192 75.6371 24.5079 75.6371 26.8057C75.6371 29.1136 74.5594 30.5023 72.7502 30.5023ZM82.3217 28.3743C82.4799 30.9519 84.6055 32.6004 87.7692 32.6004C91.1505 32.6004 93.2662 30.872 93.2662 28.1145C93.2662 25.9465 92.0601 24.7476 89.1336 24.0583L87.5616 23.6686C85.7029 23.2291 84.9515 22.6396 84.9515 21.6106C84.9515 20.3118 86.1182 19.4625 87.8681 19.4625C89.5291 19.4625 90.6759 20.2918 90.8835 21.6205H93.0388C92.9103 19.1928 90.7946 17.4844 87.8978 17.4844C84.7835 17.4844 82.7073 19.1928 82.7073 21.7604C82.7073 23.8785 83.8838 25.1373 86.4642 25.7467L88.3031 26.1963C90.1915 26.6459 91.022 27.3053 91.022 28.4043C91.022 29.6831 89.7169 30.6122 87.9373 30.6122C86.0292 30.6122 84.7044 29.743 84.5165 28.3743H82.3217ZM95.0959 18.7332V21.4207H93.3262V23.2291H95.0959V29.3734C95.0959 31.4714 96.0351 32.3107 98.398 32.3107C98.8133 32.3107 99.1989 32.2607 99.535 32.2008V30.4124C99.2384 30.4424 99.0703 30.4624 98.7441 30.4624C97.6862 30.4624 97.2215 29.9628 97.2215 28.8239V23.2291H99.6339V21.4207H97.2215V18.7332H95.0959ZM104.904 30.5523C103.055 30.5523 102.017 29.1836 102.017 26.8058C102.017 24.4479 103.055 23.0692 104.904 23.0692C106.743 23.0692 107.791 24.4479 107.791 26.8058C107.791 29.1736 106.743 30.5523 104.904 30.5523ZM104.904 32.4605C108.048 32.4605 109.976 30.3325 109.976 26.8057C109.976 23.299 108.038 21.161 104.904 21.161C101.76 21.161 99.8223 23.299 99.8223 26.8057C99.8223 30.3325 101.75 32.4605 104.904 32.4605ZM110.945 32.2507H113.071V25.8267C113.071 24.2981 114.208 23.269 115.81 23.269C116.166 23.269 116.818 23.339 116.986 23.3989V21.2809C116.759 21.2209 116.353 21.191 116.047 21.191C114.643 21.191 113.457 21.9702 113.15 23.0392H112.992V21.3708H110.945V32.2507ZM121.772 22.9893C123.344 22.9893 124.372 24.0983 124.422 25.8067H118.984C119.103 24.1083 120.2 22.9893 121.772 22.9893ZM124.412 29.3134C124.016 30.1626 123.136 30.6322 121.851 30.6322C120.151 30.6322 119.053 29.4233 118.984 27.5151V27.3952H126.587V26.6459C126.587 23.2291 124.778 21.161 121.782 21.161C118.747 21.161 116.819 23.3689 116.819 26.8457C116.819 30.3225 118.707 32.4605 121.792 32.4605C124.254 32.4605 125.974 31.2616 126.458 29.3134H124.412Z" fill="black"/>
<path fill-rule="evenodd" clip-rule="evenodd" d="M45.3975 6.58094V13.446H47.8503C49.8747 13.446 51.047 12.1853 51.047 9.99207C51.047 7.83217 49.8653 6.58094 47.8503 6.58094H45.3975ZM46.452 7.55148H47.7326C49.1403 7.55148 49.9736 8.45541 49.9736 10.0064C49.9736 11.5811 49.1544 12.4755 47.7326 12.4755H46.452V7.55148ZM54.7578 12.6372C53.8774 12.6372 53.3831 11.9855 53.3831 10.8532C53.3831 9.73041 53.8774 9.07388 54.7578 9.07388C55.6335 9.07388 56.1325 9.73041 56.1325 10.8532C56.1325 11.9807 55.6335 12.6372 54.7578 12.6372ZM54.7578 13.5459C56.2549 13.5459 57.173 12.5326 57.173 10.8532C57.173 9.1833 56.2502 8.16519 54.7578 8.16519C53.2607 8.16519 52.3379 9.1833 52.3379 10.8532C52.3379 12.5326 53.256 13.5459 54.7578 13.5459ZM65.1068 8.2651H64.0946L63.1813 12.2186H63.1012L62.0466 8.2651H61.0768L60.0222 12.2186H59.9469L59.0288 8.2651H58.0025L59.4149 13.446H60.4554L61.5099 9.63051H61.59L62.6493 13.446H63.6991L65.1068 8.2651ZM66.393 13.446H67.4052V10.4155C67.4052 9.60672 67.9043 9.10242 68.7188 9.10242C69.472 9.10242 69.8392 9.51633 69.8392 10.3489V13.446H70.8515V10.092C70.8515 8.85979 70.2065 8.16519 69.0624 8.16519C68.2903 8.16519 67.6924 8.51249 67.4429 9.08815H67.3676V8.2651H66.393V13.446ZM72.5614 13.446H73.5736V6.24316H72.5614V13.446ZM77.4963 12.6372C76.6159 12.6372 76.1216 11.9855 76.1216 10.8532C76.1216 9.73041 76.6159 9.07388 77.4963 9.07388C78.3719 9.07388 78.871 9.73041 78.871 10.8532C78.871 11.9807 78.3719 12.6372 77.4963 12.6372ZM77.4962 13.5459C78.9933 13.5459 79.9114 12.5326 79.9114 10.8532C79.9114 9.1833 78.9886 8.16519 77.4962 8.16519C75.9991 8.16519 75.0764 9.1833 75.0764 10.8532C75.0764 12.5326 75.9944 13.5459 77.4962 13.5459ZM83.0431 12.6705C82.4923 12.6705 82.0921 12.3994 82.0921 11.9331C82.0921 11.4764 82.4123 11.2338 83.1185 11.1862L84.3708 11.1053V11.5383C84.3708 12.1805 83.8058 12.6705 83.0431 12.6705ZM82.7842 13.5317C83.4574 13.5317 84.0177 13.2367 84.3237 12.7181H84.4037V13.446H85.3783V9.90644C85.3783 8.81222 84.6533 8.16519 83.368 8.16519C82.2051 8.16519 81.3765 8.7361 81.273 9.62575H82.2522C82.3652 9.25942 82.756 9.05009 83.3209 9.05009C84.013 9.05009 84.3708 9.35933 84.3708 9.90644V10.3536L82.9819 10.4345C81.7626 10.5106 81.0752 11.0482 81.0752 11.9807C81.0752 12.9275 81.7955 13.5317 82.7842 13.5317ZM88.9337 13.5317C89.6399 13.5317 90.2378 13.1939 90.5438 12.6277H90.6239V13.446H91.5937V6.24316H90.5815V9.08815H90.5062C90.2284 8.51725 89.6352 8.17947 88.9337 8.17947C87.639 8.17947 86.8057 9.2166 86.8057 10.8532C86.8057 12.4945 87.6296 13.5317 88.9337 13.5317ZM89.2209 9.09767C90.0683 9.09767 90.6003 9.77799 90.6003 10.8579C90.6003 11.9427 90.0731 12.6135 89.2209 12.6135C88.3641 12.6135 87.8509 11.9522 87.8509 10.8532C87.8509 9.76372 88.3688 9.09767 89.2209 9.09767ZM98.3939 12.6372C97.5135 12.6372 97.0191 11.9855 97.0191 10.8532C97.0191 9.73041 97.5135 9.07388 98.3939 9.07388C99.2695 9.07388 99.7686 9.73041 99.7686 10.8532C99.7686 11.9807 99.2695 12.6372 98.3939 12.6372ZM98.3939 13.5459C99.891 13.5459 100.809 12.5326 100.809 10.8532C100.809 9.1833 99.8863 8.16519 98.3939 8.16519C96.8967 8.16519 95.974 9.1833 95.974 10.8532C95.974 12.5326 96.892 13.5459 98.3939 13.5459ZM102.265 13.446H103.277V10.4155C103.277 9.60672 103.776 9.10242 104.59 9.10242C105.344 9.10242 105.711 9.51633 105.711 10.3489V13.446H106.723V10.092C106.723 8.85979 106.078 8.16519 104.934 8.16519C104.162 8.16519 103.564 8.51249 103.315 9.08815H103.239V8.2651H102.265V13.446ZM111.621 7.00912V8.28889H110.779V9.15H111.621V12.0759C111.621 13.0749 112.069 13.4746 113.194 13.4746C113.392 13.4746 113.575 13.4508 113.735 13.4222V12.5706C113.594 12.5849 113.514 12.5944 113.359 12.5944C112.855 12.5944 112.634 12.3566 112.634 11.8142V9.15H113.782V8.28889H112.634V7.00912H111.621ZM115.224 13.446H116.236V10.4203C116.236 9.63526 116.749 9.10718 117.578 9.10718C118.34 9.10718 118.722 9.52584 118.722 10.3536V13.446H119.734V10.1015C119.734 8.86931 119.075 8.16995 117.921 8.16995C117.149 8.16995 116.556 8.51725 116.307 9.09767H116.227V6.24316H115.224V13.446ZM123.506 9.03582C124.255 9.03582 124.744 9.5639 124.768 10.3774H122.178C122.235 9.56866 122.757 9.03582 123.506 9.03582ZM124.763 12.0473C124.575 12.4517 124.156 12.6753 123.544 12.6753C122.734 12.6753 122.211 12.0996 122.178 11.191V11.1339H125.799V10.7771C125.799 9.15 124.937 8.16519 123.511 8.16519C122.065 8.16519 121.147 9.2166 121.147 10.8722C121.147 12.5278 122.047 13.5459 123.515 13.5459C124.688 13.5459 125.507 12.975 125.738 12.0473H124.763Z" fill="black"/>
<path fill-rule="evenodd" clip-rule="evenodd" d="M31.5488 21.0161C31.5177 17.5314 34.3724 15.836 34.5029 15.7571C32.8862 13.3752 30.3804 13.0497 29.4998 13.0238C27.3952 12.8 25.3538 14.2964 24.2817 14.2964C23.1882 14.2964 21.5372 13.0454 19.7579 13.0822C17.4682 13.1179 15.3262 14.4575 14.1514 16.5377C11.7269 20.7793 13.5351 27.0125 15.8579 30.4411C17.0199 32.1213 18.3777 33.995 20.1549 33.9291C21.8935 33.8577 22.543 32.8089 24.6412 32.8089C26.7201 32.8089 27.3299 33.9291 29.1424 33.8858C31.0084 33.8577 32.1832 32.2002 33.3046 30.5049C34.6473 28.5825 35.1866 26.6849 35.208 26.5876C35.1652 26.5736 31.5851 25.1929 31.5488 21.0161Z" fill="black"/>
<path fill-rule="evenodd" clip-rule="evenodd" d="M27.752 10.9494C28.6871 9.76763 29.327 8.15987 29.1494 6.52832C27.7959 6.58887 26.1032 7.47438 25.1285 8.6302C24.2661 9.6487 23.4957 11.3181 23.6948 12.888C25.2151 13.0026 26.7762 12.1128 27.752 10.9494Z" fill="black"/>
</svg>
