<?xml version="1.0" encoding="utf-8"?>
<!-- Generator: Adobe Illustrator 26.3.1, SVG Export Plug-In . SVG Version: 6.00 Build 0)  -->
<svg version="1.1" id="Layer_1" xmlns="http://www.w3.org/2000/svg" xmlns:xlink="http://www.w3.org/1999/xlink" x="0px" y="0px"
	 viewBox="0 0 545 154" style="enable-background:new 0 0 545 154;" xml:space="preserve">
<style type="text/css">
	.st0{fill:#FFFFFF;}
</style>
<g>
	<path class="st0" d="M0,123V26.1C0,8.7,11.8,1.4,31.1,1.4h95.3v15H27.6c-8,0-12.4,3.8-12.4,10.5V126c0,6.8,4.4,10.5,12.4,10.5
		h100.6v15H31.1C11.8,151.6,0,140.5,0,123z M20.2,29c0-5.6,2.1-7.7,8.2-7.7h97.9v15H35.4V59h73.4v15H20.2V29z M20.2,78.9h88.6v15
		H35.4v22.7h92.8v15H28.4c-6.1,0-8.2-2.1-8.2-7.7V78.9z"/>
	<path class="st0" d="M208.8,150.3c-2.1-3.7-3.3-7-4.4-9c-1.4-3.3-3.4-7.1-4.4-8.6c-1.8-4.2-3.3-6-4.4-8.8
		c-1.8-3.9-4.1-8.7-4.8-10.2c-0.4-1.1-4.4-8.4-6.3-13.3c-2-2.4-3.3-5.7-4.4-8.8c-2.1-2.7-2.9-5.4-4.8-8.6c-0.5-0.6-3.9-8.1-4.4-8.8
		c-1-1.6-3.7-7.1-4.6-9c-0.3-0.7-3.3-6.5-4.4-8.6c-0.8-1.7-3.5-6.8-4.6-8.4c-0.5-1.3-2.8-6.1-4.4-8.8c0,0.1-3.1-6.3-4.6-9.2
		c-2-3.9-6.7-14.3-8.8-17.6c-1.5-2.4-3.6-6.6-4.6-8.4c-0.6-1.3-0.7-2.3,1.1-2.3c3.2,0,6.6-0.1,9.9-0.2h11.2c1.5,0,4.9,0.2,8.2,0.2
		c0.7,0,2.5-0.2,3.1-0.2c-0.1,0,4.2,0.2,7,0.2c1.5,0,7.2-0.2,8.1-0.2c0.9,0,1.7,0,2.6-0.2c1.3,0,1.3,0,2.9,0.2
		c1.7-0.2,2.7,0.5,3,1.3c0.6,1.3,1.4,3,1.9,4.1c1.1,2.7,4.1,7.3,5.3,9.7c1.2,2.3,2.1,4.4,3,6.3c2.6,4.7,4.5,7.6,4.7,8.1
		c0.4,0.8,1.2,2.9,1.6,3.7c0.9,1.6,2,3.9,2.9,5.5l2.4-5c0.6-1.1,1.3-2.9,1.9-3.9c0.7-1.1,1.6-3.8,2.4-5.2l2.1-4.2
		c1-2,2.4-4.7,3.5-7.2c1.1-2.3,2.1-4,3.2-6.4c0.8-1.6,2.3-3.3,3-4.7c0.8-1.6,1-2,1.9-2s1.1,0,2.9-0.3c1.5,0,3.6,0.3,5,0.1
		c1.7,0,3.6,0,4.8-0.2c0.8,0.2,1.5,0.3,2.2,0.3c1,0,2.1-0.1,3-0.2c1.3,0,3.4,0.4,4.8,0.2c1.7,0.2,3.4-0.2,5.1,0
		c1.1,0,2.9-0.2,4.6-0.2h1.7c2.1,0,6.3,0,8,0.4c2-0.2,7.6-0.2,10.1-0.2c1.1,0,1.9,1.1,1,2.1c-0.4,1.5-1.3,3.4-1.9,4.9
		c-0.9,1.5-4.1,7.5-4.6,8.6c-0.8,1.6-3,5.4-4.6,8.6l-4.4,9c-0.8,1.7-3.8,7.1-4.8,8.8c-1.1,2.2-3.2,6.8-4,8.4
		c-1.6,2.2-3.8,7.7-4.6,9.2c-1.5,3.9-3.2,5.4-4.8,8.4c-0.9,2.3-3.3,6.7-4.2,9.2c-2.7,4.6-3.9,6.9-4.4,8.8c-0.7,0.7-3.7,6.5-4.4,8.8
		c-2,3.2-4.3,7.4-4.6,8.8c-1.4,1.2-3.2,6.6-4.4,8.3c-0.4,0.8-3.1,7.4-4.6,10.4c-2.2,4.5-4.9,9-7.1,13.5c-1.4,2.9-2.9,6.1-4,8.4
		c-1.5,3.2-2.9,5.8-3.8,5.8C209.9,151.7,209.4,151.2,208.8,150.3z"/>
	<path class="st0" d="M392.2,124.7V96.4c0-11.6-4.8-15.2-16.8-15.2h-21v66.3h18.7v3.8H294v-3.8h19V5.1h-18.9V1.4h83.1
		c36.8,0,59.6,9.2,59.6,39.1c0,23.1-19.4,34.4-43.8,37.4v0.9h6.9c25,0,33.9,10.7,33.9,33.6v27.2c0,2.3,0.8,3.9,3.2,3.9
		c7.1,0,12.8-15.8,12.8-31h3c0,23.1-7.8,41.5-34.5,41.5C398.3,154,392.2,143.5,392.2,124.7z M367.5,77.4c23.2,0,26.7-15,26.7-37
		s-3.4-35.3-26.7-35.3h-13v72.3C354.5,77.4,367.5,77.4,367.5,77.4z"/>
	<path class="st0" d="M474.7,142c1.7-0.5,2.7-1.3,2.7-3.8V75.1c0-2.7-0.5-3.5-3-3.9c-3.8-0.8-10-1.5-13.9-1.7v-6.8
		c12.2,0,51.3-5.4,61.5-7.3l2.1,2.4V138c0,2.3,0.6,3,2.9,3.8c2.7,0.8,8.3,2.2,11.8,2.8v7.7c-6.7-0.4-26.8-0.8-37.3-0.8
		c-11.8,0-31.2,0.4-37.6,0.8v-7.7C467.7,143.8,471.8,142.8,474.7,142z M500.4,0.2c19.4,0,30.7,11.5,30.7,24.6
		c0,13.7-11.2,23.7-30.7,23.7c-20.2,0-30.1-11.5-30.1-23.7C470.3,11.7,480.3,0.2,500.4,0.2z"/>
</g>
</svg>
