<svg width="211" height="28" viewBox="0 0 211 28" fill="none" xmlns="http://www.w3.org/2000/svg">
<rect x="121.5" y="0.5" width="39" height="27" rx="5.5" fill="white" stroke="#CCCCCC"/>
<path fill-rule="evenodd" clip-rule="evenodd" d="M132.314 17.7811H130.536C130.415 17.7811 130.311 17.8714 130.292 17.9939L129.573 22.6478C129.559 22.7397 129.629 22.8225 129.72 22.8225H130.569C130.69 22.8225 130.794 22.7322 130.813 22.6094L131.007 21.3542C131.025 21.2312 131.129 21.1411 131.251 21.1411H131.813C132.984 21.1411 133.66 20.5626 133.837 19.4162C133.916 18.9146 133.84 18.5205 133.61 18.2444C133.358 17.9415 132.909 17.7811 132.314 17.7811ZM132.519 19.4809C132.422 20.1321 131.935 20.1321 131.463 20.1321H131.195L131.383 18.9158C131.395 18.8424 131.457 18.7882 131.53 18.7882H131.653C131.974 18.7882 132.277 18.7882 132.433 18.975C132.526 19.0865 132.555 19.2521 132.519 19.4809ZM137.629 19.46H136.777C136.705 19.46 136.642 19.5142 136.631 19.5877L136.593 19.8308L136.534 19.7427C136.349 19.4696 135.938 19.3783 135.528 19.3783C134.587 19.3783 133.784 20.1057 133.627 21.1261C133.546 21.635 133.662 22.1217 133.944 22.4612C134.204 22.7732 134.575 22.9033 135.017 22.9033C135.775 22.9033 136.195 22.4056 136.195 22.4056L136.157 22.6472C136.143 22.7396 136.213 22.8223 136.303 22.8223H137.07C137.192 22.8223 137.295 22.7321 137.314 22.6093L137.774 19.6346C137.789 19.5431 137.72 19.46 137.629 19.46ZM136.442 21.1515C136.36 21.6481 135.974 21.9814 135.481 21.9814C135.234 21.9814 135.037 21.9004 134.91 21.747C134.784 21.5948 134.736 21.3779 134.776 21.1364C134.853 20.6441 135.245 20.3 135.73 20.3C135.972 20.3 136.168 20.3819 136.298 20.5366C136.428 20.693 136.479 20.9111 136.442 21.1515ZM141.307 19.4599H142.163C142.283 19.4599 142.353 19.597 142.285 19.6974L139.439 23.8903C139.393 23.9582 139.317 23.9986 139.236 23.9986H138.382C138.261 23.9986 138.191 23.8603 138.261 23.7597L139.147 22.483L138.204 19.6599C138.172 19.5618 138.243 19.4599 138.345 19.4599H139.186C139.295 19.4599 139.391 19.5331 139.423 19.6398L139.923 21.3448L141.103 19.5705C141.149 19.5013 141.226 19.4599 141.307 19.4599Z" fill="#253B80"/>
<path fill-rule="evenodd" clip-rule="evenodd" d="M150.583 22.6478L151.313 17.9088C151.324 17.8352 151.387 17.7811 151.459 17.7808H152.281C152.371 17.7808 152.441 17.8638 152.427 17.9557L151.707 22.6094C151.688 22.7322 151.585 22.8224 151.463 22.8224H150.729C150.639 22.8224 150.569 22.7397 150.583 22.6478ZM144.995 17.7811H143.217C143.096 17.7811 142.992 17.8713 142.973 17.9939L142.254 22.6478C142.24 22.7397 142.31 22.8224 142.401 22.8224H143.313C143.398 22.8224 143.47 22.7593 143.484 22.6733L143.688 21.3541C143.706 21.2312 143.81 21.1411 143.931 21.1411H144.494C145.665 21.1411 146.341 20.5625 146.518 19.4161C146.598 18.9146 146.521 18.5205 146.291 18.2444C146.038 17.9415 145.591 17.7811 144.995 17.7811ZM145.201 19.4808C145.104 20.1321 144.616 20.1321 144.145 20.1321H143.877L144.065 18.9158C144.076 18.8424 144.138 18.7882 144.211 18.7882H144.334C144.655 18.7882 144.958 18.7882 145.114 18.975C145.208 19.0865 145.236 19.2521 145.201 19.4808ZM150.309 19.46H149.459C149.386 19.46 149.323 19.5141 149.312 19.5877L149.275 19.8307L149.215 19.7427C149.031 19.4695 148.62 19.3783 148.21 19.3783C147.269 19.3783 146.466 20.1057 146.309 21.1261C146.228 21.635 146.343 22.1217 146.626 22.4611C146.886 22.7732 147.257 22.9032 147.698 22.9032C148.456 22.9032 148.877 22.4056 148.877 22.4056L148.839 22.6472C148.825 22.7395 148.894 22.8223 148.986 22.8223H149.752C149.873 22.8223 149.977 22.732 149.996 22.6092L150.456 19.6346C150.47 19.5431 150.401 19.46 150.309 19.46ZM149.123 21.1515C149.041 21.648 148.655 21.9813 148.162 21.9813C147.915 21.9813 147.717 21.9004 147.591 21.747C147.465 21.5947 147.417 21.3778 147.457 21.1364C147.534 20.6441 147.926 20.3 148.411 20.3C148.653 20.3 148.849 20.3819 148.979 20.5366C149.109 20.6929 149.16 20.9111 149.123 21.1515Z" fill="#179BD7"/>
<path d="M138.894 16.1162L139.112 14.699L138.625 14.6874H136.301L137.916 4.22963C137.921 4.19806 137.938 4.16862 137.961 4.14772C137.985 4.12682 138.016 4.1153 138.048 4.1153H141.968C143.269 4.1153 144.167 4.39175 144.636 4.9374C144.856 5.19338 144.996 5.46086 145.064 5.75523C145.134 6.06412 145.136 6.43314 145.066 6.88323L145.061 6.91608V7.20447L145.281 7.33161C145.466 7.43186 145.613 7.54662 145.726 7.67802C145.914 7.89688 146.036 8.17504 146.087 8.50481C146.14 8.84398 146.123 9.24756 146.036 9.70448C145.936 10.2301 145.774 10.6878 145.555 11.0624C145.353 11.4076 145.096 11.6938 144.792 11.9157C144.501 12.1264 144.155 12.2864 143.765 12.3889C143.386 12.4894 142.954 12.5403 142.481 12.5403H142.176C141.958 12.5403 141.746 12.6205 141.579 12.7643C141.413 12.911 141.302 13.1114 141.268 13.3308L141.245 13.4584L140.859 15.9562L140.842 16.0479C140.837 16.077 140.829 16.0915 140.817 16.1013C140.807 16.1102 140.792 16.1162 140.777 16.1162H138.894Z" fill="#253B80"/>
<path d="M145.489 6.94949C145.478 7.02585 145.464 7.10392 145.449 7.18413C144.932 9.89361 143.164 10.8296 140.905 10.8296H139.755C139.478 10.8296 139.246 11.0344 139.203 11.3126L138.614 15.1249L138.447 16.2055C138.419 16.3881 138.557 16.5528 138.737 16.5528H140.777C141.019 16.5528 141.224 16.3736 141.262 16.1304L141.282 16.0246L141.666 13.5365L141.691 13.4001C141.728 13.156 141.934 12.9769 142.176 12.9769H142.481C144.457 12.9769 146.004 12.1577 146.456 9.78738C146.645 8.79719 146.547 7.9704 146.048 7.38891C145.896 7.21356 145.709 7.06808 145.489 6.94949Z" fill="#179BD7"/>
<path d="M144.948 6.72954C144.869 6.70607 144.788 6.68474 144.704 6.66554C144.62 6.64678 144.534 6.63014 144.446 6.61563C144.135 6.56443 143.796 6.54012 143.432 6.54012H140.359C140.284 6.54012 140.212 6.5576 140.147 6.58918C140.006 6.65871 139.9 6.79567 139.875 6.96332L139.221 11.1895L139.202 11.3127C139.245 11.0346 139.478 10.8298 139.754 10.8298H140.905C143.163 10.8298 144.932 9.89337 145.449 7.18432C145.464 7.10411 145.477 7.02604 145.489 6.94968C145.358 6.87886 145.217 6.81828 145.064 6.76665C145.027 6.75385 144.988 6.74148 144.948 6.72954Z" fill="#222D65"/>
<path d="M139.875 6.96323C139.9 6.79556 140.006 6.65862 140.147 6.5895C140.212 6.55793 140.284 6.54044 140.359 6.54044H143.432C143.796 6.54044 144.136 6.56476 144.446 6.61596C144.534 6.63046 144.62 6.6471 144.704 6.66587C144.788 6.68507 144.87 6.7064 144.949 6.72986C144.988 6.74181 145.027 6.75418 145.065 6.76656C145.217 6.81817 145.359 6.87918 145.49 6.94958C145.644 5.94829 145.488 5.26655 144.958 4.64922C144.374 3.96962 143.318 3.67866 141.968 3.67866H138.048C137.772 3.67866 137.537 3.88343 137.494 4.16202L135.861 14.7273C135.829 14.9363 135.987 15.125 136.194 15.125H138.614L139.221 11.1894L139.875 6.96323Z" fill="#253B80"/>
<rect x="71.5" y="0.5" width="39" height="27" rx="5.5" fill="white" stroke="#CCCCCC"/>
<path fill-rule="evenodd" clip-rule="evenodd" d="M89.8915 18.3844V14.86H91.6734C92.4036 14.86 93.0199 14.6102 93.5223 14.1176L93.6429 13.9927C94.5607 12.9728 94.5004 11.3841 93.5223 10.4405C93.0333 9.94099 92.3634 9.67041 91.6734 9.68429H88.813V18.3844H89.8915ZM89.8916 13.7915V10.7527H91.7006C92.0892 10.7527 92.4577 10.9053 92.7324 11.1829C93.3153 11.7656 93.3287 12.7369 92.7659 13.3405C92.4912 13.6389 92.1026 13.8054 91.7006 13.7915H89.8916ZM98.6738 12.8965C98.2116 12.4595 97.5819 12.2374 96.7847 12.2374C95.7598 12.2374 94.9894 12.626 94.4803 13.3961L95.4315 14.0135C95.7799 13.4863 96.2555 13.2226 96.8584 13.2226C97.2403 13.2226 97.6087 13.3683 97.8968 13.632C98.1781 13.8817 98.3389 14.2425 98.3389 14.6241V14.8808C97.9235 14.6449 97.401 14.52 96.7579 14.52C96.0077 14.52 95.4048 14.7004 94.9559 15.0681C94.5071 15.4358 94.2793 15.9215 94.2793 16.5389C94.2659 17.1009 94.5004 17.6351 94.9157 17.9959C95.3378 18.3844 95.8737 18.5787 96.5034 18.5787C97.247 18.5787 97.8365 18.2387 98.2853 17.5588H98.3322V18.3844H99.3638V14.7143C99.3638 13.9442 99.1361 13.3336 98.6738 12.8965ZM95.7466 17.2882C95.5255 17.1217 95.3915 16.8511 95.3915 16.5597C95.3915 16.2337 95.5389 15.9631 95.827 15.748C96.1218 15.5329 96.4903 15.4219 96.9258 15.4219C97.5288 15.415 97.9978 15.5537 98.3328 15.8313C98.3328 16.303 98.1519 16.7124 97.7968 17.0593C97.4752 17.3923 97.0397 17.5796 96.5841 17.5796C96.2826 17.5865 95.9878 17.4825 95.7466 17.2882ZM101.682 21L105.286 12.4317H104.113L102.445 16.7054H102.425L100.717 12.4317H99.5447L101.909 18.0028L100.57 21H101.682Z" fill="#3C4043"/>
<path d="M86.168 14.0968C86.168 13.7568 86.1412 13.4169 86.0876 13.0839H81.5391V15.0056H84.1449C84.0378 15.6231 83.6894 16.1782 83.1803 16.525V17.7739H84.7344C85.6455 16.9066 86.168 15.6231 86.168 14.0968Z" fill="#4285F4"/>
<path d="M81.5393 18.9811C82.8389 18.9811 83.9376 18.537 84.7347 17.7739L83.1806 16.525C82.7451 16.8303 82.1891 17.0038 81.5393 17.0038C80.2799 17.0038 79.2148 16.1227 78.833 14.9432H77.2319V16.2337C78.0492 17.9196 79.7172 18.9811 81.5393 18.9811Z" fill="#34A853"/>
<path d="M78.8331 14.9432C78.6321 14.3258 78.6321 13.6528 78.8331 13.0284V11.7449H77.2318C76.5417 13.1532 76.5417 14.8183 77.2318 16.2267L78.8331 14.9432Z" fill="#FBBC04"/>
<path d="M81.5393 10.9678C82.2293 10.9539 82.8925 11.2245 83.3882 11.7171L84.7682 10.2879C83.8907 9.44147 82.7384 8.97663 81.5393 8.9905C79.7172 8.9905 78.0492 10.0589 77.2319 11.7448L78.833 13.0353C79.2148 11.8489 80.2799 10.9678 81.5393 10.9678Z" fill="#EA4335"/>
<rect x="171.5" y="0.5" width="39" height="27" rx="5.5" fill="white" stroke="#CCCCCC"/>
<path fill-rule="evenodd" clip-rule="evenodd" d="M185.376 5.71667C184.713 5.71667 184.176 6.26512 184.176 6.94167V14.2917C184.176 14.9682 184.713 15.5167 185.376 15.5167H197.376C198.038 15.5167 198.576 14.9682 198.576 14.2917V6.94167C198.576 6.26512 198.038 5.71667 197.376 5.71667H185.376ZM184.976 6.94167C184.976 6.71615 185.155 6.53333 185.376 6.53333H197.376C197.596 6.53333 197.776 6.71615 197.776 6.94167L197.776 7.35H184.976V6.94167ZM184.976 9.8V14.2917C184.976 14.5172 185.155 14.7 185.376 14.7H197.376C197.596 14.7 197.776 14.5172 197.776 14.2917L197.776 9.8H184.976Z" fill="black"/>
<path d="M177.443 19.67C177.323 19.514 177.171 19.394 176.987 19.31C176.803 19.226 176.613 19.184 176.417 19.184C176.177 19.184 175.959 19.23 175.763 19.322C175.571 19.41 175.405 19.532 175.265 19.688C175.129 19.844 175.023 20.028 174.947 20.24C174.871 20.448 174.833 20.672 174.833 20.912C174.833 21.136 174.869 21.348 174.941 21.548C175.013 21.748 175.117 21.924 175.253 22.076C175.389 22.228 175.555 22.348 175.751 22.436C175.947 22.524 176.169 22.568 176.417 22.568C176.661 22.568 176.875 22.518 177.059 22.418C177.243 22.318 177.399 22.178 177.527 21.998L178.013 22.364C177.981 22.408 177.925 22.472 177.845 22.556C177.765 22.636 177.659 22.718 177.527 22.802C177.395 22.882 177.235 22.952 177.047 23.012C176.863 23.076 176.649 23.108 176.405 23.108C176.069 23.108 175.765 23.044 175.493 22.916C175.225 22.788 174.995 22.62 174.803 22.412C174.615 22.204 174.471 21.97 174.371 21.71C174.271 21.446 174.221 21.18 174.221 20.912C174.221 20.584 174.275 20.282 174.383 20.006C174.491 19.726 174.641 19.486 174.833 19.286C175.029 19.082 175.263 18.924 175.535 18.812C175.807 18.7 176.107 18.644 176.435 18.644C176.715 18.644 176.989 18.698 177.257 18.806C177.529 18.914 177.751 19.08 177.923 19.304L177.443 19.67ZM178.571 20.156H179.111V20.594H179.123C179.159 20.518 179.207 20.45 179.267 20.39C179.327 20.326 179.393 20.272 179.465 20.228C179.541 20.184 179.623 20.15 179.711 20.126C179.799 20.098 179.887 20.084 179.975 20.084C180.063 20.084 180.143 20.096 180.215 20.12L180.191 20.702C180.147 20.69 180.103 20.68 180.059 20.672C180.015 20.664 179.971 20.66 179.927 20.66C179.663 20.66 179.461 20.734 179.321 20.882C179.181 21.03 179.111 21.26 179.111 21.572V23H178.571V20.156ZM181.095 21.776C181.095 21.9 181.121 22.014 181.173 22.118C181.229 22.218 181.301 22.304 181.389 22.376C181.477 22.448 181.579 22.504 181.695 22.544C181.811 22.584 181.931 22.604 182.055 22.604C182.223 22.604 182.369 22.566 182.493 22.49C182.617 22.41 182.731 22.306 182.835 22.178L183.243 22.49C182.943 22.878 182.523 23.072 181.983 23.072C181.759 23.072 181.555 23.034 181.371 22.958C181.191 22.882 181.037 22.778 180.909 22.646C180.785 22.51 180.689 22.352 180.621 22.172C180.553 21.988 180.519 21.79 180.519 21.578C180.519 21.366 180.555 21.17 180.627 20.99C180.703 20.806 180.805 20.648 180.933 20.516C181.065 20.38 181.221 20.274 181.401 20.198C181.581 20.122 181.777 20.084 181.989 20.084C182.241 20.084 182.453 20.128 182.625 20.216C182.801 20.304 182.945 20.42 183.057 20.564C183.169 20.704 183.249 20.864 183.297 21.044C183.349 21.22 183.375 21.4 183.375 21.584V21.776H181.095ZM182.799 21.344C182.795 21.224 182.775 21.114 182.739 21.014C182.707 20.914 182.657 20.828 182.589 20.756C182.521 20.68 182.435 20.622 182.331 20.582C182.231 20.538 182.113 20.516 181.977 20.516C181.845 20.516 181.723 20.542 181.611 20.594C181.503 20.642 181.411 20.706 181.335 20.786C181.259 20.866 181.199 20.956 181.155 21.056C181.115 21.152 181.095 21.248 181.095 21.344H182.799ZM186.871 23H186.331V22.592H186.319C186.215 22.744 186.071 22.862 185.887 22.946C185.707 23.03 185.521 23.072 185.329 23.072C185.109 23.072 184.909 23.034 184.729 22.958C184.553 22.882 184.401 22.776 184.273 22.64C184.149 22.504 184.053 22.346 183.985 22.166C183.917 21.986 183.883 21.79 183.883 21.578C183.883 21.366 183.917 21.17 183.985 20.99C184.053 20.806 184.149 20.648 184.273 20.516C184.401 20.38 184.553 20.274 184.729 20.198C184.909 20.122 185.109 20.084 185.329 20.084C185.533 20.084 185.725 20.128 185.905 20.216C186.085 20.3 186.223 20.416 186.319 20.564H186.331V18.464H186.871V23ZM185.395 22.568C185.539 22.568 185.669 22.544 185.785 22.496C185.901 22.444 185.999 22.376 186.079 22.292C186.159 22.204 186.221 22.1 186.265 21.98C186.309 21.856 186.331 21.722 186.331 21.578C186.331 21.434 186.309 21.302 186.265 21.182C186.221 21.058 186.159 20.954 186.079 20.87C185.999 20.782 185.901 20.714 185.785 20.666C185.669 20.614 185.539 20.588 185.395 20.588C185.251 20.588 185.121 20.614 185.005 20.666C184.889 20.714 184.791 20.782 184.711 20.87C184.631 20.954 184.569 21.058 184.525 21.182C184.481 21.302 184.459 21.434 184.459 21.578C184.459 21.722 184.481 21.856 184.525 21.98C184.569 22.1 184.631 22.204 184.711 22.292C184.791 22.376 184.889 22.444 185.005 22.496C185.121 22.544 185.251 22.568 185.395 22.568ZM187.731 20.156H188.271V23H187.731V20.156ZM187.605 19.136C187.605 19.028 187.643 18.936 187.719 18.86C187.799 18.78 187.893 18.74 188.001 18.74C188.109 18.74 188.201 18.78 188.277 18.86C188.357 18.936 188.397 19.028 188.397 19.136C188.397 19.244 188.357 19.338 188.277 19.418C188.201 19.494 188.109 19.532 188.001 19.532C187.893 19.532 187.799 19.494 187.719 19.418C187.643 19.338 187.605 19.244 187.605 19.136ZM190.654 20.624H189.88V21.914C189.88 21.994 189.882 22.074 189.886 22.154C189.89 22.23 189.904 22.3 189.928 22.364C189.956 22.424 189.996 22.474 190.048 22.514C190.104 22.55 190.184 22.568 190.288 22.568C190.352 22.568 190.418 22.562 190.486 22.55C190.554 22.538 190.616 22.516 190.672 22.484V22.976C190.608 23.012 190.524 23.036 190.42 23.048C190.32 23.064 190.242 23.072 190.186 23.072C189.978 23.072 189.816 23.044 189.7 22.988C189.588 22.928 189.504 22.852 189.448 22.76C189.396 22.668 189.364 22.566 189.352 22.454C189.344 22.338 189.34 22.222 189.34 22.106V20.624H188.716V20.156H189.34V19.358H189.88V20.156H190.654V20.624ZM196.117 19.67C195.997 19.514 195.845 19.394 195.661 19.31C195.477 19.226 195.287 19.184 195.091 19.184C194.851 19.184 194.633 19.23 194.437 19.322C194.245 19.41 194.079 19.532 193.939 19.688C193.803 19.844 193.697 20.028 193.621 20.24C193.545 20.448 193.507 20.672 193.507 20.912C193.507 21.136 193.543 21.348 193.615 21.548C193.687 21.748 193.791 21.924 193.927 22.076C194.063 22.228 194.229 22.348 194.425 22.436C194.621 22.524 194.843 22.568 195.091 22.568C195.335 22.568 195.549 22.518 195.733 22.418C195.917 22.318 196.073 22.178 196.201 21.998L196.687 22.364C196.655 22.408 196.599 22.472 196.519 22.556C196.439 22.636 196.333 22.718 196.201 22.802C196.069 22.882 195.909 22.952 195.721 23.012C195.537 23.076 195.323 23.108 195.079 23.108C194.743 23.108 194.439 23.044 194.167 22.916C193.899 22.788 193.669 22.62 193.477 22.412C193.289 22.204 193.145 21.97 193.045 21.71C192.945 21.446 192.895 21.18 192.895 20.912C192.895 20.584 192.949 20.282 193.057 20.006C193.165 19.726 193.315 19.486 193.507 19.286C193.703 19.082 193.937 18.924 194.209 18.812C194.481 18.7 194.781 18.644 195.109 18.644C195.389 18.644 195.663 18.698 195.931 18.806C196.203 18.914 196.425 19.08 196.597 19.304L196.117 19.67ZM197.257 20.504C197.409 20.364 197.585 20.26 197.785 20.192C197.985 20.12 198.185 20.084 198.385 20.084C198.593 20.084 198.771 20.11 198.919 20.162C199.071 20.214 199.195 20.284 199.291 20.372C199.387 20.46 199.457 20.562 199.501 20.678C199.549 20.79 199.573 20.908 199.573 21.032V22.484C199.573 22.584 199.575 22.676 199.579 22.76C199.583 22.844 199.589 22.924 199.597 23H199.117C199.105 22.856 199.099 22.712 199.099 22.568H199.087C198.967 22.752 198.825 22.882 198.661 22.958C198.497 23.034 198.307 23.072 198.091 23.072C197.959 23.072 197.833 23.054 197.713 23.018C197.593 22.982 197.487 22.928 197.395 22.856C197.307 22.784 197.237 22.696 197.185 22.592C197.133 22.484 197.107 22.36 197.107 22.22C197.107 22.036 197.147 21.882 197.227 21.758C197.311 21.634 197.423 21.534 197.563 21.458C197.707 21.378 197.873 21.322 198.061 21.29C198.253 21.254 198.457 21.236 198.673 21.236H199.069V21.116C199.069 21.044 199.055 20.972 199.027 20.9C198.999 20.828 198.957 20.764 198.901 20.708C198.845 20.648 198.775 20.602 198.691 20.57C198.607 20.534 198.507 20.516 198.391 20.516C198.287 20.516 198.195 20.526 198.115 20.546C198.039 20.566 197.969 20.592 197.905 20.624C197.841 20.652 197.783 20.686 197.731 20.726C197.679 20.766 197.629 20.804 197.581 20.84L197.257 20.504ZM198.781 21.632C198.653 21.632 198.521 21.64 198.385 21.656C198.253 21.668 198.131 21.694 198.019 21.734C197.911 21.774 197.821 21.83 197.749 21.902C197.681 21.974 197.647 22.066 197.647 22.178C197.647 22.342 197.701 22.46 197.809 22.532C197.921 22.604 198.071 22.64 198.259 22.64C198.407 22.64 198.533 22.616 198.637 22.568C198.741 22.516 198.825 22.45 198.889 22.37C198.953 22.29 198.999 22.202 199.027 22.106C199.055 22.006 199.069 21.908 199.069 21.812V21.632H198.781ZM200.356 20.156H200.896V20.594H200.908C200.944 20.518 200.992 20.45 201.052 20.39C201.112 20.326 201.178 20.272 201.25 20.228C201.326 20.184 201.408 20.15 201.496 20.126C201.584 20.098 201.672 20.084 201.76 20.084C201.848 20.084 201.928 20.096 202 20.12L201.976 20.702C201.932 20.69 201.888 20.68 201.844 20.672C201.8 20.664 201.756 20.66 201.712 20.66C201.448 20.66 201.246 20.734 201.106 20.882C200.966 21.03 200.896 21.26 200.896 21.572V23H200.356V20.156ZM205.322 23H204.782V22.592H204.77C204.666 22.744 204.522 22.862 204.338 22.946C204.158 23.03 203.972 23.072 203.78 23.072C203.56 23.072 203.36 23.034 203.18 22.958C203.004 22.882 202.852 22.776 202.724 22.64C202.6 22.504 202.504 22.346 202.436 22.166C202.368 21.986 202.334 21.79 202.334 21.578C202.334 21.366 202.368 21.17 202.436 20.99C202.504 20.806 202.6 20.648 202.724 20.516C202.852 20.38 203.004 20.274 203.18 20.198C203.36 20.122 203.56 20.084 203.78 20.084C203.984 20.084 204.176 20.128 204.356 20.216C204.536 20.3 204.674 20.416 204.77 20.564H204.782V18.464H205.322V23ZM203.846 22.568C203.99 22.568 204.12 22.544 204.236 22.496C204.352 22.444 204.45 22.376 204.53 22.292C204.61 22.204 204.672 22.1 204.716 21.98C204.76 21.856 204.782 21.722 204.782 21.578C204.782 21.434 204.76 21.302 204.716 21.182C204.672 21.058 204.61 20.954 204.53 20.87C204.45 20.782 204.352 20.714 204.236 20.666C204.12 20.614 203.99 20.588 203.846 20.588C203.702 20.588 203.572 20.614 203.456 20.666C203.34 20.714 203.242 20.782 203.162 20.87C203.082 20.954 203.02 21.058 202.976 21.182C202.932 21.302 202.91 21.434 202.91 21.578C202.91 21.722 202.932 21.856 202.976 21.98C203.02 22.1 203.082 22.204 203.162 22.292C203.242 22.376 203.34 22.444 203.456 22.496C203.572 22.544 203.702 22.568 203.846 22.568ZM207.652 20.87C207.588 20.79 207.508 20.724 207.412 20.672C207.32 20.616 207.206 20.588 207.07 20.588C206.942 20.588 206.83 20.616 206.734 20.672C206.642 20.724 206.596 20.802 206.596 20.906C206.596 20.99 206.622 21.058 206.674 21.11C206.73 21.162 206.794 21.204 206.866 21.236C206.942 21.268 207.022 21.292 207.106 21.308C207.19 21.324 207.262 21.338 207.322 21.35C207.438 21.378 207.546 21.412 207.646 21.452C207.75 21.492 207.838 21.544 207.91 21.608C207.986 21.672 208.044 21.75 208.084 21.842C208.128 21.934 208.15 22.046 208.15 22.178C208.15 22.338 208.116 22.476 208.048 22.592C207.98 22.704 207.892 22.796 207.784 22.868C207.676 22.94 207.552 22.992 207.412 23.024C207.276 23.056 207.138 23.072 206.998 23.072C206.762 23.072 206.554 23.036 206.374 22.964C206.198 22.892 206.04 22.76 205.9 22.568L206.308 22.232C206.396 22.32 206.494 22.398 206.602 22.466C206.71 22.534 206.842 22.568 206.998 22.568C207.066 22.568 207.134 22.562 207.202 22.55C207.274 22.534 207.336 22.512 207.388 22.484C207.444 22.452 207.488 22.414 207.52 22.37C207.556 22.322 207.574 22.268 207.574 22.208C207.574 22.128 207.548 22.062 207.496 22.01C207.448 21.958 207.388 21.918 207.316 21.89C207.248 21.858 207.174 21.834 207.094 21.818C207.018 21.798 206.95 21.782 206.89 21.77C206.774 21.742 206.664 21.71 206.56 21.674C206.456 21.638 206.364 21.59 206.284 21.53C206.204 21.47 206.14 21.394 206.092 21.302C206.044 21.21 206.02 21.096 206.02 20.96C206.02 20.812 206.05 20.684 206.11 20.576C206.174 20.464 206.256 20.372 206.356 20.3C206.46 20.228 206.576 20.174 206.704 20.138C206.836 20.102 206.968 20.084 207.1 20.084C207.292 20.084 207.476 20.12 207.652 20.192C207.828 20.264 207.968 20.384 208.072 20.552L207.652 20.87Z" fill="black"/>
<path d="M0.216 10.072H1.5L2.784 15.328C2.84 15.552 2.892 15.8 2.94 16.072C2.988 16.344 3.032 16.6 3.072 16.84C3.112 17.12 3.156 17.404 3.204 17.692H3.228C3.276 17.396 3.324 17.108 3.372 16.828C3.412 16.588 3.46 16.332 3.516 16.06C3.572 15.788 3.632 15.54 3.696 15.316L5.136 10.072H6.432L7.824 15.316C7.88 15.54 7.936 15.788 7.992 16.06C8.056 16.332 8.108 16.588 8.148 16.828C8.196 17.108 8.244 17.396 8.292 17.692H8.316C8.364 17.404 8.412 17.12 8.46 16.84C8.5 16.6 8.544 16.344 8.592 16.072C8.648 15.8 8.704 15.552 8.76 15.328L10.092 10.072H11.352L8.868 19H7.68L6.216 13.288C6.16 13.088 6.108 12.86 6.06 12.604C6.012 12.348 5.968 12.104 5.928 11.872C5.88 11.608 5.836 11.336 5.796 11.056H5.772C5.724 11.336 5.676 11.608 5.628 11.872C5.588 12.104 5.54 12.348 5.484 12.604C5.436 12.86 5.388 13.084 5.34 13.276L3.768 19H2.544L0.216 10.072ZM14.5445 19.18C14.0485 19.18 13.6045 19.092 13.2125 18.916C12.8285 18.74 12.5005 18.5 12.2285 18.196C11.9565 17.884 11.7485 17.524 11.6045 17.116C11.4685 16.7 11.4005 16.256 11.4005 15.784C11.4005 15.32 11.4725 14.884 11.6165 14.476C11.7685 14.06 11.9765 13.7 12.2405 13.396C12.5125 13.084 12.8365 12.84 13.2125 12.664C13.5965 12.488 14.0205 12.4 14.4845 12.4C14.9645 12.4 15.3885 12.488 15.7565 12.664C16.1245 12.84 16.4365 13.084 16.6925 13.396C16.9565 13.716 17.1525 14.1 17.2805 14.548C17.4165 14.996 17.4845 15.496 17.4845 16.048H12.5405C12.5645 16.36 12.6245 16.652 12.7205 16.924C12.8165 17.196 12.9485 17.432 13.1165 17.632C13.2845 17.832 13.4885 17.988 13.7285 18.1C13.9685 18.212 14.2445 18.268 14.5565 18.268C15.0045 18.268 15.3725 18.172 15.6605 17.98C15.9565 17.78 16.1565 17.508 16.2605 17.164H17.3525C17.2085 17.764 16.8885 18.252 16.3925 18.628C15.9045 18.996 15.2885 19.18 14.5445 19.18ZM14.4845 13.264C14.1965 13.264 13.9405 13.316 13.7165 13.42C13.4925 13.516 13.3005 13.652 13.1405 13.828C12.9805 14.004 12.8525 14.212 12.7565 14.452C12.6605 14.692 12.5965 14.956 12.5645 15.244H16.2965C16.2645 14.62 16.0925 14.136 15.7805 13.792C15.4765 13.44 15.0445 13.264 14.4845 13.264ZM23.7818 19.132C23.4778 19.132 23.1898 19.092 22.9178 19.012C22.6538 18.94 22.4218 18.828 22.2218 18.676C22.0298 18.524 21.8778 18.336 21.7658 18.112C21.6538 17.88 21.5978 17.608 21.5978 17.296C21.5978 16.92 21.6618 16.612 21.7898 16.372C21.9258 16.132 22.1138 15.94 22.3538 15.796C22.6018 15.652 22.8938 15.54 23.2298 15.46C23.5738 15.38 23.9538 15.316 24.3698 15.268C24.6098 15.244 24.8258 15.212 25.0178 15.172C25.2098 15.132 25.3738 15.08 25.5098 15.016C25.6458 14.944 25.7498 14.856 25.8218 14.752C25.8938 14.648 25.9298 14.512 25.9298 14.344C25.9298 13.992 25.8098 13.716 25.5698 13.516C25.3378 13.316 24.9978 13.216 24.5498 13.216C24.0378 13.216 23.6538 13.328 23.3978 13.552C23.1498 13.776 23.0178 14.08 23.0018 14.464H21.9218C21.9298 14.192 21.9898 13.932 22.1018 13.684C22.2138 13.436 22.3778 13.216 22.5938 13.024C22.8098 12.832 23.0778 12.68 23.3978 12.568C23.7258 12.456 24.1058 12.4 24.5378 12.4C24.8418 12.4 25.1258 12.428 25.3898 12.484C25.6538 12.54 25.8898 12.628 26.0978 12.748C26.3698 12.908 26.5818 13.132 26.7338 13.42C26.8858 13.708 26.9618 14.068 26.9618 14.5V17.512C26.9618 17.768 27.0058 17.96 27.0938 18.088C27.1818 18.216 27.3658 18.248 27.6458 18.184H27.6938V18.964C27.6138 18.988 27.5258 19.008 27.4297 19.024C27.3418 19.048 27.2298 19.06 27.0938 19.06C26.7498 19.06 26.4898 18.98 26.3138 18.82C26.1378 18.652 26.0178 18.396 25.9538 18.052H25.9418C25.8378 18.196 25.7178 18.332 25.5818 18.46C25.4458 18.588 25.2898 18.704 25.1138 18.808C24.9378 18.904 24.7378 18.98 24.5138 19.036C24.2978 19.1 24.0538 19.132 23.7818 19.132ZM24.0578 18.316C24.3778 18.316 24.6538 18.264 24.8858 18.16C25.1258 18.048 25.3218 17.912 25.4738 17.752C25.6338 17.584 25.7498 17.4 25.8218 17.2C25.9018 17 25.9418 16.808 25.9418 16.624V15.568C25.7818 15.672 25.5698 15.764 25.3058 15.844C25.0498 15.916 24.7898 15.976 24.5258 16.024C24.2618 16.072 24.0218 16.124 23.8058 16.18C23.5898 16.228 23.4058 16.3 23.2538 16.396C23.1018 16.484 22.9818 16.6 22.8938 16.744C22.8138 16.88 22.7738 17.06 22.7738 17.284C22.7738 17.492 22.8098 17.664 22.8818 17.8C22.9538 17.928 23.0498 18.032 23.1698 18.112C23.2898 18.192 23.4258 18.248 23.5778 18.28C23.7378 18.304 23.8978 18.316 24.0578 18.316ZM31.396 19.18C30.916 19.18 30.48 19.092 30.088 18.916C29.704 18.74 29.376 18.5 29.104 18.196C28.832 17.884 28.62 17.524 28.468 17.116C28.324 16.7 28.252 16.256 28.252 15.784C28.252 15.32 28.324 14.884 28.468 14.476C28.62 14.06 28.832 13.7 29.104 13.396C29.376 13.084 29.704 12.84 30.088 12.664C30.48 12.488 30.916 12.4 31.396 12.4C32.172 12.4 32.8 12.604 33.28 13.012C33.768 13.412 34.068 13.96 34.18 14.656H33.064C32.984 14.232 32.804 13.9 32.524 13.66C32.244 13.42 31.868 13.3 31.396 13.3C31.068 13.3 30.776 13.364 30.52 13.492C30.272 13.62 30.064 13.796 29.896 14.02C29.728 14.244 29.6 14.508 29.512 14.812C29.432 15.116 29.392 15.44 29.392 15.784C29.392 16.136 29.432 16.464 29.512 16.768C29.6 17.064 29.728 17.324 29.896 17.548C30.064 17.772 30.272 17.948 30.52 18.076C30.776 18.204 31.068 18.268 31.396 18.268C31.9 18.268 32.296 18.132 32.584 17.86C32.88 17.58 33.048 17.2 33.088 16.72H34.192C34.12 17.496 33.84 18.1 33.352 18.532C32.872 18.964 32.22 19.18 31.396 19.18ZM38.1109 19.18C37.6309 19.18 37.1949 19.092 36.8029 18.916C36.4189 18.74 36.0909 18.5 35.8189 18.196C35.5469 17.884 35.3349 17.524 35.1829 17.116C35.0389 16.7 34.9669 16.256 34.9669 15.784C34.9669 15.32 35.0389 14.884 35.1829 14.476C35.3349 14.06 35.5469 13.7 35.8189 13.396C36.0909 13.084 36.4189 12.84 36.8029 12.664C37.1949 12.488 37.6309 12.4 38.1109 12.4C38.8869 12.4 39.5149 12.604 39.9949 13.012C40.4829 13.412 40.7829 13.96 40.8949 14.656H39.7789C39.6989 14.232 39.5189 13.9 39.2389 13.66C38.9589 13.42 38.5829 13.3 38.1109 13.3C37.7829 13.3 37.4909 13.364 37.2349 13.492C36.9869 13.62 36.7789 13.796 36.6109 14.02C36.4429 14.244 36.3149 14.508 36.2269 14.812C36.1469 15.116 36.1069 15.44 36.1069 15.784C36.1069 16.136 36.1469 16.464 36.2269 16.768C36.3149 17.064 36.4429 17.324 36.6109 17.548C36.7789 17.772 36.9869 17.948 37.2349 18.076C37.4909 18.204 37.7829 18.268 38.1109 18.268C38.6149 18.268 39.0109 18.132 39.2989 17.86C39.5949 17.58 39.7629 17.2 39.8029 16.72H40.9069C40.8349 17.496 40.5549 18.1 40.0669 18.532C39.5869 18.964 38.9349 19.18 38.1109 19.18ZM44.8257 19.18C44.3297 19.18 43.8857 19.092 43.4937 18.916C43.1097 18.74 42.7817 18.5 42.5097 18.196C42.2377 17.884 42.0297 17.524 41.8857 17.116C41.7497 16.7 41.6817 16.256 41.6817 15.784C41.6817 15.32 41.7537 14.884 41.8977 14.476C42.0497 14.06 42.2577 13.7 42.5217 13.396C42.7937 13.084 43.1177 12.84 43.4937 12.664C43.8777 12.488 44.3017 12.4 44.7657 12.4C45.2457 12.4 45.6697 12.488 46.0377 12.664C46.4057 12.84 46.7177 13.084 46.9737 13.396C47.2377 13.716 47.4337 14.1 47.5617 14.548C47.6977 14.996 47.7657 15.496 47.7657 16.048H42.8217C42.8457 16.36 42.9057 16.652 43.0017 16.924C43.0977 17.196 43.2297 17.432 43.3977 17.632C43.5657 17.832 43.7697 17.988 44.0097 18.1C44.2497 18.212 44.5257 18.268 44.8377 18.268C45.2857 18.268 45.6537 18.172 45.9417 17.98C46.2377 17.78 46.4377 17.508 46.5417 17.164H47.6337C47.4897 17.764 47.1697 18.252 46.6737 18.628C46.1857 18.996 45.5697 19.18 44.8257 19.18ZM44.7657 13.264C44.4777 13.264 44.2217 13.316 43.9977 13.42C43.7737 13.516 43.5817 13.652 43.4217 13.828C43.2617 14.004 43.1337 14.212 43.0377 14.452C42.9417 14.692 42.8777 14.956 42.8457 15.244H46.5777C46.5457 14.62 46.3737 14.136 46.0617 13.792C45.7577 13.44 45.3257 13.264 44.7657 13.264ZM48.9555 12.556H50.0595V13.564H50.0955C50.3355 13.196 50.6195 12.912 50.9475 12.712C51.2835 12.504 51.6835 12.4 52.1475 12.4C52.5555 12.4 52.9275 12.48 53.2635 12.64C53.6075 12.792 53.8995 13.016 54.1395 13.312C54.3875 13.6 54.5795 13.956 54.7155 14.38C54.8515 14.796 54.9195 15.268 54.9195 15.796C54.9195 16.316 54.8555 16.784 54.7275 17.2C54.5995 17.616 54.4115 17.972 54.1635 18.268C53.9235 18.564 53.6275 18.792 53.2755 18.952C52.9315 19.112 52.5435 19.192 52.1115 19.192C51.6715 19.192 51.2795 19.104 50.9355 18.928C50.5915 18.752 50.3075 18.492 50.0835 18.148H50.0475C50.0555 18.26 50.0595 18.408 50.0595 18.592C50.0675 18.768 50.0715 18.98 50.0715 19.228V21.184H48.9555V12.556ZM51.9915 18.268C52.2875 18.268 52.5475 18.208 52.7715 18.088C52.9955 17.96 53.1795 17.788 53.3235 17.572C53.4755 17.356 53.5875 17.1 53.6595 16.804C53.7395 16.5 53.7795 16.172 53.7795 15.82C53.7795 15.468 53.7435 15.14 53.6715 14.836C53.5995 14.532 53.4875 14.272 53.3355 14.056C53.1915 13.832 53.0075 13.66 52.7835 13.54C52.5595 13.412 52.2995 13.348 52.0035 13.348C51.6595 13.348 51.3635 13.412 51.1155 13.54C50.8675 13.668 50.6595 13.844 50.4915 14.068C50.3315 14.292 50.2115 14.556 50.1315 14.86C50.0515 15.156 50.0115 15.476 50.0115 15.82C50.0115 16.156 50.0475 16.476 50.1195 16.78C50.1915 17.076 50.3075 17.336 50.4675 17.56C50.6275 17.776 50.8315 17.948 51.0795 18.076C51.3275 18.204 51.6315 18.268 51.9915 18.268ZM55.5322 12.556H56.5402V10.528H57.6442V12.556H58.9762V13.42H57.6442V17.488C57.6442 17.72 57.7002 17.88 57.8122 17.968C57.9322 18.048 58.0962 18.088 58.3042 18.088C58.4002 18.088 58.5002 18.08 58.6042 18.064C58.7162 18.04 58.8042 18.02 58.8682 18.004H58.9042V18.94C58.6002 19.012 58.3002 19.048 58.0042 19.048C57.5722 19.04 57.2202 18.94 56.9482 18.748C56.6762 18.548 56.5402 18.212 56.5402 17.74V13.42H55.5322V12.556ZM60.0512 13.888H61.3472V15.208H60.0512V13.888ZM60.0512 17.68H61.3472V19H60.0512V17.68Z" fill="black"/>
</svg>
