<svg width="36" height="36" viewBox="0 0 36 36" fill="none" xmlns="http://www.w3.org/2000/svg">
<mask id="mask0_1525_528" style="mask-type:alpha" maskUnits="userSpaceOnUse" x="1" y="2" width="34" height="32">
<path d="M28.3077 32.1739L24.8113 21.4132L18 26.3619L27.1536 33.0124C27.7413 33.4394 28.5322 32.8648 28.3077 32.1739Z" fill="url(#paint0_linear_1525_528)"/>
<path d="M17.2867 2.64531C17.5112 1.95433 18.4888 1.95433 18.7133 2.64531L22.2096 13.406H33.524C34.2506 13.406 34.5526 14.3357 33.9649 14.7627L24.8113 21.4132L18 26.3619L8.84642 33.0123C8.25864 33.4394 7.46778 32.8648 7.69229 32.1738L11.1886 21.4132L2.03509 14.7627C1.4473 14.3357 1.74938 13.406 2.47593 13.406H13.7903L17.2867 2.64531Z" fill="black"/>
</mask>
<g mask="url(#mask0_1525_528)">
<path d="M0 0H36V36H0V0Z" fill="#428BF9"/>
</g>
<defs>
<linearGradient id="paint0_linear_1525_528" x1="21.75" y1="24.0001" x2="28.5" y2="33.0001" gradientUnits="userSpaceOnUse">
<stop stop-opacity="0.6"/>
<stop offset="1" stop-opacity="0.8"/>
</linearGradient>
</defs>
</svg>
