<svg width="24" height="24" viewBox="0 0 24 24" fill="none" xmlns="http://www.w3.org/2000/svg">
<mask id="mask0_12914_278578" style="mask-type:alpha" maskUnits="userSpaceOnUse" x="1" y="3" width="22" height="18">
<path fill-rule="evenodd" clip-rule="evenodd" d="M2 13C2 7.47715 6.47715 3 12 3C17.5228 3 22 7.47715 22 13C22 14.8214 21.513 16.5291 20.6622 18H12C14.7614 18 17 15.7614 17 13C17 10.2386 14.7614 8 12 8C9.23858 8 7 10.2386 7 13C7 15.7614 9.23858 18 12 18H3.33782C2.48697 16.5291 2 14.8214 2 13Z" fill="url(#paint0_linear_12914_278578)"/>
<path opacity="0.25" fill-rule="evenodd" clip-rule="evenodd" d="M7 13C7 15.7614 9.23858 18 12 18C14.7614 18 17 15.7614 17 13C17 10.2386 14.7614 8 12 8C9.23858 8 7 10.2386 7 13Z" fill="black"/>
<path d="M1 20C1 18.8954 1.89543 18 3 18H23C23 19.1046 22.1046 20 21 20H1Z" fill="black"/>
</mask>
<g mask="url(#mask0_12914_278578)">
<path d="M0 0H24V24H0V0Z" fill="#FCC521"/>
</g>
<defs>
<linearGradient id="paint0_linear_12914_278578" x1="17.5" y1="17.5" x2="6.13934" y2="5.1265" gradientUnits="userSpaceOnUse">
<stop stop-opacity="0.5"/>
<stop offset="1"/>
</linearGradient>
</defs>
</svg>
