<svg width="24" height="24" viewBox="0 0 24 24" fill="none" xmlns="http://www.w3.org/2000/svg">
<mask id="mask0_12912_278526" style="mask-type:alpha" maskUnits="userSpaceOnUse" x="1" y="4" width="22" height="16">
<path fill-rule="evenodd" clip-rule="evenodd" d="M6.82843 4H23V15C23 17.7614 20.7614 20 18 20H1V9.82843C1 9.29799 1.21071 8.78929 1.58578 8.41421L5.41421 4.58579C5.78929 4.21071 6.29799 4 6.82843 4ZM17 8C18.1046 8 19 8.89543 19 10V16H11C9.89543 16 9 15.1046 9 14V8H17Z" fill="black"/>
<path fill-rule="evenodd" clip-rule="evenodd" d="M17 8C18.1046 8 19 8.89543 19 10V16H11C9.89543 16 9 15.1046 9 14V13H16C16 11.8954 15.1046 11 14 11H9V8H17Z" fill="url(#paint0_linear_12912_278526)"/>
<path d="M16 13C16 11.8954 15.1046 11 14 11H9V13H16Z" fill="black"/>
</mask>
<g mask="url(#mask0_12912_278526)">
<path d="M0 0H24V24H0V0Z" fill="#5848C3"/>
</g>
<defs>
<linearGradient id="paint0_linear_12912_278526" x1="5" y1="8" x2="15" y2="16" gradientUnits="userSpaceOnUse">
<stop stop-opacity="0.35"/>
<stop offset="1" stop-opacity="0.15"/>
</linearGradient>
</defs>
</svg>
