<svg width="24" height="24" viewBox="0 0 24 24" fill="none" xmlns="http://www.w3.org/2000/svg">
<mask id="mask0_12912_278527" style="mask-type:alpha" maskUnits="userSpaceOnUse" x="1" y="2" width="21" height="21">
<path opacity="0.6" fill-rule="evenodd" clip-rule="evenodd" d="M4.23203 5.66648C3.53364 5.46694 2.78197 5.66172 2.26838 6.17531L1.68629 6.7574L8.75736 12.4143L13 8.17161L4.23203 5.66648ZM3.79652 14.3919C3.1408 14.2607 2.46292 14.466 1.99008 14.9388L1.68628 15.2426L4.16115 17.0104L6.28247 14.8891L3.79652 14.3919Z" fill="black"/>
<path fill-rule="evenodd" clip-rule="evenodd" d="M17.7828 3.3887C18.3185 2.85303 19.1108 2.66599 19.8295 2.90554L20.0666 2.9846C20.5145 3.1339 20.866 3.48538 21.0153 3.93328L21.0944 4.17046C21.3339 4.88912 21.1469 5.68146 20.6112 6.21712L15.8284 10.9999L18.3335 19.7678C18.5331 20.4662 18.3383 21.2179 17.8247 21.7315L17.2426 22.3136L11.5858 15.2426L9.11091 17.7174L9.60808 20.2033C9.73923 20.859 9.53398 21.5369 9.06114 22.0098L8.75734 22.3136L6.98961 19.8387L6.98956 19.8388L5.78748 18.2124L4.16113 17.0104L17.7828 3.3887Z" fill="black"/>
</mask>
<g mask="url(#mask0_12912_278527)">
<path d="M0 0H24V24H0V0Z" fill="#30B7E2"/>
</g>
</svg>
