<svg width="24" height="24" viewBox="0 0 24 24" fill="none" xmlns="http://www.w3.org/2000/svg">
<mask id="mask0_12912_278524" style="mask-type:alpha" maskUnits="userSpaceOnUse" x="1" y="1" width="22" height="20">
<path d="M1 13C1 12.1759 1.94076 11.7056 2.6 12.2L3.5162 12.8871C4.35315 13.5148 5.53244 13.3915 6.22136 12.6041L10.5923 7.60882C11.3541 6.73814 12.6936 6.69355 13.5116 7.51162L14.4884 8.48835C15.3064 9.30642 16.6459 9.26182 17.4077 8.39114L21.2474 4.00293C21.8555 3.30802 23 3.73807 23 4.66143V16C23 18.7614 20.7614 21 18 21H1V13Z" fill="url(#paint0_linear_12912_278524)"/>
<path fill-rule="evenodd" clip-rule="evenodd" d="M1.8 10.6C1.47038 10.3528 1 10.588 1 11V15L2.77431 16.3307C4.02973 17.2723 5.79866 17.0872 6.83204 15.9062L10.5067 11.7067C11.2993 10.8007 12.7069 10.7952 13.5066 11.695L13.7401 11.9576C14.9397 13.3071 17.051 13.2989 18.24 11.94L23 6.49999V2.33072C23 1.86903 22.4277 1.65401 22.1237 2.00146L16.7039 8.19557C16.3229 8.63091 15.6532 8.65321 15.2442 8.24418L13.5116 6.51163C12.6936 5.69355 11.3541 5.73815 10.5923 6.60883L5.61068 12.3021C5.26622 12.6957 4.67658 12.7574 4.2581 12.4436L1.8 10.6Z" fill="black"/>
</mask>
<g mask="url(#mask0_12912_278524)">
<path d="M0 0H24V24H0V0Z" fill="#41414D"/>
</g>
<defs>
<linearGradient id="paint0_linear_12912_278524" x1="1" y1="2" x2="26.5336" y2="11.654" gradientUnits="userSpaceOnUse">
<stop stop-opacity="0.5"/>
<stop offset="1" stop-opacity="0.3"/>
</linearGradient>
</defs>
</svg>
