<?xml version="1.0" encoding="utf-8"?>
<svg width="220" height="28" viewBox="0 0 220 28" fill="none" xmlns="http://www.w3.org/2000/svg">
<path d="M0 1.40674H16.4921V4.24745H2.86232V11.6487H14.9613V14.4895H2.86232V25.3949H0V1.40674Z" fill="black"/>
<path d="M18.0938 13.4911C18.0938 6.37964 22.7442 0.833496 29.8775 0.833496C36.9786 0.833496 41.5648 6.41185 41.5648 13.4911C41.5648 20.6991 36.7213 25.9941 29.8775 25.9941C22.9951 25.9941 18.0938 20.6991 18.0938 13.4911ZM38.5031 13.4589C38.5031 7.91272 35.1262 3.69997 29.8711 3.69997C24.616 3.69997 21.2069 7.90628 21.2069 13.4589C21.2069 19.1338 24.8668 23.1534 29.8711 23.1534C34.8432 23.1534 38.5031 19.1661 38.5031 13.4589Z" fill="black"/>
<path d="M45.064 16.3317V1.40674H47.9584V16.3317C47.9584 20.7957 50.2161 23.1211 54.2942 23.1211C58.4686 23.1211 60.7907 20.8279 60.7907 16.3639V1.40674H63.6851V16.3639C63.6851 22.58 60.1217 25.994 54.2942 25.994C48.5052 25.994 45.064 22.6444 45.064 16.3317Z" fill="black"/>
<path d="M68.2583 1.40674H78.196C82.8143 1.40674 85.8696 4.30542 85.8696 8.29272C85.8696 11.0046 84.4352 13.2012 81.7659 14.2898C84.8212 16.0741 83.7727 20.158 86.4807 25.3885H83.2324C81.3542 21.8199 81.7659 15.0563 77.437 15.0563H71.1335V25.3885H68.2712V1.40674H68.2583ZM78.1317 12.2156C80.9683 12.2156 82.9365 10.5601 82.9365 8.16389C82.9365 5.80629 81.0583 4.24101 78.1317 4.24101H71.1271V12.2156H78.1317Z" fill="black"/>
<path d="M88.957 18.5283L91.8258 17.955C92.3982 21.3691 94.5659 23.1211 98.1615 23.1211C101.635 23.1211 104.053 21.4657 104.053 19.1016C104.053 17.0275 102.175 15.591 97.589 14.2576C92.0187 12.6601 89.626 10.3025 89.626 6.98515C89.626 3.19109 92.7456 0.833496 97.7434 0.833496C102.613 0.833496 105.546 3.0687 106.53 7.33943L103.571 7.97714C102.934 5.10422 101.024 3.67421 97.6791 3.67421C94.5595 3.67421 92.6169 4.88521 92.6169 6.95938C92.6169 8.87251 94.2378 10.1801 98.7918 11.5844C104.78 13.4009 107.006 15.7585 107.006 19.1081C107.006 23.2886 103.597 25.9941 98.3094 25.9941C93.0222 25.9941 89.7546 23.3788 88.957 18.5283Z" fill="black"/>
<path d="M109.521 13.4911C109.521 6.37964 114.171 0.833496 121.305 0.833496C128.406 0.833496 132.992 6.41185 132.992 13.4911C132.992 17.0017 131.847 20.0614 129.872 22.258C130.831 23.2113 131.751 24.1711 132.645 25.1567L130.606 27.1664C129.679 26.1809 128.695 25.1567 127.705 24.1389C125.891 25.3177 123.723 25.9876 121.305 25.9876C114.429 25.9941 109.521 20.6991 109.521 13.4911ZM125.537 22.039C124.579 21.1436 123.659 20.2547 122.701 19.4237L124.707 17.414C125.724 18.3093 126.746 19.2305 127.731 20.158C129.101 18.4704 129.93 16.1707 129.93 13.4589C129.93 7.91272 126.553 3.69997 121.298 3.69997C116.043 3.69997 112.634 7.90628 112.634 13.4589C112.634 19.1338 116.294 23.1534 121.298 23.1534C122.868 23.1534 124.296 22.7733 125.537 22.039Z" fill="black"/>
<path d="M136.626 16.3317V1.40674H139.52V16.3317C139.52 20.7957 141.778 23.1211 145.856 23.1211C150.031 23.1211 152.353 20.8279 152.353 16.3639V1.40674H155.247V16.3639C155.247 22.58 151.684 25.994 145.856 25.994C140.061 25.994 136.626 22.6444 136.626 16.3317Z" fill="black"/>
<path d="M165.996 1.40674H169.372L178.673 25.3885H175.618L172.942 18.4703H162.4L159.756 25.3885H156.637L165.996 1.40674ZM171.791 15.6618L167.713 4.88516L163.538 15.6618H171.791Z" fill="black"/>
<path d="M181.233 1.40674H191.171C195.789 1.40674 198.845 4.30542 198.845 8.29272C198.845 11.0046 197.41 13.2012 194.741 14.2898C197.796 16.0741 196.748 20.158 199.456 25.3885H196.208C194.329 21.8199 194.741 15.0563 190.412 15.0563H184.109V25.3885H181.246V1.40674H181.233ZM191.1 12.2156C193.937 12.2156 195.905 10.5601 195.905 8.16389C195.905 5.80629 194.027 4.24101 191.1 4.24101H184.096V12.2156H191.1Z" fill="black"/>
<path d="M203.025 1.40674H219.71V4.24745H205.894V11.6487H218.662V14.4895H205.894V22.522H220V25.3949H203.025V1.40674Z" fill="black"/>
</svg>